<svg width="40" height="40" viewBox="0 0 40 40" fill="none" xmlns="http://www.w3.org/2000/svg">
<path d="M33.3334 17.2502L23.7001 4.90024C23.2162 4.3964 22.6339 3.99735 21.9894 3.72784C21.3449 3.45832 20.6519 3.32409 19.9534 3.33347C19.2549 3.34284 18.5657 3.49563 17.9287 3.78234C17.2917 4.06906 16.7203 4.48359 16.2501 5.00024L6.66676 17.2502C6.13617 18.0695 5.85266 19.0242 5.8501 20.0002C5.87793 20.9359 6.16027 21.8463 6.66676 22.6336L6.76676 22.7502L16.3334 35.1002C16.8044 35.5989 17.373 35.9954 18.0038 36.2649C18.6346 36.5344 19.3141 36.6713 20.0001 36.6669C20.7093 36.6663 21.4106 36.5177 22.0592 36.2307C22.7077 35.9438 23.2893 35.5247 23.7668 35.0002L33.3334 22.7502C33.8563 21.9241 34.1255 20.9628 34.1078 19.9852C34.09 19.0077 33.786 18.0568 33.2334 17.2502H33.3334ZM30.7168 20.8169L21.2668 32.8502C20.9483 33.1436 20.537 33.3159 20.1046 33.3372C19.6721 33.3585 19.2459 33.2275 18.9001 32.9669L9.41676 20.7836C9.27517 20.5459 9.19499 20.2767 9.18343 20.0002C9.18589 19.7413 9.24267 19.4858 9.3501 19.2502L18.8001 7.2169C19.1186 6.92358 19.5299 6.75126 19.9623 6.72994C20.3948 6.70862 20.821 6.83966 21.1668 7.10024L30.5501 19.2336C30.7234 19.5018 30.8159 19.8142 30.8168 20.1336C30.8054 20.3699 30.7488 20.6019 30.6501 20.8169H30.7168Z" fill="#1E3556"/>
</svg>
