<svg width="40" height="40" viewBox="0 0 40 40" fill="none" xmlns="http://www.w3.org/2000/svg">
<path d="M36.1832 33.817L29.9998 27.6837C32.4 24.691 33.5623 20.8925 33.2479 17.0692C32.9334 13.2458 31.166 9.6883 28.309 7.12807C25.4521 4.56784 21.7229 3.19951 17.888 3.30445C14.0532 3.40938 10.4044 4.9796 7.69174 7.69223C4.97911 10.4049 3.40889 14.0537 3.30396 17.8885C3.19902 21.7233 4.56735 25.4526 7.12758 28.3095C9.68781 31.1664 13.2453 32.9339 17.0687 33.2483C20.892 33.5628 24.6905 32.4005 27.6832 30.0003L33.8165 36.1337C33.9714 36.2899 34.1558 36.4139 34.3589 36.4985C34.562 36.5831 34.7798 36.6267 34.9998 36.6267C35.2199 36.6267 35.4377 36.5831 35.6408 36.4985C35.8439 36.4139 36.0282 36.2899 36.1832 36.1337C36.4836 35.8229 36.6515 35.4076 36.6515 34.9753C36.6515 34.5431 36.4836 34.1278 36.1832 33.817ZM18.3332 30.0003C16.0257 30.0003 13.7701 29.3161 11.8515 28.0341C9.93295 26.7522 8.4376 24.9301 7.55458 22.7983C6.67156 20.6665 6.44052 18.3207 6.89068 16.0576C7.34084 13.7945 8.45198 11.7157 10.0836 10.0841C11.7152 8.45247 13.794 7.34133 16.0571 6.89117C18.3202 6.44101 20.666 6.67205 22.7978 7.55507C24.9296 8.43809 26.7517 9.93344 28.0337 11.852C29.3156 13.7706 29.9998 16.0262 29.9998 18.3337C29.9998 21.4279 28.7707 24.3953 26.5828 26.5832C24.3948 28.7712 21.4274 30.0003 18.3332 30.0003Z" fill="#1E3556"/>
</svg>
