<svg width="40" height="40" viewBox="0 0 40 40" fill="none" xmlns="http://www.w3.org/2000/svg">
<path d="M31.6665 11.6673H26.6665V10.0007C26.6665 8.23254 25.9641 6.53685 24.7139 5.28661C23.4636 4.03636 21.7679 3.33398 19.9998 3.33398C18.2317 3.33398 16.536 4.03636 15.2858 5.28661C14.0355 6.53685 13.3332 8.23254 13.3332 10.0007V11.6673H8.33317C7.89114 11.6673 7.46722 11.8429 7.15466 12.1555C6.8421 12.468 6.6665 12.892 6.6665 13.334V31.6673C6.6665 32.9934 7.19329 34.2652 8.13097 35.2029C9.06865 36.1405 10.3404 36.6673 11.6665 36.6673H28.3332C29.6593 36.6673 30.931 36.1405 31.8687 35.2029C32.8064 34.2652 33.3332 32.9934 33.3332 31.6673V13.334C33.3332 12.892 33.1576 12.468 32.845 12.1555C32.5325 11.8429 32.1085 11.6673 31.6665 11.6673ZM16.6665 10.0007C16.6665 9.1166 17.0177 8.26875 17.6428 7.64363C18.2679 7.01851 19.1158 6.66732 19.9998 6.66732C20.8839 6.66732 21.7317 7.01851 22.3569 7.64363C22.982 8.26875 23.3332 9.1166 23.3332 10.0007V11.6673H16.6665V10.0007ZM29.9998 31.6673C29.9998 32.1093 29.8242 32.5333 29.5117 32.8458C29.1991 33.1584 28.7752 33.334 28.3332 33.334H11.6665C11.2245 33.334 10.8006 33.1584 10.488 32.8458C10.1754 32.5333 9.99984 32.1093 9.99984 31.6673V15.0007H13.3332V16.6673C13.3332 17.1093 13.5088 17.5333 13.8213 17.8458C14.1339 18.1584 14.5578 18.334 14.9998 18.334C15.4419 18.334 15.8658 18.1584 16.1783 17.8458C16.4909 17.5333 16.6665 17.1093 16.6665 16.6673V15.0007H23.3332V16.6673C23.3332 17.1093 23.5088 17.5333 23.8213 17.8458C24.1339 18.1584 24.5578 18.334 24.9998 18.334C25.4419 18.334 25.8658 18.1584 26.1783 17.8458C26.4909 17.5333 26.6665 17.1093 26.6665 16.6673V15.0007H29.9998V31.6673Z" fill="#1E3556"/>
</svg>
