<svg width="40" height="40" viewBox="0 0 40 40" fill="none" xmlns="http://www.w3.org/2000/svg">
<path d="M22.1668 20.3663C23.0561 19.5966 23.7694 18.6445 24.2583 17.5747C24.7472 16.5049 25.0002 15.3425 25.0002 14.1663C25.0002 11.9562 24.1222 9.83659 22.5594 8.27378C20.9966 6.71098 18.877 5.83301 16.6668 5.83301C14.4567 5.83301 12.3371 6.71098 10.7743 8.27378C9.21147 9.83659 8.3335 11.9562 8.3335 14.1663C8.33348 15.3425 8.5865 16.5049 9.07537 17.5747C9.56425 18.6445 10.2775 19.5966 11.1668 20.3663C8.83373 21.4228 6.85427 23.1289 5.46513 25.2806C4.07599 27.4323 3.33595 29.9385 3.3335 32.4997C3.3335 32.9417 3.50909 33.3656 3.82165 33.6782C4.13421 33.9907 4.55814 34.1663 5.00016 34.1663C5.44219 34.1663 5.86611 33.9907 6.17867 33.6782C6.49124 33.3656 6.66683 32.9417 6.66683 32.4997C6.66683 29.8475 7.7204 27.304 9.59576 25.4286C11.4711 23.5532 14.0147 22.4997 16.6668 22.4997C19.319 22.4997 21.8625 23.5532 23.7379 25.4286C25.6133 27.304 26.6668 29.8475 26.6668 32.4997C26.6668 32.9417 26.8424 33.3656 27.155 33.6782C27.4675 33.9907 27.8915 34.1663 28.3335 34.1663C28.7755 34.1663 29.1994 33.9907 29.512 33.6782C29.8246 33.3656 30.0002 32.9417 30.0002 32.4997C29.9977 29.9385 29.2577 27.4323 27.8685 25.2806C26.4794 23.1289 24.4999 21.4228 22.1668 20.3663ZM16.6668 19.1663C15.6779 19.1663 14.7112 18.8731 13.889 18.3237C13.0667 17.7743 12.4259 16.9934 12.0474 16.0798C11.669 15.1661 11.57 14.1608 11.7629 13.1909C11.9558 12.221 12.432 11.3301 13.1313 10.6308C13.8306 9.93155 14.7215 9.45534 15.6914 9.26242C16.6613 9.06949 17.6666 9.16851 18.5802 9.54694C19.4939 9.92538 20.2748 10.5662 20.8242 11.3885C21.3736 12.2107 21.6668 13.1774 21.6668 14.1663C21.6668 15.4924 21.14 16.7642 20.2024 17.7019C19.2647 18.6396 17.9929 19.1663 16.6668 19.1663ZM36.1835 15.2163C36.0286 15.0601 35.8442 14.9361 35.6411 14.8515C35.438 14.7669 35.2202 14.7233 35.0002 14.7233C34.7801 14.7233 34.5623 14.7669 34.3592 14.8515C34.1561 14.9361 33.9718 15.0601 33.8168 15.2163L30.4835 18.5497L29.4502 17.4997C29.2952 17.3435 29.1109 17.2195 28.9078 17.1349C28.7047 17.0502 28.4868 17.0067 28.2668 17.0067C28.0468 17.0067 27.829 17.0502 27.6259 17.1349C27.4228 17.2195 27.2384 17.3435 27.0835 17.4997C26.7731 17.8119 26.5988 18.2344 26.5988 18.6747C26.5988 19.115 26.7731 19.5374 27.0835 19.8497L29.3168 22.083C29.6291 22.3934 30.0515 22.5677 30.4918 22.5677C30.9321 22.5677 31.3546 22.3934 31.6668 22.083L36.1168 17.633C36.2851 17.4819 36.4208 17.2981 36.5158 17.0928C36.6108 16.8875 36.663 16.6651 36.6692 16.439C36.6754 16.2129 36.6356 15.9879 36.5521 15.7777C36.4686 15.5675 36.3432 15.3765 36.1835 15.2163Z" fill="#1E3556"/>
</svg>
