<svg width="123" height="24" viewBox="0 0 123 24" fill="none" xmlns="http://www.w3.org/2000/svg">
<g clip-path="url(#clip0_134212_466)">
<path d="M39.1364 3.37582C37.3829 1.71422 35.1211 0.60649 32.7576 0.203679C30.9279 -0.0732541 30.6483 -0.0732541 28.7424 0.228854C26.9126 0.530963 24.4475 1.7394 22.999 3.04853L21.83 4.10591L22.2366 5.08777C22.4653 5.61646 22.7448 6.74936 22.8465 7.60534L23.0244 9.14105L23.5581 8.13403C24.2696 6.79971 26.1502 5.08777 27.6496 4.40802C29.4539 3.6024 32.4527 3.65275 34.3079 4.50872C35.9597 5.28917 37.6624 6.92559 38.4502 8.51166C38.9076 9.44316 39.0093 10.0726 39.0093 12.0363C39.0093 14.8308 38.4756 16.2406 36.7475 17.9022C35.0703 19.5134 33.2913 20.2184 30.8771 20.2184C28.4374 20.1932 27.0397 19.6393 25.2862 18.0533C23.5835 16.4924 22.8719 14.9818 22.5924 12.1621C22.1857 8.2599 21.1438 6.01927 18.7295 3.8038C17.4081 2.59537 16.1882 1.9408 14.2568 1.36176C13.1386 1.03448 11.6138 0.95895 6.42955 0.95895H0V23.1387L7.06488 23.0632L14.1043 22.9877L15.7562 22.2072C16.6711 21.7793 17.8401 21.0743 18.3483 20.6212L19.2632 19.8407L18.9329 18.733C18.755 18.1288 18.5262 16.9959 18.4246 16.2154L18.2467 14.7804L17.8655 15.4853C17.2556 16.6686 15.7054 18.1036 14.3585 18.733C13.1641 19.2869 12.8083 19.3372 8.4626 19.3372H3.81198V4.68495L8.69132 4.78566C14.3585 4.88636 14.8159 5.01224 16.8236 7.2277C18.1196 8.63754 18.8058 10.4502 18.8058 12.3887C18.8058 15.2084 19.9748 17.9022 22.2112 20.2687C26.7347 25.0773 34.3079 25.2535 39.1618 20.6967C41.7539 18.2295 42.9483 15.5105 42.9483 12.0363C42.9483 8.56201 41.7539 5.84304 39.1364 3.37582Z" fill="black"/>
<path d="M66.7606 1.08465L64.0667 9.06535C62.5928 13.4459 61.3221 17.0964 61.2459 17.1719C61.1696 17.2475 59.8736 13.6222 58.3488 9.1157L55.6041 0.958769H48.031V23.1134H51.843V4.70995L52.5037 4.78548C53.1391 4.861 53.2915 5.26382 56.2649 13.9998L59.3399 23.1386L61.2205 23.063L63.101 22.9875L66.176 13.8487C69.2256 4.81065 69.251 4.73513 69.9372 4.73513H70.6488V23.1134H74.2066V0.933594L70.4709 1.00912L66.7606 1.08465Z" fill="black"/>
<path d="M95.2234 1.66369C94.2069 1.10982 93.8511 1.08465 87.4978 1.00912L80.8141 0.933594V23.1134H84.3465L84.4228 19.3874L84.499 15.6866L89.3275 15.5607C94.6897 15.4096 95.2488 15.2837 97.0023 13.6977C97.5868 13.169 98.3238 12.1368 98.7304 11.2556C100.331 7.68068 98.8321 3.55187 95.2234 1.66369ZM93.8511 11.457C93.2666 11.8599 92.5804 11.9102 88.8193 11.9102H84.499L84.4228 8.31008L84.3465 4.73513H88.6922C92.0213 4.73513 93.2157 4.81065 93.7748 5.11276C96.062 6.29602 96.1383 9.97167 93.8511 11.457Z" fill="black"/>
<path d="M115.833 1.63873L115.579 0.958984H108.133L104.448 11.8097C102.415 17.7764 100.738 22.7611 100.687 22.887C100.636 23.0129 101.45 23.1136 102.492 23.1136H104.398L105.007 21.2758L105.643 19.4631L111.869 19.3876L118.07 19.3372L118.68 21.2254L119.29 23.1136H121.145C122.161 23.1136 123 23.0381 123 22.9374C123 22.7611 116.291 2.84716 115.833 1.63873ZM111.92 15.8127C109.201 15.8127 106.99 15.7371 106.99 15.6364C106.99 15.5105 107.803 13.0181 108.794 10.0726L110.598 4.71016L111.894 4.78569L113.165 4.86122L115.02 10.3243L116.85 15.8127H111.92Z" fill="black"/>
</g>
<defs>
<clipPath id="clip0_134212_466">
<rect width="123" height="24" fill="white"/>
</clipPath>
</defs>
</svg>
