<svg width="123" height="25" viewBox="0 0 123 25" fill="none" xmlns="http://www.w3.org/2000/svg">
<g clip-path="url(#clip0_131869_19060)">
<path d="M39.1364 4.35726C37.3829 2.69567 35.1211 1.58794 32.7576 1.18512C30.9279 0.908191 30.6483 0.908191 28.7424 1.2103C26.9126 1.51241 24.4475 2.72084 22.999 4.02998L21.83 5.08736L22.2366 6.06921C22.4653 6.5979 22.7448 7.73081 22.8465 8.58678L23.0244 10.1225L23.5581 9.11547C24.2696 7.78116 26.1502 6.06921 27.6496 5.38947C29.4539 4.58384 32.4527 4.6342 34.3079 5.49017C35.9597 6.27062 37.6624 7.90704 38.4502 9.49311C38.9076 10.4246 39.0093 11.054 39.0093 13.0177C39.0093 15.8122 38.4756 17.222 36.7475 18.8836C35.0703 20.4949 33.2913 21.1998 30.8771 21.1998C28.4374 21.1746 27.0397 20.6208 25.2862 19.0347C23.5835 17.4738 22.8719 15.9633 22.5924 13.1436C22.1857 9.24135 21.1438 7.00071 18.7295 4.78525C17.4081 3.57682 16.1882 2.92225 14.2568 2.34321C13.1386 2.01592 11.6138 1.9404 6.42955 1.9404H0V24.1202L7.06488 24.0447L14.1043 23.9691L15.7562 23.1887C16.6711 22.7607 17.8401 22.0558 18.3483 21.6026L19.2632 20.8222L18.9329 19.7144C18.755 19.1102 18.5262 17.9773 18.4246 17.1969L18.2467 15.7619L17.8655 16.4668C17.2556 17.65 15.7054 19.0851 14.3585 19.7144C13.1641 20.2683 12.8083 20.3187 8.4626 20.3187H3.81198V5.6664L8.69132 5.7671C14.3585 5.86781 14.8159 5.99368 16.8236 8.20915C18.1196 9.61899 18.8058 11.4316 18.8058 13.3702C18.8058 16.1898 19.9748 18.8836 22.2112 21.2502C26.7347 26.0587 34.3079 26.235 39.1618 21.6781C41.7539 19.2109 42.9483 16.492 42.9483 13.0177C42.9483 9.54346 41.7539 6.82448 39.1364 4.35726Z" fill="white"/>
<path d="M66.7606 2.06512L64.0667 10.0458C62.5928 14.4264 61.3221 18.0769 61.2459 18.1524C61.1696 18.2279 59.8736 14.6026 58.3488 10.0962L55.6041 1.93924H48.031V24.0939H51.843V5.69042L52.5037 5.76595C53.1391 5.84147 53.2915 6.24428 56.2649 14.9803L59.3399 24.119L61.2205 24.0435L63.101 23.968L66.176 14.8292C69.2256 5.79112 69.251 5.71559 69.9372 5.71559H70.6488V24.0939H74.2066V1.91406L70.4709 1.98959L66.7606 2.06512Z" fill="white"/>
<path d="M95.2233 2.64416C94.2068 2.09029 93.851 2.06512 87.4977 1.98959L80.814 1.91406V24.0939H84.3465L84.4227 20.3679L84.4989 16.667L89.3275 16.5412C94.6896 16.3901 95.2487 16.2642 97.0023 14.6781C97.5868 14.1495 98.3237 13.1173 98.7303 12.2361C100.331 8.66115 98.832 4.53234 95.2233 2.64416ZM93.851 12.4375C93.2665 12.8403 92.5803 12.8907 88.8192 12.8907H84.4989L84.4227 9.29054L84.3465 5.71559H88.6921C92.0213 5.71559 93.2157 5.79112 93.7748 6.09323C96.062 7.27649 96.1382 10.9521 93.851 12.4375Z" fill="white"/>
<path d="M115.833 2.6192L115.579 1.93945H108.133L104.448 12.7902C102.415 18.7568 100.738 23.7416 100.687 23.8675C100.636 23.9934 101.45 24.0941 102.492 24.0941H104.398L105.007 22.2562L105.643 20.4436L111.869 20.3681L118.07 20.3177L118.68 22.2059L119.29 24.0941H121.145C122.161 24.0941 123 24.0185 123 23.9178C123 23.7416 116.291 3.82763 115.833 2.6192ZM111.92 16.7931C109.201 16.7931 106.99 16.7176 106.99 16.6169C106.99 16.491 107.803 13.9986 108.794 11.0531L110.598 5.69063L111.894 5.76616L113.165 5.84169L115.02 11.3048L116.85 16.7931H111.92Z" fill="white"/>
</g>
<defs>
<clipPath id="clip0_131869_19060">
<rect width="123" height="24" fill="white" transform="translate(0 0.980469)"/>
</clipPath>
</defs>
</svg>
