<svg width="40" height="40" viewBox="0 0 40 40" fill="none" xmlns="http://www.w3.org/2000/svg">
<path d="M16.6668 21.6663H5.00016C4.55814 21.6663 4.13421 21.8419 3.82165 22.1545C3.50909 22.4671 3.3335 22.891 3.3335 23.333V34.9997C3.3335 35.4417 3.50909 35.8656 3.82165 36.1782C4.13421 36.4907 4.55814 36.6663 5.00016 36.6663H16.6668C17.1089 36.6663 17.5328 36.4907 17.8453 36.1782C18.1579 35.8656 18.3335 35.4417 18.3335 34.9997V23.333C18.3335 22.891 18.1579 22.4671 17.8453 22.1545C17.5328 21.8419 17.1089 21.6663 16.6668 21.6663ZM15.0002 33.333H6.66683V24.9997H15.0002V33.333ZM35.0002 3.33301H23.3335C22.8915 3.33301 22.4675 3.5086 22.155 3.82116C21.8424 4.13372 21.6668 4.55765 21.6668 4.99967V16.6663C21.6668 17.1084 21.8424 17.5323 22.155 17.8449C22.4675 18.1574 22.8915 18.333 23.3335 18.333H35.0002C35.4422 18.333 35.8661 18.1574 36.1787 17.8449C36.4912 17.5323 36.6668 17.1084 36.6668 16.6663V4.99967C36.6668 4.55765 36.4912 4.13372 36.1787 3.82116C35.8661 3.5086 35.4422 3.33301 35.0002 3.33301ZM33.3335 14.9997H25.0002V6.66634H33.3335V14.9997ZM35.0002 21.6663H23.3335C22.8915 21.6663 22.4675 21.8419 22.155 22.1545C21.8424 22.4671 21.6668 22.891 21.6668 23.333V34.9997C21.6668 35.4417 21.8424 35.8656 22.155 36.1782C22.4675 36.4907 22.8915 36.6663 23.3335 36.6663H35.0002C35.4422 36.6663 35.8661 36.4907 36.1787 36.1782C36.4912 35.8656 36.6668 35.4417 36.6668 34.9997V23.333C36.6668 22.891 36.4912 22.4671 36.1787 22.1545C35.8661 21.8419 35.4422 21.6663 35.0002 21.6663ZM33.3335 33.333H25.0002V24.9997H33.3335V33.333ZM16.6668 3.33301H5.00016C4.55814 3.33301 4.13421 3.5086 3.82165 3.82116C3.50909 4.13372 3.3335 4.55765 3.3335 4.99967V16.6663C3.3335 17.1084 3.50909 17.5323 3.82165 17.8449C4.13421 18.1574 4.55814 18.333 5.00016 18.333H16.6668C17.1089 18.333 17.5328 18.1574 17.8453 17.8449C18.1579 17.5323 18.3335 17.1084 18.3335 16.6663V4.99967C18.3335 4.55765 18.1579 4.13372 17.8453 3.82116C17.5328 3.5086 17.1089 3.33301 16.6668 3.33301ZM15.0002 14.9997H6.66683V6.66634H15.0002V14.9997Z" fill="#1E3556"/>
</svg>
