<svg width="40" height="40" viewBox="0 0 40 40" fill="none" xmlns="http://www.w3.org/2000/svg">
<path d="M17.8502 18.8167L13.6835 14.65C13.3697 14.3362 12.944 14.1598 12.5002 14.1598C12.0563 14.1598 11.6307 14.3362 11.3168 14.65C11.003 14.9638 10.8267 15.3895 10.8267 15.8333C10.8267 16.0531 10.87 16.2707 10.9541 16.4737C11.0382 16.6768 11.1614 16.8613 11.3168 17.0167L12.6502 18.3333H6.66683V11.6667C6.66683 11.2246 6.49124 10.8007 6.17867 10.4882C5.86611 10.1756 5.44219 10 5.00016 10C4.55814 10 4.13421 10.1756 3.82165 10.4882C3.50909 10.8007 3.3335 11.2246 3.3335 11.6667V28.3333C3.3335 28.7754 3.50909 29.1993 3.82165 29.5118C4.13421 29.8244 4.55814 30 5.00016 30C5.44219 30 5.86611 29.8244 6.17867 29.5118C6.49124 29.1993 6.66683 28.7754 6.66683 28.3333V21.6667H12.6502L11.3168 22.9833C11.1606 23.1383 11.0366 23.3226 10.952 23.5257C10.8674 23.7288 10.8238 23.9466 10.8238 24.1667C10.8238 24.3867 10.8674 24.6045 10.952 24.8076C11.0366 25.0107 11.1606 25.1951 11.3168 25.35C11.4718 25.5062 11.6561 25.6302 11.8592 25.7148C12.0623 25.7994 12.2801 25.843 12.5002 25.843C12.7202 25.843 12.938 25.7994 13.1411 25.7148C13.3442 25.6302 13.5286 25.5062 13.6835 25.35L17.8502 21.1833C18.0019 21.0248 18.1208 20.8379 18.2002 20.6333C18.3669 20.2276 18.3669 19.7724 18.2002 19.3667C18.1208 19.1621 18.0019 18.9752 17.8502 18.8167ZM35.0002 10C34.5581 10 34.1342 10.1756 33.8217 10.4882C33.5091 10.8007 33.3335 11.2246 33.3335 11.6667V18.3333H27.3502L28.6835 17.0167C28.8389 16.8613 28.9622 16.6768 29.0463 16.4737C29.1304 16.2707 29.1736 16.0531 29.1736 15.8333C29.1736 15.6136 29.1304 15.396 29.0463 15.1929C28.9622 14.9899 28.8389 14.8054 28.6835 14.65C28.5281 14.4946 28.3436 14.3713 28.1406 14.2872C27.9375 14.2031 27.7199 14.1598 27.5002 14.1598C27.2804 14.1598 27.0628 14.2031 26.8597 14.2872C26.6567 14.3713 26.4722 14.4946 26.3168 14.65L22.1502 18.8167C21.9984 18.9752 21.8795 19.1621 21.8002 19.3667C21.6335 19.7724 21.6335 20.2276 21.8002 20.6333C21.8795 20.8379 21.9984 21.0248 22.1502 21.1833L26.3168 25.35C26.4718 25.5062 26.6561 25.6302 26.8592 25.7148C27.0623 25.7994 27.2801 25.843 27.5002 25.843C27.7202 25.843 27.938 25.7994 28.1411 25.7148C28.3442 25.6302 28.5286 25.5062 28.6835 25.35C28.8397 25.1951 28.9637 25.0107 29.0483 24.8076C29.1329 24.6045 29.1765 24.3867 29.1765 24.1667C29.1765 23.9466 29.1329 23.7288 29.0483 23.5257C28.9637 23.3226 28.8397 23.1383 28.6835 22.9833L27.3502 21.6667H33.3335V28.3333C33.3335 28.7754 33.5091 29.1993 33.8217 29.5118C34.1342 29.8244 34.5581 30 35.0002 30C35.4422 30 35.8661 29.8244 36.1787 29.5118C36.4912 29.1993 36.6668 28.7754 36.6668 28.3333V11.6667C36.6668 11.2246 36.4912 10.8007 36.1787 10.4882C35.8661 10.1756 35.4422 10 35.0002 10Z" fill="#1E3556"/>
</svg>
