<svg width="40" height="40" viewBox="0 0 40 40" fill="none" xmlns="http://www.w3.org/2000/svg">
<path d="M13.3332 27.4997C13.0035 27.4997 12.6813 27.5974 12.4072 27.7806C12.1331 27.9637 11.9195 28.224 11.7934 28.5285C11.6672 28.8331 11.6342 29.1682 11.6985 29.4915C11.7628 29.8148 11.9216 30.1118 12.1547 30.3449C12.3877 30.5779 12.6847 30.7367 13.008 30.801C13.3313 30.8653 13.6664 30.8323 13.971 30.7061C14.2755 30.58 14.5358 30.3664 14.719 30.0923C14.9021 29.8182 14.9998 29.496 14.9998 29.1663C14.9998 28.7243 14.8242 28.3004 14.5117 27.9878C14.1991 27.6753 13.7752 27.4997 13.3332 27.4997ZM19.9998 3.33301C13.3332 3.33301 6.6665 5.61634 6.6665 9.99967V29.9997C6.6665 34.383 13.3332 36.6663 19.9998 36.6663C26.6665 36.6663 33.3332 34.383 33.3332 29.9997V9.99967C33.3332 5.61634 26.6665 3.33301 19.9998 3.33301ZM29.9998 29.9997C29.9998 31.183 26.1998 33.333 19.9998 33.333C13.7998 33.333 9.99984 31.183 9.99984 29.9997V24.5497C13.12 26.0329 16.5463 26.7582 19.9998 26.6663C23.4534 26.7582 26.8797 26.0329 29.9998 24.5497V29.9997ZM29.9998 19.9997C29.9998 21.183 26.1998 23.333 19.9998 23.333C13.7998 23.333 9.99984 21.183 9.99984 19.9997V14.5497C13.12 16.0329 16.5463 16.7582 19.9998 16.6663C23.4534 16.7582 26.8797 16.0329 29.9998 14.5497V19.9997ZM19.9998 13.333C13.7998 13.333 9.99984 11.183 9.99984 9.99967C9.99984 8.81634 13.7998 6.66634 19.9998 6.66634C26.1998 6.66634 29.9998 8.81634 29.9998 9.99967C29.9998 11.183 26.1998 13.333 19.9998 13.333ZM13.3332 17.4997C13.0035 17.4997 12.6813 17.5974 12.4072 17.7806C12.1331 17.9637 11.9195 18.224 11.7934 18.5285C11.6672 18.8331 11.6342 19.1682 11.6985 19.4915C11.7628 19.8148 11.9216 20.1118 12.1547 20.3449C12.3877 20.5779 12.6847 20.7367 13.008 20.801C13.3313 20.8653 13.6664 20.8323 13.971 20.7061C14.2755 20.58 14.5358 20.3664 14.719 20.0923C14.9021 19.8182 14.9998 19.496 14.9998 19.1663C14.9998 18.7243 14.8242 18.3004 14.5117 17.9878C14.1991 17.6753 13.7752 17.4997 13.3332 17.4997Z" fill="#1E3556"/>
</svg>
