<svg width="40" height="40" viewBox="0 0 40 40" fill="none" xmlns="http://www.w3.org/2000/svg">
<path d="M36.5334 19.3337C33.1668 11.517 26.8334 6.66699 20.0001 6.66699C13.1668 6.66699 6.83344 11.517 3.46678 19.3337C3.37501 19.5439 3.32764 19.7709 3.32764 20.0003C3.32764 20.2298 3.37501 20.4567 3.46678 20.667C6.83344 28.4837 13.1668 33.3337 20.0001 33.3337C26.8334 33.3337 33.1668 28.4837 36.5334 20.667C36.6252 20.4567 36.6726 20.2298 36.6726 20.0003C36.6726 19.7709 36.6252 19.5439 36.5334 19.3337ZM20.0001 30.0003C14.7168 30.0003 9.71678 26.1837 6.83344 20.0003C9.71678 13.817 14.7168 10.0003 20.0001 10.0003C25.2834 10.0003 30.2834 13.817 33.1668 20.0003C30.2834 26.1837 25.2834 30.0003 20.0001 30.0003ZM20.0001 13.3337C18.6816 13.3337 17.3926 13.7247 16.2963 14.4572C15.2 15.1897 14.3455 16.2309 13.8409 17.4491C13.3363 18.6673 13.2043 20.0077 13.4615 21.3009C13.7188 22.5941 14.3537 23.782 15.2861 24.7144C16.2184 25.6467 17.4063 26.2817 18.6995 26.5389C19.9927 26.7961 21.3332 26.6641 22.5513 26.1595C23.7695 25.6549 24.8107 24.8005 25.5432 23.7041C26.2758 22.6078 26.6668 21.3189 26.6668 20.0003C26.6668 18.2322 25.9644 16.5365 24.7142 15.2863C23.4639 14.036 21.7682 13.3337 20.0001 13.3337ZM20.0001 23.3337C19.3408 23.3337 18.6964 23.1382 18.1482 22.7719C17.6 22.4056 17.1728 21.885 16.9205 21.2759C16.6682 20.6668 16.6022 19.9966 16.7308 19.35C16.8594 18.7034 17.1769 18.1095 17.6431 17.6433C18.1093 17.1771 18.7032 16.8597 19.3498 16.731C19.9964 16.6024 20.6666 16.6684 21.2757 16.9207C21.8848 17.173 22.4054 17.6003 22.7717 18.1484C23.1379 18.6966 23.3334 19.3411 23.3334 20.0003C23.3334 20.8844 22.9823 21.7322 22.3571 22.3573C21.732 22.9825 20.8842 23.3337 20.0001 23.3337Z" fill="#1E3556"/>
</svg>
