<svg width="40" height="40" viewBox="0 0 40 40" fill="none" xmlns="http://www.w3.org/2000/svg">
<path d="M34.4003 26.2859C35.3187 25.2377 35.8275 23.8931 35.8332 22.4996C35.8332 20.9525 35.2186 19.4687 34.1246 18.3748C33.0307 17.2808 31.5469 16.6662 29.9998 16.6662C28.4527 16.6662 26.969 17.2808 25.875 18.3748C24.7811 19.4687 24.1665 20.9525 24.1665 22.4996C24.1721 23.8931 24.681 25.2377 25.5994 26.2859C24.3994 27.0299 23.4086 28.0672 22.7205 29.3002C22.0324 30.5331 21.6697 31.921 21.6665 33.3329C21.6665 33.7749 21.8421 34.1988 22.1547 34.5114C22.4672 34.824 22.8911 34.9996 23.3332 34.9996C23.7752 34.9996 24.1991 34.824 24.5117 34.5114C24.8242 34.1988 24.9998 33.7749 24.9998 33.3329C24.9998 32.0068 25.5266 30.735 26.4643 29.7974C27.402 28.8597 28.6738 28.3329 29.9998 28.3329C31.3259 28.3329 32.5977 28.8597 33.5354 29.7974C34.473 30.735 34.9998 32.0068 34.9998 33.3329C34.9998 33.7749 35.1754 34.1988 35.488 34.5114C35.8005 34.824 36.2245 34.9996 36.6665 34.9996C37.1085 34.9996 37.5325 34.824 37.845 34.5114C38.1576 34.1988 38.3332 33.7749 38.3332 33.3329C38.33 31.921 37.9672 30.5331 37.2791 29.3002C36.591 28.0672 35.6003 27.0299 34.4003 26.2859ZM29.9998 24.9996C29.5054 24.9996 29.022 24.8529 28.6109 24.5782C28.1998 24.3035 27.8794 23.9131 27.6901 23.4563C27.5009 22.9995 27.4514 22.4968 27.5479 22.0118C27.6443 21.5269 27.8824 21.0814 28.2321 20.7318C28.5817 20.3822 29.0272 20.1441 29.5121 20.0476C29.9971 19.9511 30.4997 20.0006 30.9565 20.1899C31.4134 20.3791 31.8038 20.6995 32.0785 21.1106C32.3532 21.5218 32.4998 22.0051 32.4998 22.4996C32.4991 23.1624 32.2355 23.7978 31.7668 24.2665C31.2981 24.7352 30.6627 24.9988 29.9998 24.9996ZM11.322 12.8451L14.6548 16.1779C14.9683 16.4857 15.3907 16.6573 15.83 16.6554C16.2694 16.6534 16.6902 16.4779 17.0009 16.1673C17.3116 15.8566 17.487 15.4358 17.489 14.9964C17.491 14.5571 17.3194 14.1347 17.0115 13.8212L16.5233 13.3329H23.4764L22.9881 13.8212C22.8317 13.9756 22.7075 14.1594 22.6224 14.362C22.5374 14.5646 22.4932 14.782 22.4926 15.0018C22.4919 15.2215 22.5346 15.4392 22.6184 15.6423C22.7022 15.8455 22.8253 16.03 22.9807 16.1854C23.1361 16.3408 23.3206 16.4639 23.5238 16.5476C23.7269 16.6314 23.9446 16.6741 24.1643 16.6735C24.384 16.6728 24.6015 16.6286 24.8041 16.5436C25.0067 16.4585 25.1904 16.3342 25.3448 16.1779L28.6777 12.8451C28.989 12.5317 29.1638 12.1079 29.1638 11.6662C29.1638 11.2244 28.989 10.8006 28.6777 10.4873L25.3448 7.15456C25.0314 6.84671 24.609 6.67511 24.1696 6.6771C23.7303 6.67909 23.3095 6.85451 22.9988 7.16519C22.6881 7.47586 22.5127 7.89666 22.5107 8.33602C22.5087 8.77538 22.6803 9.19775 22.9882 9.51123L23.4765 9.99956H16.5233L17.0116 9.51123C17.3209 9.19803 17.4937 8.77519 17.4923 8.33503C17.4909 7.89487 17.3154 7.47314 17.0042 7.1619C16.6929 6.85067 16.2712 6.67521 15.831 6.67384C15.3909 6.67246 14.968 6.84528 14.6548 7.15456L11.322 10.4873C11.0106 10.8007 10.8358 11.2245 10.8358 11.6662C10.8358 12.108 11.0106 12.5318 11.322 12.8451ZM14.4003 26.2859C15.3187 25.2377 15.8275 23.8931 15.8332 22.4996C15.8332 20.9525 15.2186 19.4687 14.1246 18.3748C13.0307 17.2808 11.5469 16.6662 9.99984 16.6662C8.45274 16.6662 6.96901 17.2808 5.87505 18.3748C4.78109 19.4687 4.1665 20.9525 4.1665 22.4996C4.17214 23.8931 4.681 25.2377 5.5994 26.2859C4.39939 27.0299 3.40863 28.0672 2.72054 29.3002C2.03245 30.5331 1.6697 31.921 1.6665 33.3329C1.6665 33.7749 1.8421 34.1988 2.15466 34.5114C2.46722 34.824 2.89114 34.9996 3.33317 34.9996C3.7752 34.9996 4.19912 34.824 4.51168 34.5114C4.82424 34.1988 4.99984 33.7749 4.99984 33.3329C4.99984 32.0068 5.52662 30.735 6.4643 29.7974C7.40198 28.8597 8.67375 28.3329 9.99984 28.3329C11.3259 28.3329 12.5977 28.8597 13.5354 29.7974C14.4731 30.735 14.9998 32.0068 14.9998 33.3329C14.9998 33.7749 15.1754 34.1988 15.488 34.5114C15.8006 34.824 16.2245 34.9996 16.6665 34.9996C17.1085 34.9996 17.5325 34.824 17.845 34.5114C18.1576 34.1988 18.3332 33.7749 18.3332 33.3329C18.33 31.921 17.9672 30.5331 17.2791 29.3002C16.591 28.0672 15.6003 27.0299 14.4003 26.2859H14.4003ZM9.99984 24.9996C9.50538 24.9996 9.02203 24.8529 8.61091 24.5782C8.19979 24.3035 7.87936 23.9131 7.69014 23.4563C7.50092 22.9995 7.45141 22.4968 7.54787 22.0118C7.64434 21.5269 7.88244 21.0814 8.23207 20.7318C8.5817 20.3822 9.02716 20.1441 9.51211 20.0476C9.99706 19.9511 10.4997 20.0006 10.9565 20.1899C11.4134 20.3791 11.8038 20.6995 12.0785 21.1106C12.3532 21.5218 12.4998 22.0051 12.4998 22.4996C12.4991 23.1624 12.2355 23.7978 11.7668 24.2665C11.2981 24.7352 10.6627 24.9988 9.99984 24.9996Z" fill="#1E3556"/>
</svg>
