<svg width="24" height="25" viewBox="0 0 24 25" fill="none" xmlns="http://www.w3.org/2000/svg">
<path d="M17 10.1502C16.8126 9.96392 16.5592 9.85938 16.295 9.85938C16.0308 9.85938 15.7774 9.96392 15.59 10.1502L12 13.6902L8.46001 10.1502C8.27265 9.96392 8.0192 9.85938 7.75501 9.85938C7.49082 9.85938 7.23737 9.96392 7.05001 10.1502C6.95628 10.2431 6.88189 10.3537 6.83112 10.4756C6.78035 10.5974 6.75421 10.7282 6.75421 10.8602C6.75421 10.9922 6.78035 11.1229 6.83112 11.2447C6.88189 11.3666 6.95628 11.4772 7.05001 11.5702L11.29 15.8102C11.383 15.9039 11.4936 15.9783 11.6154 16.0291C11.7373 16.0798 11.868 16.106 12 16.106C12.132 16.106 12.2627 16.0798 12.3846 16.0291C12.5064 15.9783 12.617 15.9039 12.71 15.8102L17 11.5702C17.0937 11.4772 17.1681 11.3666 17.2189 11.2447C17.2697 11.1229 17.2958 10.9922 17.2958 10.8602C17.2958 10.7282 17.2697 10.5974 17.2189 10.4756C17.1681 10.3537 17.0937 10.2431 17 10.1502Z" fill="#7F7F7F"/>
</svg>
