<svg width="128" height="72" viewBox="0 0 128 72" fill="none" xmlns="http://www.w3.org/2000/svg">
<path d="M116.639 10.1307C111.413 5.14573 104.672 1.82245 97.6284 0.613982C92.1751 -0.216838 91.342 -0.216838 85.6615 0.689512C80.2083 1.59586 72.8615 5.22126 68.5444 9.14878L65.0604 12.321L66.2722 15.2666C66.9538 16.8528 67.787 20.2516 68.0899 22.8196L68.6201 27.4268L70.2106 24.4057C72.3314 20.4026 77.9361 15.2666 82.4047 13.2274C87.7822 10.8104 96.7195 10.9615 102.249 13.5295C107.172 15.8709 112.246 20.7803 114.594 25.5386C115.957 28.3332 116.26 30.2214 116.26 36.1127C116.26 44.4964 114.67 48.7261 109.52 53.711C104.521 58.5448 99.2189 60.6597 92.0237 60.6597C84.7527 60.5841 80.587 58.9225 75.3609 54.1642C70.2864 49.4813 68.1657 44.9496 67.3326 36.4903C66.1207 24.7833 63.0154 18.0612 55.8201 11.4147C51.8817 7.78925 48.2462 5.82549 42.4899 4.08832C39.1574 3.10644 34.613 2.87986 19.1621 2.87986H0V69.4211L21.0556 69.1945L42.0355 68.9679L46.9586 66.6265C49.6852 65.3425 53.1692 63.2277 54.684 61.8681L57.4107 59.5267L56.426 56.2034C55.8959 54.3907 55.2142 50.9919 54.9112 48.6505L54.3811 44.3454L53.245 46.4602C51.4272 50.01 46.8071 54.3152 42.7929 56.2034C39.2331 57.8651 38.1728 58.0161 25.2213 58.0161H11.3609V14.0582L25.903 14.3603C42.7929 14.6624 44.1562 15.04 50.1396 21.6866C54.0024 25.9162 56.0473 31.3543 56.0473 37.1701C56.0473 45.6294 59.5314 53.711 66.1964 60.8107C79.6781 75.2368 102.249 75.7655 116.715 62.0947C124.44 54.6929 128 46.5357 128 36.1127C128 25.6897 124.44 17.5325 116.639 10.1307Z" fill="#1E3556"/>
</svg>
