<svg width="44" height="24" viewBox="0 0 44 24" fill="none" xmlns="http://www.w3.org/2000/svg">
<path d="M39.6622 3.37679C37.9087 1.7152 35.6469 0.607467 33.2835 0.204655C31.4537 -0.0722775 31.1742 -0.0722775 29.2682 0.229831C27.4384 0.531939 24.9733 1.74037 23.5248 3.04951L22.3558 4.10689L22.7624 5.08874C22.9911 5.61743 23.2707 6.75034 23.3723 7.60631L23.5502 9.14203L24.0839 8.135C24.7954 6.80069 26.676 5.08874 28.1754 4.409C29.9797 3.60338 32.9785 3.65373 34.8337 4.5097C36.4855 5.29015 38.1882 6.92657 38.976 8.51264C39.4335 9.44414 39.5351 10.0735 39.5351 12.0372C39.5351 14.8317 39.0014 16.2416 37.2733 17.9032C35.5961 19.5144 33.8171 20.2193 31.4029 20.2193C28.9632 20.1942 27.5655 19.6403 25.812 18.0542C24.1093 16.4933 23.3977 14.9828 23.1182 12.1631C22.7116 8.26088 21.6696 6.02024 19.2554 3.80478C17.9339 2.59635 16.714 1.94178 14.7826 1.36274C13.6645 1.03545 12.1397 0.959926 6.95536 0.959926H0.525818V23.1397L7.59069 23.0642L14.6302 22.9887L16.282 22.2082C17.1969 21.7802 18.3659 21.0753 18.8742 20.6222L19.789 19.8417L19.4587 18.734C19.2808 18.1298 19.0521 16.9969 18.9504 16.2164L18.7725 14.7814L18.3913 15.4863C17.7814 16.6696 16.2312 18.1046 14.8843 18.734C13.6899 19.2878 13.3341 19.3382 8.98842 19.3382H4.3378V4.68593L9.21714 4.78663C14.8843 4.88734 15.3417 5.01321 17.3494 7.22868C18.6454 8.63852 19.3316 10.4512 19.3316 12.3897C19.3316 15.2094 20.5006 17.9032 22.737 20.2697C27.2605 25.0783 34.8337 25.2545 39.6876 20.6977C42.2797 18.2305 43.4742 15.5115 43.4742 12.0372C43.4742 8.56299 42.2797 5.84401 39.6622 3.37679Z" fill="#1E3556"/>
</svg>
