<svg width="33" height="32" viewBox="0 0 33 32" fill="none" xmlns="http://www.w3.org/2000/svg">
<g clip-path="url(#clip0_131423_46853)">
<path d="M32.5 10.4004L9.08933 20.3684C7.148 21.1897 5.51733 21.6017 4.19866 21.6017C2.70533 21.6017 1.62133 21.0791 0.949329 20.0324C0.526663 19.3604 0.402663 18.5084 0.575996 17.4751C0.749329 16.4417 1.21066 15.3417 1.95733 14.1711C2.58 13.2244 3.6 11.9804 5.02 10.4377C4.53835 11.1959 4.18516 12.0285 3.97466 12.9017C3.60133 14.4951 3.93733 15.6644 4.98266 16.4111C5.48 16.7591 6.164 16.9337 7.036 16.9337C7.732 16.9337 8.516 16.8217 9.388 16.5977L32.5 10.4004Z" fill="#A8A8A8"/>
</g>
<defs>
<clipPath id="clip0_131423_46853">
<rect width="32" height="32" fill="white" transform="translate(0.5)"/>
</clipPath>
</defs>
</svg>
