<svg width="33" height="32" viewBox="0 0 33 32" fill="none" xmlns="http://www.w3.org/2000/svg">
<g clip-path="url(#clip0_131423_46855)">
<path d="M16.5 0C7.664 0 0.5 7.164 0.5 16C0.5 24.836 7.664 32 16.5 32C25.336 32 32.5 24.836 32.5 16C32.5 7.164 25.336 0 16.5 0ZM16.5 1.04C24.7613 1.04 31.4587 7.73733 31.4587 16C31.4587 24.2613 24.7627 30.9587 16.5 30.9587C8.23733 30.9587 1.54133 24.2613 1.54133 16C1.54133 7.73867 8.23867 1.04 16.5 1.04ZM15.596 1.88C15.156 1.89867 14.716 1.936 14.2733 1.984L14.1307 5.90933C14.4446 5.85621 14.7604 5.8144 15.0773 5.784L15.1707 3.13333L15.1533 2.95067L15.2107 3.124L16.096 5.10933H16.904L17.7893 3.12533L17.8427 2.95067L17.8293 3.13333L17.9227 5.784C18.232 5.81333 18.5533 5.856 18.8693 5.90933L18.724 1.984C18.2844 1.93446 17.8433 1.89978 17.4013 1.88L16.5307 4.04667L16.5 4.20667L16.4693 4.04667L15.596 1.88ZM24.524 4.312L22.4667 7.54933C22.7267 7.74933 23.0693 8.044 23.2893 8.24533L25.2267 7.24L25.3493 7.148L25.2573 7.27333L24.2547 9.21067C24.472 9.444 24.7853 9.82133 24.9613 10.0507L28.2013 7.992C28.0026 7.73496 27.7981 7.48245 27.588 7.23467L25.536 8.58667L25.396 8.70933L25.5 8.556L26.4067 6.748L25.7667 6.108L23.9587 7.01467L23.8053 7.11867L23.9267 6.97733L25.284 4.92533C25.044 4.72267 24.816 4.53733 24.524 4.312ZM7.83333 5.04667C7.35333 5.096 6.98267 5.424 5.976 6.54667C5.62693 6.94226 5.29032 7.34868 4.96667 7.76533L7.732 10.388C8.648 9.37467 9.02 8.99867 9.74267 8.23733C10.2533 7.69733 10.5427 7.07733 10.0307 6.48133C9.75333 6.15867 9.28667 6.088 8.89733 6.248L8.86 6.26133L8.87333 6.22667C8.92142 6.04975 8.91633 5.86259 8.85871 5.68854C8.80109 5.5145 8.69349 5.36127 8.54933 5.248C8.44913 5.169 8.33426 5.11064 8.21136 5.07631C8.08846 5.04198 7.95997 5.03103 7.83333 5.04667ZM7.84133 5.86667C8.02267 5.81733 8.21067 5.94667 8.252 6.13333C8.29467 6.32 8.17733 6.496 8.04667 6.64267C7.75333 6.976 6.672 8.10667 6.672 8.10667L6.136 7.596C6.692 6.916 7.284 6.29733 7.552 6.052C7.63241 5.96818 7.73157 5.90466 7.84133 5.86667ZM16.5 6.51067C14.1512 6.50963 11.8856 7.38009 10.1417 8.95353C8.39778 10.527 7.2997 12.6915 7.06 15.028V15.0307C6.90934 16.5131 7.10963 18.0101 7.64468 19.4008C8.17973 20.7914 9.03453 22.0366 10.14 23.0358C11.2454 24.0349 12.5704 24.7598 14.0079 25.152C15.4454 25.5442 16.955 25.5926 18.4147 25.2933C20.5542 24.8535 22.4764 23.6886 23.8562 21.9953C25.2361 20.302 25.9891 18.1843 25.988 16C25.9855 13.4845 24.9851 11.0728 23.2062 9.29417C21.4274 7.51557 19.0155 6.51545 16.5 6.51333V6.51067ZM9.11733 6.83333C9.18 6.83333 9.24533 6.85067 9.304 6.89067C9.42133 6.96933 9.47467 7.104 9.44533 7.23733C9.41067 7.396 9.27867 7.54533 9.172 7.66133L7.77867 9.15467L7.21867 8.62133C7.21867 8.62133 8.268 7.512 8.612 7.156C8.748 7.01467 8.836 6.92933 8.92933 6.88267C8.98715 6.85265 9.05223 6.8358 9.11733 6.83333ZM16.5 7.75733C17.5828 7.75611 18.6552 7.96847 19.6558 8.38227C20.6564 8.79607 21.5655 9.40317 22.3312 10.1688C23.0968 10.9345 23.7039 11.8436 24.1177 12.8442C24.5315 13.8448 24.7439 14.9172 24.7427 16H16.5V24.2427C15.4172 24.2439 14.3448 24.0315 13.3442 23.6177C12.3436 23.2039 11.4345 22.5968 10.6688 21.8312C9.90317 21.0655 9.29607 20.1564 8.88227 19.1558C8.46847 18.1552 8.25611 17.0828 8.25733 16H16.5V7.75733Z" fill="#A8A8A8"/>
</g>
<defs>
<clipPath id="clip0_131423_46855">
<rect width="32" height="32" fill="white" transform="translate(0.5)"/>
</clipPath>
</defs>
</svg>
