<svg width="33" height="32" viewBox="0 0 33 32" fill="none" xmlns="http://www.w3.org/2000/svg">
<g clip-path="url(#clip0_131423_46843)">
<path fill-rule="evenodd" clip-rule="evenodd" d="M16.5 2.75293C17.8227 2.75293 19.032 3.3436 20.0707 4.3036C22.0173 6.10226 23.7667 9.23293 25.1947 12.3609C26.6467 15.5409 27.8533 18.9129 28.6613 21.3596C29.5573 24.0703 28.3853 26.9569 25.9893 28.3943C24.7479 29.1423 23.2829 29.4302 21.8507 29.2074C20.4185 28.9846 19.1102 28.2654 18.1547 27.1756C17.6017 26.5426 17.0501 25.9084 16.5 25.2729C15.9347 25.9263 15.3693 26.5756 14.844 27.1756C13.8885 28.2651 12.5805 28.9841 11.1485 29.2068C9.71664 29.4296 8.25199 29.142 7.01067 28.3943C4.61467 26.9569 3.44267 24.0703 4.33867 21.3596C5.14667 18.9129 6.35333 15.5409 7.80533 12.3609C9.23333 9.23293 10.98 6.10226 12.9267 4.3036C13.9667 3.3436 15.176 2.75293 16.4987 2.75293H16.5ZM18.2547 23.2249C19.0947 22.2316 19.8147 21.3569 20.2333 20.7983C21.4867 19.1276 21.808 16.9983 21.1853 15.2249C20.5373 13.3796 18.8827 11.9983 16.5 11.9983C14.1173 11.9983 12.4627 13.3796 11.8147 15.2249C11.192 16.9983 11.512 19.1276 12.7667 20.7983C13.184 21.3569 13.904 22.2316 14.7453 23.2249C14.1053 23.9663 13.4493 24.7183 12.8387 25.4196C12.2948 26.039 11.5503 26.4473 10.7357 26.5731C9.921 26.6989 9.08806 26.5341 8.38267 26.1076C7.004 25.2809 6.38533 23.6649 6.87067 22.1956C7.664 19.7956 8.836 16.5236 10.2307 13.4689C11.648 10.3623 13.2147 7.66893 14.7373 6.26226C15.4253 5.6276 16.0187 5.4196 16.5 5.4196C16.98 5.4196 17.5733 5.6276 18.2627 6.26226C19.7853 7.66893 21.3507 10.3636 22.7693 13.4689C24.164 16.5236 25.336 19.7956 26.1293 22.1956C26.6147 23.6649 25.996 25.2796 24.6173 26.1076C23.9121 26.5337 23.0794 26.6983 22.2651 26.5725C21.4507 26.4468 20.7065 26.0386 20.1627 25.4196C19.5493 24.7196 18.8947 23.9663 18.2547 23.2249ZM16.5 21.1689C15.9508 20.5256 15.4173 19.8689 14.9 19.1996C14.1533 18.2049 14.016 17.0009 14.3307 16.1089C14.62 15.2849 15.2987 14.6663 16.5 14.6663C17.7 14.6663 18.38 15.2849 18.6693 16.1089C18.9827 17.0023 18.8453 18.2049 18.1 19.1996C17.583 19.8691 17.0495 20.5258 16.5 21.1689Z" fill="#A8A8A8"/>
</g>
<defs>
<clipPath id="clip0_131423_46843">
<rect width="32" height="32" fill="white" transform="translate(0.5)"/>
</clipPath>
</defs>
</svg>
