<svg width="76" height="32" viewBox="0 0 76 32" fill="none" xmlns="http://www.w3.org/2000/svg">
<g clip-path="url(#clip0_131423_46835)">
<path d="M32.5161 17.1004C32.5161 20.6492 29.7522 23.2643 26.3602 23.2643C22.9681 23.2643 20.2042 20.6492 20.2042 17.1004C20.2042 13.5266 22.9681 10.9365 26.3602 10.9365C29.7522 10.9365 32.5161 13.5266 32.5161 17.1004ZM29.8213 17.1004C29.8213 14.8827 28.2194 13.3654 26.3602 13.3654C24.5009 13.3654 22.899 14.8827 22.899 17.1004C22.899 19.2958 24.5009 20.8354 26.3602 20.8354C28.2194 20.8354 29.8213 19.2931 29.8213 17.1004Z" fill="#A8A8A8"/>
<path d="M45.7966 17.1004C45.7966 20.6492 43.0326 23.2643 39.6406 23.2643C36.2486 23.2643 33.4846 20.6492 33.4846 17.1004C33.4846 13.5294 36.2486 10.9365 39.6406 10.9365C43.0326 10.9365 45.7966 13.5266 45.7966 17.1004ZM43.1018 17.1004C43.1018 14.8827 41.4999 13.3654 39.6406 13.3654C37.7814 13.3654 36.1794 14.8827 36.1794 17.1004C36.1794 19.2958 37.7814 20.8354 39.6406 20.8354C41.4999 20.8354 43.1018 19.2931 43.1018 17.1004Z" fill="#A8A8A8"/>
<path d="M58.5237 11.3089V22.375C58.5237 26.9271 55.8511 28.7862 52.6915 28.7862C49.7172 28.7862 47.9271 26.7881 47.2521 25.1541L49.5983 24.1731C50.016 25.1763 51.0397 26.3602 52.6887 26.3602C54.7112 26.3602 55.9645 25.1068 55.9645 22.7474V21.8609H55.8704C55.2673 22.6085 54.1053 23.2615 52.6389 23.2615C49.5706 23.2615 46.7596 20.577 46.7596 17.1226C46.7596 13.6433 49.5706 10.9365 52.6389 10.9365C54.1025 10.9365 55.2645 11.5896 55.8704 12.3149H55.9645V11.3117H58.5237V11.3089ZM56.1554 17.1226C56.1554 14.9522 54.714 13.3654 52.8796 13.3654C51.0204 13.3654 49.4627 14.9522 49.4627 17.1226C49.4627 19.2708 51.0204 20.8354 52.8796 20.8354C54.714 20.8354 56.1554 19.2708 56.1554 17.1226Z" fill="#A8A8A8"/>
<path d="M62.7427 4.82227V22.886H60.1143V4.82227H62.7427Z" fill="#A8A8A8"/>
<path d="M72.9854 19.129L75.0771 20.5296C74.402 21.5328 72.7752 23.2614 69.9642 23.2614C66.4781 23.2614 63.8746 20.5546 63.8746 17.0975C63.8746 13.4319 66.5002 10.9336 69.6626 10.9336C72.8471 10.9336 74.4048 13.4792 74.9138 14.8548L75.1933 15.5551L66.9899 18.9678C67.618 20.2044 68.5946 20.8353 69.9642 20.8353C71.3365 20.8353 72.2882 20.1572 72.9854 19.129ZM66.5472 16.9113L72.0309 14.6241C71.7293 13.8544 70.8218 13.318 69.7539 13.318C68.3843 13.318 66.4781 14.5324 66.5472 16.9113V16.9113Z" fill="#A8A8A8"/>
<path d="M10.255 15.4965V12.8814H19.0283C19.1141 13.3372 19.1583 13.8763 19.1583 14.4599C19.1583 16.4219 18.6243 18.848 16.9034 20.5766C15.2296 22.3274 13.0909 23.2611 10.2577 23.2611C5.00647 23.2611 0.590759 18.9647 0.590759 13.6901C0.590759 8.41552 5.00647 4.11914 10.2577 4.11914C13.1628 4.11914 15.2323 5.2641 16.7872 6.75644L14.9501 8.60172C13.8351 7.55125 12.3245 6.73421 10.255 6.73421C6.42027 6.73421 3.42113 9.83839 3.42113 13.6901C3.42113 17.5419 6.42027 20.646 10.255 20.646C12.7423 20.646 14.1588 19.6428 15.0663 18.7313C15.8023 17.9921 16.2864 16.936 16.4774 15.4937L10.255 15.4965V15.4965Z" fill="#A8A8A8"/>
</g>
<defs>
<clipPath id="clip0_131423_46835">
<rect width="75" height="32" fill="white" transform="translate(0.5)"/>
</clipPath>
</defs>
</svg>
