<svg width="33" height="32" viewBox="0 0 33 32" fill="none" xmlns="http://www.w3.org/2000/svg">
<g clip-path="url(#clip0_131423_46847)">
<path d="M22.62 12.4637V19.5357H23.6813V12.4637H22.62ZM11.2907 12.3437C9.224 12.3437 7.62133 13.8464 7.62133 15.9997C7.62133 18.249 9.224 19.6557 11.2907 19.6557C13.3573 19.6557 14.9627 18.249 14.9587 15.9997C14.9626 15.5175 14.8703 15.0393 14.6872 14.5932C14.5041 14.1471 14.2339 13.7419 13.8924 13.4015C13.5508 13.0611 13.1448 12.7922 12.6981 12.6105C12.2513 12.4289 11.7729 12.3382 11.2907 12.3437ZM13.9 15.9997C13.9 17.593 12.732 18.649 11.2907 18.649C9.848 18.649 8.68 17.593 8.68 15.9997C8.68 14.4344 9.848 13.3504 11.2907 13.3504C12.7307 13.3504 13.9 14.4344 13.9 15.9997ZM0.5 12.2344V19.5357H1.58267V14.7104L7.20667 19.7637V18.2504L0.5 12.2344ZM15.756 15.9997L19.692 19.5357H21.2707L17.3293 15.9997L21.2707 12.4637H19.692L15.756 15.9997ZM32.5 19.5357H31.3333L30.48 17.969H26.616L25.7627 19.5357H24.596L26.0093 16.925H29.9253L27.972 13.2984L28.548 12.2344L32.5 19.5357Z" fill="#A8A8A8"/>
</g>
<defs>
<clipPath id="clip0_131423_46847">
<rect width="32" height="32" fill="white" transform="translate(0.5)"/>
</clipPath>
</defs>
</svg>
