<svg width="94" height="32" viewBox="0 0 94 32" fill="none" xmlns="http://www.w3.org/2000/svg">
<g clip-path="url(#clip0_131423_46834)">
<path d="M14.4983 2.05273C6.79394 2.05273 0.548035 8.32086 0.548035 16.0528C0.548035 23.7851 6.79394 30.0527 14.4983 30.0527C22.2035 30.0527 28.4487 23.7851 28.4487 16.0528C28.4487 8.32136 22.2035 2.0534 14.4981 2.0534L14.4983 2.05273V2.05273ZM20.8958 22.2449C20.6459 22.6561 20.1095 22.7865 19.6997 22.5341C16.4243 20.5263 12.301 20.0715 7.44512 21.1849C6.97718 21.2919 6.51075 20.9977 6.40413 20.5279C6.29702 20.0581 6.58904 19.59 7.05814 19.483C12.3722 18.2646 16.9304 18.7892 20.6076 21.0445C21.0174 21.297 21.1473 21.8336 20.8958 22.2449V22.2449ZM22.6033 18.4328C22.2884 18.9464 21.6188 19.1086 21.1073 18.7926C17.3575 16.4795 11.6415 15.8096 7.20624 17.1607C6.63102 17.3351 6.02349 17.0098 5.84891 16.4335C5.67566 15.8562 6 15.2477 6.57422 15.0721C11.6405 13.5294 17.9389 14.2767 22.2451 16.9324C22.7565 17.2483 22.9181 17.9204 22.6033 18.433V18.4328ZM22.7499 14.4633C18.2538 11.7832 10.8358 11.5368 6.54306 12.8443C5.85374 13.0541 5.12477 12.6636 4.91587 11.9718C4.70697 11.2796 5.09578 10.5485 5.78561 10.3382C10.7133 8.83695 18.9051 9.127 24.0815 12.211C24.7029 12.5803 24.9061 13.3839 24.538 14.0054C24.1715 14.6276 23.3686 14.8327 22.7505 14.4633H22.7499ZM38.5021 14.9768C36.0933 14.4004 35.6651 13.9958 35.6651 13.1457C35.6651 12.3426 36.4181 11.8021 37.5392 11.8021C38.6253 11.8021 39.7015 12.2125 40.8309 13.0574C40.8642 13.083 40.9075 13.0932 40.9492 13.0865C40.9925 13.0802 41.0291 13.0569 41.0541 13.022L42.2302 11.3582C42.2785 11.2897 42.2652 11.1952 42.2002 11.1429C40.8559 10.0607 39.3433 9.53459 37.5742 9.53459C34.9738 9.53459 33.1564 11.1009 33.1564 13.342C33.1564 15.7452 34.7239 16.5962 37.4326 17.253C39.7365 17.7858 40.1263 18.2322 40.1263 19.03C40.1263 19.9144 39.34 20.4644 38.0739 20.4644C36.668 20.4644 35.5202 19.9879 34.2375 18.8745C34.2059 18.8461 34.1625 18.8344 34.1226 18.836C34.0793 18.8394 34.0409 18.8595 34.0143 18.8912L32.6949 20.4661C32.64 20.5329 32.6466 20.6299 32.7099 20.6867C34.2025 22.0242 36.0383 22.7297 38.0206 22.7297C40.8226 22.7297 42.6333 21.1933 42.6333 18.8143C42.6383 16.807 41.4406 15.6952 38.5071 14.979L38.5021 14.9768V14.9768ZM48.9735 12.5928C47.7591 12.5928 46.763 13.073 45.94 14.0568V12.9494C45.94 12.862 45.8701 12.7908 45.7835 12.7908H43.6262C43.5396 12.7908 43.4696 12.862 43.4696 12.9494V25.2541C43.4696 25.3411 43.5396 25.413 43.6262 25.413H45.7835C45.8701 25.413 45.94 25.3411 45.94 25.2541V21.3705C46.763 22.295 47.7591 22.7481 48.9735 22.7481C51.2308 22.7481 53.5163 21.0044 53.5163 17.671C53.5196 14.3369 51.2341 12.5927 48.9752 12.5927L48.9735 12.5928ZM51.0075 17.671C51.0075 19.3677 49.9664 20.553 48.4738 20.553C46.9995 20.553 45.8867 19.3142 45.8867 17.671C45.8867 16.0276 46.9995 14.7891 48.4738 14.7891C49.9414 14.7889 51.0075 16.0007 51.0075 17.6708V17.671ZM59.3717 12.5928C56.4648 12.5928 54.1876 14.8391 54.1876 17.7072C54.1876 20.5446 56.4498 22.7665 59.3367 22.7665C62.2536 22.7665 64.5375 20.5279 64.5375 17.671C64.5375 14.8237 62.2686 12.5932 59.3717 12.5932V12.5928V12.5928ZM59.3717 20.5697C57.8258 20.5697 56.6597 19.3225 56.6597 17.6701C56.6597 16.0102 57.7858 14.8056 59.3367 14.8056C60.8926 14.8056 62.0654 16.0523 62.0654 17.7064C62.0654 19.366 60.9326 20.5697 59.3717 20.5697V20.5697ZM70.7444 12.7908H68.3706V10.3556C68.3706 10.2684 68.3006 10.1971 68.214 10.1971H66.0567C65.9701 10.1971 65.8985 10.2684 65.8985 10.3556V12.7908H64.8623C64.7757 12.7908 64.7058 12.862 64.7058 12.9494V14.8097C64.7058 14.8969 64.7757 14.9683 64.8623 14.9683H65.8985V19.7823C65.8985 21.7266 66.863 22.713 68.7671 22.713C69.54 22.713 70.1814 22.5525 70.7861 22.2081C70.836 22.1813 70.866 22.1278 70.866 22.071V20.2989C70.866 20.2454 70.8377 20.1936 70.7911 20.1651C70.7444 20.135 70.6861 20.1334 70.6378 20.1585C70.223 20.3674 69.8215 20.4644 69.3718 20.4644C68.6804 20.4644 68.3706 20.1484 68.3706 19.4429V14.9692H70.7444C70.8311 14.9692 70.901 14.8979 70.901 14.8105V12.9504C70.9043 12.863 70.8344 12.7918 70.7461 12.7918L70.7444 12.7908V12.7908ZM79.0137 12.8003V12.5012C79.0137 11.6213 79.3502 11.229 80.1031 11.229C80.5529 11.229 80.9144 11.3186 81.3192 11.454C81.3692 11.4697 81.4208 11.4619 81.4608 11.4319C81.5024 11.402 81.5257 11.354 81.5257 11.3032V9.47926C81.5257 9.40954 81.4824 9.34785 81.4141 9.32729C80.9877 9.19973 80.4413 9.06883 79.6217 9.06883C77.631 9.06883 76.5765 10.1946 76.5765 12.3233V12.7814H75.5404C75.4538 12.7814 75.3821 12.8526 75.3821 12.9399V14.8097C75.3821 14.8969 75.4538 14.9683 75.5404 14.9683H76.5765V22.392C76.5765 22.4806 76.6482 22.5508 76.7348 22.5508H78.8904C78.9787 22.5508 79.0486 22.4806 79.0486 22.392V14.9688H81.0626L84.1478 22.392C83.798 23.1711 83.4531 23.3265 82.9834 23.3265C82.6035 23.3265 82.2021 23.2129 81.794 22.9872C81.7556 22.9671 81.709 22.9638 81.669 22.9755C81.6274 22.9905 81.5924 23.0206 81.5757 23.0607L80.8444 24.6707C80.8094 24.7476 80.8394 24.8362 80.9127 24.8763C81.6757 25.2909 82.3637 25.4681 83.2149 25.4681C84.8075 25.4681 85.6887 24.7225 86.4633 22.7197L90.2048 13.017C90.2248 12.9682 90.2181 12.913 90.1881 12.8697C90.1598 12.8267 90.1115 12.8008 90.0599 12.8008H87.8143C87.746 12.8008 87.686 12.8438 87.6644 12.9071L85.3638 19.4998L82.8451 12.9028C82.8218 12.8414 82.7635 12.8008 82.6985 12.8008H79.0137V12.8003V12.8003ZM74.2194 12.7908H72.0621C71.9755 12.7908 71.9039 12.862 71.9039 12.9494V22.392C71.9039 22.4806 71.9755 22.5508 72.0621 22.5508H74.2194C74.306 22.5508 74.3776 22.4806 74.3776 22.392V12.9501C74.3776 12.8627 74.3077 12.7914 74.2194 12.7914V12.7908ZM73.1532 8.49105C72.2987 8.49105 71.6057 9.18518 71.6057 10.0427C71.6057 10.9006 72.2987 11.5956 73.1532 11.5956C74.0078 11.5956 74.6991 10.9006 74.6991 10.0427C74.6991 9.18535 74.0061 8.49105 73.1532 8.49105ZM92.0472 15.827C91.1943 15.827 90.5296 15.139 90.5296 14.3036C90.5296 13.4682 91.2026 12.7724 92.0555 12.7724C92.9084 12.7724 93.5731 13.4602 93.5731 14.2949C93.5731 15.1303 92.9001 15.827 92.0472 15.827ZM92.0555 12.9239C91.2776 12.9239 90.6895 13.5441 90.6895 14.3036C90.6895 15.0628 91.2743 15.6747 92.0472 15.6747C92.8252 15.6747 93.4132 15.0549 93.4132 14.2949C93.4132 13.5357 92.8285 12.9239 92.0555 12.9239V12.9239ZM92.392 14.4516L92.8218 15.0547H92.4587L92.0722 14.5014H91.7407V15.0547H91.4375V13.4558H92.1472C92.5186 13.4558 92.7618 13.6459 92.7618 13.9659C92.7635 14.228 92.6119 14.3882 92.3937 14.4516H92.392ZM92.1355 13.7302H91.7407V14.2359H92.1355C92.3321 14.2359 92.4503 14.1391 92.4503 13.9828C92.4503 13.8183 92.3321 13.7302 92.1355 13.7302V13.7302Z" fill="#A8A8A8"/>
</g>
<defs>
<clipPath id="clip0_131423_46834">
<rect width="93" height="32" fill="white" transform="translate(0.5)"/>
</clipPath>
</defs>
</svg>
