<svg width="76" height="32" viewBox="0 0 76 32" fill="none" xmlns="http://www.w3.org/2000/svg">
<g clip-path="url(#clip0_131423_46825)">
<path fill-rule="evenodd" clip-rule="evenodd" d="M75.0272 20.3752C71.908 25.6401 66.9681 24.1124 65.4845 22.9163C64.853 23.3428 63.7459 24.2776 62.2695 24.1697C59.1254 23.9399 57.9995 19.4668 57.9995 19.4668C58.022 19.4847 57.0629 19.7963 56.5445 19.7907C56.5378 21.1025 55.3988 24.2361 52.3249 24.196C48.8755 24.1512 48.1743 19.0351 48.1743 19.0351C48.1743 19.0351 47.831 19.5096 46.5259 19.9823C46.5916 18.9745 46.5435 24.0426 42.4093 24.1171C39.1409 24.1761 38.2587 18.9562 38.2587 18.9562C38.2587 18.9562 37.6917 19.5426 36.5929 19.7459C36.6627 18.7217 36.5492 24.1343 32.4144 24.1171C29.6202 24.1056 28.6654 20.9017 28.7397 20.457C28.8344 19.8903 27.7953 24.1968 25.0812 24.1297C23.9611 24.097 23.1261 23.2896 22.6021 22.2133C21.9007 23.0123 20.8823 24.1297 19.7399 24.1297C17.6892 24.1297 16.7851 22.4221 16.9382 17.545C16.9513 16.9665 16.9093 16.739 16.3318 16.6524C15.9851 16.5949 15.63 16.4858 15.2543 16.4283C15.1339 16.8283 14.1127 23.9996 10.601 24.1357C9.42296 24.1813 8.77878 23.1653 8.24976 22.4113C7.43881 23.4793 6.36831 24.1697 4.8433 24.1697C2.26005 24.1697 0.5 22.0906 0.5 19.526C0.5 16.9613 2.26005 14.8825 4.8433 14.8825C5.30005 14.8825 5.42827 14.9477 5.84553 15.0689C4.98741 7.29065 7.01395 6.07503 8.78672 6.07503C10.4887 6.07503 13.3963 10.0077 9.30503 19.983C10.2134 22.9584 12.1716 22.7902 13.1126 16.6652C13.3041 15.4201 12.792 13.74 13.5885 13.5055C15.0446 13.077 15.199 14.3628 15.8817 14.577C16.6036 14.8034 17.0249 14.7813 17.7179 14.9254C18.9021 15.1556 19.3642 15.7889 19.2199 17.1994C19.0467 18.9842 18.7436 21.5818 19.6677 21.8984C20.3341 22.1284 21.5508 20.7526 21.7643 19.9998C21.9777 19.247 22.0223 18.9893 22.0412 18.4372C22.0701 17.2571 22.1064 16.3921 22.3085 15.4996C22.395 15.1543 22.4936 14.9256 22.8861 14.9099C23.209 14.9017 23.7996 14.8049 24.0595 15.0064C24.406 15.2656 24.3627 15.5286 24.323 16.2208C23.92 26.0899 27.0216 21.1631 27.9464 17.2183C27.6171 12.7576 27.8432 6.15671 30.6509 6.046C32.1112 5.98842 32.7567 7.15305 32.8277 8.02233C33.0286 10.4775 31.9035 14.5445 30.4239 17.2795C29.5783 22.8602 34.1212 23.9636 34.8477 19.5091C33.6591 18.9465 32.3746 16.6693 33.4199 15.5595C34.0064 14.9367 36.4479 15.8314 36.4879 17.7829C37.6855 17.464 37.8454 16.7908 37.862 16.9024C37.5328 12.4417 37.8381 6.15677 40.6461 6.04606C42.1061 5.98848 42.7516 7.15311 42.8226 8.02239C43.0234 10.4776 41.8984 14.5445 40.419 17.2796C39.5733 22.8602 44.1163 23.9637 44.8426 19.5092C43.9626 19.3402 42.105 16.918 43.1768 15.5596C43.7495 14.8336 46.1821 16.3433 46.4545 17.8475C47.605 17.5234 47.7612 16.8716 47.7777 16.9813C47.4484 12.5207 47.7537 6.23582 50.5617 6.12511C52.0217 6.06754 52.6672 7.23216 52.7382 8.10144C52.9391 10.5566 51.814 14.6237 50.3344 17.3587C49.4889 22.9394 54.0318 24.0426 54.7583 19.5881C53.549 19.3877 51.8303 16.8302 53.2136 15.5219C53.7662 14.9991 55.8779 16.3561 56.3722 17.9042C57.0591 17.8779 57.4866 17.6421 57.5782 17.6183C56.4818 12.3817 57.298 6.09858 60.3186 6.04613C61.9512 6.01781 63.5473 6.92483 62.8467 11.9067C62.178 16.6601 59.7742 18.6548 59.7798 18.6853C59.9196 19.2548 61.1531 24.0205 64.2592 21.5059C64.0985 21.1435 63.9375 20.7732 63.8475 20.3246C63.3327 17.7115 64.3439 14.7599 67.0924 14.2829C68.6672 14.0096 70.1506 14.7729 70.3852 16.4937C70.771 19.3094 68.2172 21.3485 67.246 21.7909C66.8111 21.5449 71.1889 24.3401 73.7871 18.7383C73.9378 18.4185 74.1194 18.4456 74.3547 18.6104C74.5209 18.7269 75.4675 19.6196 75.0272 20.3752ZM6.72239 18.8342C6.59019 18.4407 6.31889 17.5737 6.22296 17.198C5.6946 16.7406 5.31748 16.6663 4.63929 16.6663C3.13214 16.6663 2.24506 18.0536 2.24506 19.5495C2.24506 21.0453 3.21147 22.4328 4.71863 22.4328C6.02475 22.4328 7.01883 21.5487 7.32211 20.2971C7.10983 19.8092 6.89925 19.3608 6.72239 18.8342ZM8.74979 8.13397C7.69079 8.13397 7.33155 10.649 7.40126 12.7946C7.46293 14.6915 7.99536 16.3616 8.27156 17.1098C8.34168 17.2036 8.32866 17.1426 8.39126 17.242C10.23 13.2311 9.46737 8.13397 8.74979 8.13397ZM30.8022 8.21298C29.4334 8.0567 29.4423 13.7331 29.6122 15.0064C30.3231 13.8742 31.5579 8.51781 30.8022 8.21298ZM40.797 8.21298C39.4283 8.0567 39.4372 13.7331 39.6072 15.0064C40.3179 13.8742 41.5529 8.51781 40.797 8.21298ZM50.7127 8.29195C49.3439 8.13568 49.3528 13.8121 49.5228 15.0855C50.2336 13.9532 51.4685 8.59677 50.7127 8.29195ZM60.4696 7.88069C58.3371 8.30702 58.8337 15.3856 59.1576 16.6271C61.6695 13.1923 61.7213 7.75167 60.4696 7.88069ZM68.4618 16.7266C68.3534 16.2752 67.8113 16.034 67.4371 16.0934C66.3663 16.239 65.3278 17.5667 65.7298 19.5879C65.8193 20.0381 66.0432 20.4525 66.0396 20.4387C68.4359 18.8382 68.6396 17.5769 68.4618 16.7266ZM23.3059 13.3475C22.9998 13.3476 22.7007 13.2573 22.4462 13.0881C22.1917 12.9188 21.9933 12.6783 21.8761 12.3968C21.759 12.1153 21.7283 11.8056 21.788 11.5068C21.8477 11.208 21.9951 10.9335 22.2114 10.718C22.4278 10.5026 22.7035 10.3558 23.0036 10.2964C23.3038 10.2369 23.6149 10.2674 23.8977 10.384C24.1804 10.5006 24.4221 10.6981 24.5921 10.9514C24.7621 11.2047 24.8528 11.5026 24.8528 11.8073C24.8528 12.0095 24.8128 12.2098 24.7351 12.3967C24.6574 12.5835 24.5434 12.7533 24.3998 12.8964C24.2561 13.0394 24.0856 13.1528 23.8979 13.2303C23.7102 13.3077 23.5091 13.3475 23.3059 13.3475Z" fill="#A8A8A8"/>
</g>
<defs>
<clipPath id="clip0_131423_46825">
<rect width="75" height="32" fill="white" transform="translate(0.5)"/>
</clipPath>
</defs>
</svg>
