<?xml version="1.0" encoding="UTF-8"?> <svg xmlns="http://www.w3.org/2000/svg" xmlns:xlink="http://www.w3.org/1999/xlink" id="Grupo_14" data-name="Grupo 14" width="133.405" height="90.678" viewBox="0 0 133.405 90.678"><defs><clipPath id="clip-path"><rect id="Retângulo_14" data-name="Retângulo 14" width="133.405" height="90.678" fill="none"></rect></clipPath></defs><g id="Grupo_13" data-name="Grupo 13" clip-path="url(#clip-path)"><path id="Caminho_9" data-name="Caminho 9" d="M144.482,49.735,149.982,39h9.785l6.805,28.025" transform="translate(-34.12 -9.211)" fill="none" stroke="#a6a5a5" stroke-miterlimit="10" stroke-width="2.57"></path><path id="Caminho_10" data-name="Caminho 10" d="M9.77,38.34S-1.512,43.986,1.944,58.478c.731,2.757,3.191,8.891,13.668,9.19,4.33,0,10.85-.673,14.854-7.032" transform="translate(-0.304 -9.054)" fill="none" stroke="#a6a5a5" stroke-miterlimit="10" stroke-width="2.57"></path><path id="Caminho_11" data-name="Caminho 11" d="M116.82,6.308a56.491,56.491,0,0,1,8.683,9.263c1.4,1.619,4.918,6.891,9.849,13.772-.378-2.464-5.307-19.946-11.295-24.649-3.922-1.072-4.793-1.4-7.237,1.613" transform="translate(-27.588 -0.928)" fill="#960d13" fill-rule="evenodd"></path><path id="Caminho_12" data-name="Caminho 12" d="M58.96,105.887c-4.434-2.694-7.522-5.03-10.131-9.279-1.622-2.858-5.556-8.149-12.277-16.523.627,2.772,7.923,25.1,14.232,27.928,4.255,1.174,5.6.708,8.176-2.126" transform="translate(-8.632 -18.912)" fill="#960d13" fill-rule="evenodd"></path><path id="Caminho_13" data-name="Caminho 13" d="M75.677,87.324c24.054,0,43.673-18.348,43.673-40.844S99.731,5.635,75.677,5.635,32,23.983,32,46.479,51.623,87.324,75.677,87.324" transform="translate(-7.558 -1.331)" fill="#004b96" fill-rule="evenodd"></path><path id="Caminho_14" data-name="Caminho 14" d="M151.774,68.918c-4.367,6.04-26.772,29.107-45.469,32.059a77.009,77.009,0,0,1-24.484-.357C83.069,99.672,95.6,96.091,111,78.656c7.932-10.724,14.731-21.676,21.047-31.651l8.711.531L147.3,61.86Z" transform="translate(-19.322 -11.1)" fill="#bc0e12" fill-rule="evenodd"></path><path id="Caminho_15" data-name="Caminho 15" d="M112.07,69.165c-8.49,13.806-21.6,25.888-31.953,30.395-9.125,4.18-24.608.975-24.191.943,8.22-.632,12.457-7.67,19.386-21.645A223.8,223.8,0,0,1,86.606,56.474l13.935-8.74,7.095,7.211c.713,4.1,2.178,13.415,2.178,13.415s2.506.4,2.256.806" transform="translate(-13.205 -11.273)" fill="#dc1217" fill-rule="evenodd"></path><path id="Caminho_16" data-name="Caminho 16" d="M10.473,29.9C14.652,25.16,32.622,3.686,52.448.66a60.179,60.179,0,0,1,22.036.75C73.4,2.348,61.417,5.387,48.535,23.168A127.535,127.535,0,0,0,32.969,49.937l-14.99,5.8-7.735-5.46L9.892,30.659Z" transform="translate(-2.336 0)" fill="#bc0e12" fill-rule="evenodd"></path><path id="Caminho_17" data-name="Caminho 17" d="M48.251,37.129C53.3,28.351,69.629,2.533,87.963.492a46.446,46.446,0,0,1,14.554.858A12.006,12.006,0,0,1,108.648,4.6a8.267,8.267,0,0,0-1.743-.589c-6.939-2.094-12.391,7.7-19.249,21.547C84.132,32.9,80.289,39.46,77,47.047L61.515,55.76,53.646,47.6Z" transform="translate(-11.395 -0.061)" fill="#dc1217" fill-rule="evenodd"></path><path id="Caminho_18" data-name="Caminho 18" d="M22.841,54.584h9.545a13.944,13.944,0,0,1-5.254,9.155q-4.251,3.248-10.98,3.252-7.546,0-11.457-4.206T1.483,51.256q.706-7.3,5.4-11.514t12.083-4.214q6.815,0,10.42,3.135t3.511,8.947H23.246a4.545,4.545,0,0,0-1.221-3.459,5.141,5.141,0,0,0-3.66-1.163,5.661,5.661,0,0,0-4.64,2.055,11.514,11.514,0,0,0-2.085,6.214q-.394,4.079.982,6.165a4.9,4.9,0,0,0,4.422,2.09,5.722,5.722,0,0,0,3.838-1.28,6.129,6.129,0,0,0,1.959-3.647" transform="translate(-0.325 -8.39)" fill="#fff" fill-rule="evenodd"></path><path id="Caminho_19" data-name="Caminho 19" d="M67.682,54.539h9.207a13.544,13.544,0,0,1-4.756,9.18q-3.99,3.259-10.479,3.262-7.278,0-11.194-4.219T46.97,51.2q.432-7.317,4.812-11.546t11.51-4.226q6.574,0,10.157,3.143t3.692,8.972H67.836a4.812,4.812,0,0,0-1.3-3.469,4.988,4.988,0,0,0-3.57-1.166,5.183,5.183,0,0,0-4.406,2.061,11.51,11.51,0,0,0-1.8,6.231q-.241,4.09,1.156,6.183a4.84,4.84,0,0,0,4.336,2.1A5.219,5.219,0,0,0,65.916,58.2a5.976,5.976,0,0,0,1.766-3.657" transform="translate(-11.082 -8.367)" fill="#fff" fill-rule="evenodd"></path><path id="Caminho_20" data-name="Caminho 20" d="M101.51,57.306h6.339l-1.678-9.827ZM87.1,67.016l15.264-28.384h10.223l6.851,28.384H109.421L108.8,63.26H98.793l-1.774,3.756Z" transform="translate(-20.568 -9.123)" fill="#fff" fill-rule="evenodd"></path><path id="Caminho_21" data-name="Caminho 21" d="M146.593,57.441h6.067l-1.692-9.7ZM132.88,67.028,147.242,39h9.785l6.805,28.025h-9.582l-.623-3.708h-9.583l-1.664,3.708Z" transform="translate(-31.38 -9.211)" fill="#fff" fill-rule="evenodd"></path></g></svg> 