<svg width="67" height="32" viewBox="0 0 67 32" fill="none" xmlns="http://www.w3.org/2000/svg">
<g clip-path="url(#clip0_131423_46824)">
<path fill-rule="evenodd" clip-rule="evenodd" d="M54.1804 13.7312C54.4324 14.1616 54.5149 14.6513 54.5421 15.2018L54.5779 15.9356V21.0668L54.6144 21.8014C54.6876 23.001 55.5813 23.888 56.8025 23.9635L57.5407 23.9997V15.9356L57.5772 15.2018C57.6076 14.6575 57.6892 14.1585 57.9452 13.725C58.2059 13.2804 58.5803 12.9115 59.0306 12.6553C59.481 12.3992 59.9914 12.2649 60.5108 12.2658C61.0302 12.2667 61.5402 12.4029 61.9896 12.6607C62.439 12.9184 62.812 13.2887 63.0711 13.7342C63.3231 14.1647 63.4017 14.6636 63.432 15.2018L63.4686 15.9333V21.0668L63.5052 21.8014C63.5814 23.0072 64.4681 23.8942 65.6932 23.9635L66.4314 23.9997V15.2018C66.4314 13.6461 65.8073 12.1541 64.6962 11.0539C63.5852 9.95359 62.0782 9.33516 60.5066 9.33455C59.6654 9.33367 58.8338 9.5105 58.0672 9.85321C57.3006 10.1959 56.6167 10.6966 56.0612 11.3219C55.5055 10.6969 54.8216 10.1963 54.055 9.85347C53.2885 9.51066 52.457 9.33349 51.6159 9.33378C50.3853 9.33378 49.2434 9.70337 48.2976 10.3417C47.7204 9.70414 46.4292 9.33378 45.6879 9.33378V23.9997L46.4292 23.9635C47.6691 23.8826 48.5652 23.0195 48.6134 21.8014L48.6531 21.0668V15.9356L48.6896 15.2018C48.7207 14.6482 48.7985 14.1616 49.0513 13.7281C49.3123 13.2837 49.6865 12.9149 50.1365 12.6585C50.5865 12.402 51.0966 12.2669 51.6159 12.2667C52.1355 12.2668 52.646 12.4021 53.0961 12.6592C53.5462 12.9162 53.9202 13.2859 54.1804 13.7312V13.7312ZM3.4628 23.9643L4.20408 23.9997H15.3155L15.279 23.2682C15.1786 22.0624 14.316 21.1815 13.094 21.103L12.3527 21.0668H5.68665L14.5743 12.2659L14.5377 11.5352C14.4801 10.317 13.581 9.43696 12.3527 9.36997L11.6115 9.33686L0.5 9.33378L0.536559 10.0676C0.633789 11.2618 1.50886 12.1612 2.72074 12.2305L3.4628 12.2667H10.1289L1.24128 21.0676L1.27784 21.8014C1.35096 23.0102 2.23225 23.8857 3.4628 23.9635V23.9643ZM42.7796 11.4805C43.4676 12.1614 44.0133 12.9698 44.3857 13.8595C44.7581 14.7493 44.9497 15.7029 44.9497 16.666C44.9497 17.629 44.7581 18.5826 44.3857 19.4724C44.0133 20.3621 43.4676 21.1705 42.7796 21.8514C41.3896 23.2263 39.505 23.9986 37.54 23.9986C35.5751 23.9986 33.6905 23.2263 32.3005 21.8514C29.4077 18.9878 29.4077 14.3441 32.3005 11.4805C32.9879 10.7998 33.804 10.2598 34.7022 9.89135C35.6004 9.52289 36.5631 9.33316 37.5354 9.33301C38.5092 9.33234 39.4737 9.52173 40.3735 9.89035C41.2734 10.259 42.091 10.7996 42.7796 11.4813V11.4805ZM40.6833 13.5571C41.5165 14.3826 41.9846 15.5017 41.9846 16.6687C41.9846 17.8356 41.5165 18.9547 40.6833 19.7802C39.8494 20.605 38.7188 21.0683 37.54 21.0683C36.3612 21.0683 35.2306 20.605 34.3968 19.7802C33.5635 18.9547 33.0955 17.8356 33.0955 16.6687C33.0955 15.5017 33.5635 14.3826 34.3968 13.5571C35.2306 12.7323 36.3612 12.269 37.54 12.269C38.7188 12.269 39.8494 12.7323 40.6833 13.5571V13.5571ZM21.9879 9.33301C22.9602 9.33326 23.923 9.52311 24.8212 9.89171C25.7194 10.2603 26.5354 10.8004 27.2227 11.4813C30.1163 14.3441 30.1163 18.9886 27.2227 21.8514C25.8327 23.2263 23.9482 23.9986 21.9832 23.9986C20.0182 23.9986 18.1337 23.2263 16.7437 21.8514C13.8509 18.9878 13.8509 14.3441 16.7437 11.4805C17.431 10.7998 18.2471 10.2598 19.1453 9.89135C20.0435 9.52289 21.0063 9.33316 21.9785 9.33301H21.9879ZM25.1265 13.5556C25.9599 14.3811 26.4281 15.5004 26.4281 16.6675C26.4281 17.8346 25.9599 18.9539 25.1265 19.7794C24.2926 20.6042 23.162 21.0675 21.9832 21.0675C20.8044 21.0675 19.6738 20.6042 18.8399 19.7794C18.0067 18.954 17.5387 17.8348 17.5387 16.6679C17.5387 15.501 18.0067 14.3818 18.8399 13.5564C19.6738 12.7316 20.8044 12.2682 21.9832 12.2682C23.162 12.2682 24.2926 12.7316 25.1265 13.5564V13.5556Z" fill="#A8A8A8"/>
</g>
<defs>
<clipPath id="clip0_131423_46824">
<rect width="66" height="32" fill="white" transform="translate(0.5)"/>
</clipPath>
</defs>
</svg>
