<svg width="33" height="32" viewBox="0 0 33 32" fill="none" xmlns="http://www.w3.org/2000/svg">
<g clip-path="url(#clip0_131423_46846)">
<path d="M16.5 7.14933L19.8 3.11467C19.8 3.11467 25.46 3.23467 31.0947 5.85333C29.652 8.03467 26.7867 9.104 26.7867 9.104C26.592 7.18533 25.248 6.71733 20.9813 6.71733L16.5 32L11.992 6.712C7.752 6.712 6.408 7.184 6.212 9.10133C6.212 9.10133 3.35067 8.04133 1.90667 5.86133C7.54 3.24133 13.2 3.12 13.2 3.12L16.5 7.14933ZM16.5 7.14933L16.4947 7.152H16.5V7.14933ZM16.5 1.95067C21.0533 1.91067 26.268 2.65467 31.604 4.99067C32.3173 3.7 32.5 3.13067 32.5 3.13067C26.6667 0.816 21.204 0.02 16.5 0C11.796 0.02 6.33333 0.813333 0.5 3.132C0.5 3.132 0.76 3.832 1.396 4.99333C6.732 2.652 11.9467 1.91333 16.5 1.94667V1.95067Z" fill="#A8A8A8"/>
</g>
<defs>
<clipPath id="clip0_131423_46846">
<rect width="32" height="32" fill="white" transform="translate(0.5)"/>
</clipPath>
</defs>
</svg>
