<svg width="33" height="32" viewBox="0 0 33 32" fill="none" xmlns="http://www.w3.org/2000/svg">
<g clip-path="url(#clip0_131423_46861)">
<path d="M27.7267 9.79297V22.033H29.928V9.79297H27.7267ZM0.5 9.9663V12.2823H2.816V9.96497L0.5 9.9663ZM13.54 10.4356V18.5063C13.54 19.1903 13.5987 19.7663 13.7133 20.229C13.8293 20.6823 14.0267 21.053 14.3 21.333C14.5707 21.613 14.9333 21.8116 15.3707 21.9343C15.816 22.0583 16.376 22.1156 17.044 22.1156H17.332V20.0716C17.012 20.0716 16.7387 20.0556 16.5413 20.0223C16.3475 20.0039 16.165 19.923 16.0213 19.7916C15.8949 19.6516 15.8144 19.4761 15.7907 19.289C15.7538 19.0213 15.7373 18.7512 15.7413 18.481V15.5716H17.332V13.6836H15.7413V10.4356H13.54ZM8.86667 13.5183C8.33867 13.5183 7.85333 13.625 7.424 13.8396C6.988 14.0543 6.624 14.3516 6.328 14.7303L6.212 14.8863V13.6836H4.044V22.025H6.22933V17.7396C6.25333 16.9556 6.44267 16.3796 6.80667 16.0076C7.19333 15.6116 7.66267 15.4143 8.19867 15.4143C8.83333 15.4143 9.32 15.613 9.64133 15.9916C9.95467 16.3703 10.12 16.9063 10.12 17.5916V22.0236H12.3373V17.293C12.3453 16.1063 12.032 15.1663 11.4227 14.5063C10.812 13.8463 9.956 13.517 8.86667 13.517V13.5183ZM22.2867 13.5263C21.7164 13.524 21.1513 13.6343 20.6237 13.8507C20.0961 14.0671 19.6164 14.3855 19.212 14.7876C18.8253 15.1743 18.512 15.637 18.2893 16.165C18.0596 16.701 17.9443 17.2791 17.9507 17.8623C17.9507 18.465 18.0573 19.033 18.272 19.561C18.4867 20.0876 18.792 20.5503 19.1707 20.937C19.5493 21.3236 20.02 21.6383 20.564 21.861C21.108 22.0916 21.7107 22.2076 22.3533 22.2076C24.216 22.2076 25.3693 21.3583 26.0627 20.5676L24.48 19.3623C24.1493 19.7583 23.3587 20.2943 22.3693 20.2943C21.7507 20.2943 21.24 20.1543 20.852 19.8663C20.4637 19.5801 20.1848 19.1699 20.0613 18.7036L20.036 18.629H26.5893V17.8463C26.5893 17.245 26.4827 16.6836 26.276 16.157C26.0683 15.6481 25.7697 15.1814 25.3947 14.7796C25.0098 14.3816 24.5467 14.0675 24.0347 13.857C23.4801 13.6305 22.8856 13.518 22.2867 13.5263ZM0.557333 13.6836V22.025H2.75867V13.6836H0.557333ZM22.2613 15.3983C23.7707 15.3983 24.48 16.461 24.48 17.0716L20.0533 17.0796C20.0533 16.469 20.7533 15.4063 22.2613 15.3983ZM31.692 20.4836C31.4777 20.4836 31.2722 20.5688 31.1207 20.7203C30.9691 20.8718 30.884 21.0773 30.884 21.2916C30.884 21.5059 30.9691 21.7114 31.1207 21.863C31.2722 22.0145 31.4777 22.0996 31.692 22.0996C31.9063 22.0996 32.1118 22.0145 32.2633 21.863C32.4149 21.7114 32.5 21.5059 32.5 21.2916C32.5 21.0773 32.4149 20.8718 32.2633 20.7203C32.1118 20.5688 31.9063 20.4836 31.692 20.4836ZM31.6813 20.6236C31.6822 20.6236 31.6831 20.6236 31.684 20.6236C31.7717 20.6236 31.8585 20.6409 31.9394 20.6745C32.0204 20.7081 32.094 20.7573 32.1559 20.8194C32.2178 20.8814 32.2669 20.9551 32.3003 21.0361C32.3337 21.1171 32.3508 21.204 32.3507 21.2916C32.3507 21.3792 32.3334 21.4659 32.2999 21.5468C32.2664 21.6276 32.2173 21.7011 32.1554 21.763C32.0935 21.8249 32.02 21.8741 31.9391 21.9076C31.8582 21.9411 31.7715 21.9583 31.684 21.9583C31.5072 21.9583 31.3376 21.8881 31.2126 21.763C31.0876 21.638 31.0173 21.4684 31.0173 21.2916C31.0173 21.1153 31.0872 20.9461 31.2117 20.8212C31.3361 20.6962 31.505 20.6243 31.6813 20.6236ZM31.3707 20.8303V21.7623H31.544V21.3823H31.668L31.8987 21.7623H32.08L31.84 21.3663C31.8996 21.3607 31.9553 21.3342 31.9973 21.2916C32.0373 21.2516 32.064 21.193 32.064 21.1103C32.064 21.0196 32.0373 20.9543 31.98 20.905C31.9307 20.8543 31.84 20.8303 31.7333 20.8303H31.3707ZM31.544 20.9623H31.7493C31.7747 20.9623 31.7987 20.9703 31.824 20.9783C31.8452 20.9851 31.8629 20.9999 31.8733 21.0196C31.8907 21.037 31.8893 21.061 31.8893 21.0943C31.8897 21.1196 31.8842 21.1447 31.8733 21.1676C31.859 21.1838 31.8424 21.1977 31.824 21.209C31.7987 21.217 31.7747 21.2263 31.7493 21.2263H31.544V20.9623Z" fill="#A8A8A8"/>
</g>
<defs>
<clipPath id="clip0_131423_46861">
<rect width="32" height="32" fill="white" transform="translate(0.5)"/>
</clipPath>
</defs>
</svg>
