<svg width="33" height="32" viewBox="0 0 33 32" fill="none" xmlns="http://www.w3.org/2000/svg">
<g clip-path="url(#clip0_131423_46856)">
<path d="M0.5 9.59961V22.3996H32.5V9.59961H0.5ZM16.5027 21.7596C7.57733 21.7596 1.14 19.1463 1.14 15.9996C1.14 12.8529 7.58133 10.2396 16.5027 10.2396C25.4227 10.2396 31.86 12.8529 31.86 15.9996C31.86 19.1463 25.428 21.7596 16.5027 21.7596ZM16.2027 13.6769H21.7707V14.9623C21.6333 14.8996 21.5 14.8996 21.3627 14.8996H19.0187V15.5129H21.2707V16.4889H19.0187V17.0983H21.3627C21.5 17.0983 21.6333 17.0983 21.7707 17.0316V18.3209H16.2027C16.272 18.1863 16.272 18.0569 16.272 17.9223V14.0796C16.272 13.9449 16.272 13.8156 16.2027 13.6769ZM6.768 14.0796V17.9209C6.768 18.0556 6.768 18.1849 6.83733 18.3196H3.7C3.76933 18.1849 3.76933 18.0556 3.76933 17.9209V14.0796C3.76933 13.9449 3.76933 13.8156 3.7 13.6809H6.83733C6.768 13.8156 6.768 13.9449 6.768 14.0796ZM15.364 17.9209C15.4653 18.0636 15.5747 18.1983 15.704 18.3196H12.24C12.24 18.1849 12.1067 17.9116 11.96 17.6969C11.8133 17.4823 11.02 16.3049 11.02 16.3049V17.9209C11.02 18.0556 11.02 18.1849 11.0893 18.3196H8.204C8.27333 18.1849 8.27333 18.0556 8.27333 17.9209V14.0796C8.27333 13.9449 8.27333 13.8156 8.204 13.6809H11.0893C11.02 13.8156 11.02 13.9449 11.02 14.0796V15.7583C11.02 15.7583 11.9413 14.5849 12.1533 14.3116C12.3133 14.1063 12.5107 13.8143 12.5107 13.6809H15.52C15.3133 13.8156 15.084 14.0569 14.896 14.2809L13.7947 15.5929C13.7947 15.5929 15.18 17.6569 15.364 17.9209ZM29.4253 13.9143C29.4253 13.852 29.4009 13.7923 29.3572 13.7479C29.3136 13.7035 29.2542 13.678 29.192 13.6769H28.912V14.4116H29.0227V14.1516H29.1827L29.3293 14.4116H29.4533L29.2933 14.1289C29.3327 14.1084 29.3658 14.0777 29.389 14.0399C29.4122 14.0021 29.4248 13.9587 29.4253 13.9143ZM29.1733 14.0489H29.0213V13.7943H29.1867C29.26 13.7943 29.3107 13.8569 29.3107 13.9289C29.3107 13.9996 29.2467 14.0529 29.1733 14.0489ZM29.1453 13.4396H29.104C29.0256 13.4408 28.9482 13.4576 28.8763 13.489C28.8044 13.5204 28.7394 13.5657 28.6852 13.6224C28.631 13.6791 28.5886 13.746 28.5605 13.8192C28.5323 13.8924 28.519 13.9705 28.5213 14.0489C28.5213 14.0583 28.5213 14.0716 28.5173 14.0796C28.5239 14.2437 28.5952 14.3986 28.7157 14.5102C28.8361 14.6219 28.9959 14.6814 29.16 14.6756C29.2412 14.6746 29.3215 14.6575 29.3962 14.6255C29.4708 14.5934 29.5384 14.547 29.5951 14.4888C29.6518 14.4306 29.6965 14.3618 29.7266 14.2863C29.7568 14.2108 29.7717 14.1302 29.7707 14.0489V14.0263C29.7683 13.9467 29.7502 13.8683 29.7174 13.7957C29.6846 13.7231 29.6379 13.6576 29.5798 13.6031C29.5217 13.5486 29.4534 13.5061 29.3789 13.4781C29.3043 13.45 29.2249 13.4369 29.1453 13.4396ZM29.1453 14.5369C29.0145 14.538 28.8885 14.4873 28.7948 14.3959C28.7012 14.3045 28.6474 14.1798 28.6453 14.0489V14.0129C28.6484 13.9504 28.6638 13.8891 28.6906 13.8325C28.7174 13.7759 28.7551 13.7252 28.8016 13.6832C28.848 13.6412 28.9023 13.6088 28.9613 13.5878C29.0203 13.5668 29.0828 13.5577 29.1453 13.5609C29.42 13.5609 29.6453 13.7809 29.6453 14.0489C29.6453 14.3169 29.4213 14.5369 29.1453 14.5369ZM27.976 14.0849C27.9253 13.9503 27.852 13.8209 27.8893 13.6863H23.8667C23.8853 13.8209 23.8347 13.9503 23.784 14.0849L22.3573 17.9263C22.3129 18.0723 22.2394 18.2079 22.1413 18.3249H24.5213C24.5027 18.1903 24.5533 18.0609 24.5987 17.9263C24.644 17.7916 24.6947 17.6623 24.6947 17.6623L24.7227 17.5903H26.4613L26.4893 17.6569C26.5533 17.8143 26.6 17.9209 26.6 17.9209C26.6547 18.0556 26.7053 18.1849 26.692 18.3196H29.7093C29.6075 18.2037 29.5307 18.068 29.484 17.9209C28.9842 16.6412 28.4815 15.3625 27.976 14.0849ZM25.0867 16.6089C25.2933 16.0489 25.472 15.5796 25.4853 15.5343C25.5227 15.4356 25.5493 15.3329 25.568 15.2303C25.5907 15.3329 25.6227 15.4356 25.66 15.5343L26.0813 16.6089H25.0867Z" fill="#A8A8A8"/>
</g>
<defs>
<clipPath id="clip0_131423_46856">
<rect width="32" height="32" fill="white" transform="translate(0.5)"/>
</clipPath>
</defs>
</svg>
