<svg width="33" height="32" viewBox="0 0 33 32" fill="none" xmlns="http://www.w3.org/2000/svg">
<path d="M16.5 3.2002C23.5645 3.2002 29.3 8.93566 29.3 16.0002C29.3 23.0647 23.5645 28.8002 16.5 28.8002C9.43548 28.8002 3.70001 23.0647 3.70001 16.0002C3.70001 8.93566 9.43548 3.2002 16.5 3.2002ZM7.16135 21.9085C8.1577 23.4839 9.53649 24.7815 11.1693 25.6807C12.8022 26.5798 14.636 27.0512 16.5 27.0509C20.4264 27.0509 23.8781 24.9986 25.8387 21.9085L16.5 18.3501L7.16135 21.9085ZM18.5352 14.8247L26.2867 21.1341C27.1194 19.5511 27.5533 17.7888 27.5507 16.0002C27.5507 10.0514 22.8392 5.1938 16.948 4.95806L18.5352 14.8247ZM16.052 4.95806C10.1608 5.1938 5.44935 10.0514 5.44935 16.0002C5.44935 17.853 5.90588 19.5991 6.71335 21.1341L14.4648 14.8247L16.052 4.95806Z" fill="#A8A8A8"/>
</svg>
