<svg width="81" height="32" viewBox="0 0 81 32" fill="none" xmlns="http://www.w3.org/2000/svg">
<g clip-path="url(#clip0_131423_46827)">
<path d="M16.0556 29.6679V31.8881H0.5V29.6679H16.0556ZM40.3653 29.6679C38.8049 31.101 36.761 31.8938 34.6414 31.8879L18.2778 31.8661V29.6679H40.3653ZM63.4947 29.6679L62.7188 31.8879L61.9497 29.6679H63.4947ZM56.0556 29.6679V31.8881H44.9445V29.6679H56.0556ZM80.5 29.6679V31.8881H69.3889V29.6679H80.5ZM42.8823 25.4299C42.6916 26.2086 42.3906 26.9562 41.9883 27.6499H18.2778V25.4299H42.8823ZM64.9839 25.4299L64.2041 27.65H61.2405L60.4605 25.4299H64.9839ZM56.0556 25.4299V27.6499H44.9445V25.4299H56.0556ZM80.5 25.4299V27.6499H69.3889V25.4299H80.5ZM16.0556 25.4299V27.6499H0.5V25.4299H16.0556ZM11.6109 21.1913V23.4115H4.94438V21.1913H11.6109ZM29.3888 21.1913V23.4115H22.722V21.1913H29.3888ZM42.8289 21.1913C43.0258 21.915 43.1257 22.6616 43.1261 23.4115H35.6516V21.1913H42.8289ZM66.4733 21.1913L65.6931 23.4115H59.7511L58.9708 21.1913H66.4733ZM56.0555 21.1913V23.4115H49.3888V21.1913H56.0555ZM76.0555 21.1913V23.4115H69.3888V21.1913H76.0555ZM11.6109 16.9531V19.1732H4.94438V16.9531H11.6109ZM56.0555 16.9531V19.1732H49.3888V16.9531H56.0555ZM76.0555 16.9531V19.1732H69.3888V16.9531H76.0555ZM40.132 16.9531C40.8721 17.5821 41.499 18.3329 41.9856 19.173H22.7222V16.953L40.132 16.9531ZM67.9627 16.9531L67.1827 19.1732H58.2616L57.4816 16.953L67.9627 16.9531ZM62.0973 12.7149L62.722 14.5094L63.3466 12.7149H76.0553V14.935H69.3891V12.8952L68.6719 14.9351H56.7725L56.0555 12.8949V14.9351H49.3891V12.7149H62.0973ZM22.722 12.7149H41.9859C41.4993 13.5551 40.8723 14.306 40.1322 14.935H22.7222L22.722 12.7149ZM11.6109 12.7149V14.935H4.94438V12.7148L11.6109 12.7149ZM11.6109 8.47657V10.6966H4.94438V8.47657H11.6109ZM29.3888 8.47657V10.6966H22.722V8.47657H29.3888ZM43.1263 8.47657C43.1258 9.22646 43.0258 9.97298 42.8289 10.6966H35.6516V8.47657H43.1263ZM60.622 8.47657L61.3948 10.6966H49.3891V8.47657H60.622ZM76.0553 8.47657V10.6966H64.0494L64.822 8.47657H76.0553ZM16.0553 4.23821V6.45839H0.5V4.23806L16.0553 4.23821ZM41.9881 4.23821C42.3904 4.93193 42.6915 5.67948 42.8822 6.45823H18.2775V4.23821H41.9881ZM80.4998 4.23821V6.45823H65.5245L66.2973 4.23821H80.4998ZM59.1467 4.23821L59.9195 6.45823H44.9444V4.23821H59.1467ZM16.0558 0.000163845V2.22003H0.5V7.74758e-06L16.0558 0.000163845ZM34.6414 7.74758e-06C36.7605 -0.00285815 38.8033 0.789461 40.3653 2.22003H18.2778V7.74758e-06H34.6414ZM80.5 7.74758e-06V2.22018H67L67.7728 0.000163845L80.5 7.74758e-06ZM57.6719 7.74758e-06L58.4445 2.22018H44.9445V0.000163845L57.6719 7.74758e-06Z" fill="#A8A8A8"/>
</g>
<defs>
<clipPath id="clip0_131423_46827">
<rect width="80" height="32" fill="white" transform="translate(0.5)"/>
</clipPath>
</defs>
</svg>
