<svg width="33" height="32" viewBox="0 0 33 32" fill="none" xmlns="http://www.w3.org/2000/svg">
<g clip-path="url(#clip0_131423_46845)">
<path d="M18.1093 7.04012C17.9693 7.01478 17.2933 6.90145 16.5 6.90145C15.7067 6.90145 15.0307 7.01478 14.8907 7.04012C14.8107 7.05345 14.7787 6.97612 14.84 6.92945C14.896 6.88945 16.5 5.66812 16.5 5.66812L18.1587 6.92945C18.2213 6.97612 18.1907 7.05478 18.1093 7.04012ZM15.3387 14.9668C15.3387 14.9668 15.2533 14.9974 15.232 15.0721C15.568 15.3294 15.7987 15.9174 16.5 15.9174C17.2013 15.9174 17.4333 15.3308 17.768 15.0708C17.7467 14.9961 17.6613 14.9668 17.6613 14.9668C17.6613 14.9668 17.2213 15.0694 16.5 15.0694C15.7773 15.0694 15.3387 14.9668 15.3387 14.9668ZM16.5 13.9774C16.3053 13.9774 16.2627 13.9041 16.1293 13.9041C16.004 13.9041 15.7573 14.0054 15.704 14.0988C15.7074 14.1462 15.7272 14.191 15.76 14.2254C16.0427 14.2668 16.172 14.4254 16.5 14.4254C16.8293 14.4254 16.9573 14.2668 17.2413 14.2254C17.2733 14.1906 17.2925 14.1459 17.296 14.0988C17.2427 14.0054 16.9973 13.9055 16.8707 13.9041C16.7373 13.9041 16.6947 13.9774 16.5 13.9774ZM32.4827 17.0041C32.4625 17.3843 32.4287 17.7637 32.3813 18.1414C30.568 18.4414 29.9213 16.8268 28.0653 16.9081C28.176 17.3014 28.2653 17.7028 28.336 18.1121C29.8667 18.1121 30.4827 19.5428 32.1867 19.3321C32.0973 19.7694 31.9893 20.2014 31.864 20.6254C30.5173 20.7588 30.044 19.4201 28.4853 19.4574C28.4987 19.6788 28.5053 19.9028 28.5053 20.1294L28.4987 20.5028L31.5253 21.6574C31.367 22.0861 31.1904 22.5078 30.996 22.9214C30.0867 22.8721 29.7733 21.7054 28.3893 21.7974C28.3479 22.0949 28.2954 22.3906 28.232 22.6841C29.4333 22.6001 29.692 23.7068 30.552 23.7961C30.3329 24.1956 30.0971 24.5857 29.8453 24.9655C29.336 24.6921 28.8933 23.8681 27.9253 23.8175C28.0256 23.5102 28.1128 23.1988 28.1867 22.8841C27.328 22.8841 26.3467 22.5508 25.5253 21.8014C25.792 20.2814 23.4347 18.7361 23.4347 17.6241C23.4347 16.4161 24.0453 15.7481 24.0453 14.1201C24.0453 12.9108 23.4587 11.6001 22.5733 10.7041C22.4088 10.5362 22.2248 10.3885 22.0253 10.2641C22.8387 11.2694 23.4627 12.4628 23.4627 13.8441C23.4627 15.3774 22.7493 16.1868 22.7493 17.6028C22.7493 19.0174 24.82 20.2428 24.82 21.7014C24.82 22.2748 24.636 22.8348 24.0307 23.9374C24.96 24.8654 26.1707 25.3721 26.9507 25.3721C27.204 25.3721 27.3413 25.2948 27.432 25.0961C27.5103 24.9241 27.5845 24.7503 27.6547 24.5748C28.4947 24.6068 28.8813 25.3708 29.3467 25.6761C29.0907 26.0201 28.8227 26.3508 28.5413 26.6708C28.2293 26.3254 27.8093 25.7441 27.1947 25.5828C27.0853 25.7963 26.9697 26.0067 26.848 26.2134C27.376 26.3574 27.7373 26.8908 28.0173 27.2414C27.7154 27.5544 27.4009 27.8551 27.0747 28.1428C26.8707 27.8241 26.552 27.4214 26.1947 27.2041C26.0634 27.3815 25.9269 27.5549 25.7853 27.7241C26.088 27.9308 26.356 28.3001 26.5307 28.6014C26.1533 28.9041 25.7627 29.1921 25.3573 29.4614C25.1573 27.8348 22.9387 26.7214 23.5373 24.8348C23.3413 25.1681 23.1067 25.5828 23.1067 26.0841C23.1067 27.4494 24.56 28.5321 24.6773 29.8894C24.376 30.0694 24.0667 30.2388 23.7533 30.4001C23.7 28.9081 22.1613 27.2761 22.1613 26.0534C22.1613 24.6868 23.9507 23.3134 23.9507 21.7014C23.9507 20.0881 21.8853 18.9694 21.8853 17.5534C21.8853 16.1374 22.764 15.3228 22.764 13.5068C22.764 12.1774 22.132 10.8321 21.156 9.97345C20.9905 9.82389 20.8069 9.69577 20.6093 9.59212C21.5293 10.6961 22.0627 11.6988 22.0627 13.2174C22.0627 14.9241 21.056 15.8708 21.056 17.5428C21.056 19.2148 23.0827 20.1428 23.0827 21.7028C23.0827 23.2601 21.1973 24.5721 21.1973 26.1734C21.1973 27.6294 22.8587 29.0828 22.884 30.8094C22.5194 30.9684 22.1489 31.1134 21.7733 31.2441C21.9853 29.4988 20.1133 27.6988 20.1133 26.2748C20.1133 24.7188 22.0693 23.3801 22.0693 21.7014C22.0693 20.0214 20.0813 19.2414 20.0813 17.5174C20.0813 15.7948 21.3013 14.8414 21.3013 12.9374C21.2974 12.2328 21.133 11.5384 20.8206 10.9068C20.5083 10.2752 20.0562 9.72298 19.4987 9.29212L19.4307 9.24145C19.3293 9.16678 19.2467 9.25612 19.3187 9.34545C20.076 10.2921 20.4813 11.2481 20.4813 12.6654C20.4813 14.4054 19.0787 15.8201 19.0787 17.5081C19.0787 19.4988 20.9613 20.0681 20.9613 21.7014C20.9613 23.3348 18.9427 24.6414 18.9427 26.3748C18.9427 27.9828 20.8533 29.7681 20.5253 31.6241C20.1403 31.7243 19.7516 31.8097 19.36 31.8801C19.7187 29.5694 17.844 27.9094 17.844 26.3974C17.844 24.7601 19.9347 23.3014 19.9347 21.7014C19.9347 20.1934 18.4347 19.7001 18.2373 18.1561C18.2107 17.9454 18.0413 17.7894 17.808 17.8281C17.5027 17.8841 17.112 18.0841 16.4987 18.0841C15.8853 18.0841 15.4947 17.8841 15.1893 17.8281C14.9573 17.7894 14.788 17.9454 14.7613 18.1561C14.564 19.7001 13.0627 20.1921 13.0627 21.7028C13.0627 23.3014 15.1533 24.7601 15.1533 26.3961C15.1533 27.9094 13.28 29.5694 13.6373 31.8801C13.2459 31.8092 12.8572 31.7238 12.472 31.6241C12.144 29.7681 14.0547 27.9841 14.0547 26.3748C14.0547 24.6414 12.036 23.3348 12.036 21.7014C12.036 20.0681 13.9187 19.4988 13.9187 17.5081C13.9187 15.8201 12.5173 14.4068 12.5173 12.6641C12.5173 11.2481 12.9213 10.2908 13.68 9.34412C13.7507 9.25612 13.668 9.16678 13.5667 9.24145L13.5 9.29212C12.9428 9.72257 12.4909 10.2743 12.1788 10.9055C11.8667 11.5367 11.7025 12.2307 11.6987 12.9348C11.6987 14.8388 12.9187 15.7921 12.9187 17.5161C12.9187 19.2388 10.9293 20.0201 10.9293 21.7001C10.9293 23.3774 12.8853 24.7161 12.8853 26.2734C12.8853 27.6974 11.0147 29.4974 11.2267 31.2428C10.8511 31.1119 10.4807 30.9669 10.116 30.8081C10.1413 29.0801 11.8027 27.6268 11.8027 26.1708C11.8027 24.5708 9.91734 23.2574 9.91734 21.7001C9.91734 20.1414 11.9427 19.2121 11.9427 17.5401C11.9427 15.8694 10.9373 14.9214 10.9373 13.2148C10.9373 11.6948 11.4707 10.6948 12.3907 9.59078C12.1928 9.69337 12.0091 9.8211 11.844 9.97078C11.3468 10.417 10.9473 10.9613 10.6706 11.5693C10.3938 12.1774 10.2459 12.8361 10.236 13.5041C10.236 15.3201 11.1147 16.1348 11.1147 17.5508C11.1147 18.9681 9.04934 20.0841 9.04934 21.6988C9.04934 23.3121 10.8387 24.6854 10.8387 26.0508C10.8387 27.2748 9.29867 28.9068 9.24667 30.3974C8.93308 30.2375 8.62491 30.0672 8.32267 29.8868C8.43867 28.5308 9.89334 27.4468 9.89334 26.0814C9.89334 25.5814 9.65867 25.1654 9.46267 24.8334C10.06 26.7188 7.84134 27.8334 7.64134 29.4588C7.23752 29.1899 6.84601 28.9029 6.46801 28.5988C6.64267 28.2988 6.91067 27.9281 7.21467 27.7228C7.07235 27.5534 6.93539 27.3795 6.80401 27.2014C6.44667 27.4188 6.12801 27.8228 5.92401 28.1401C5.59793 27.8528 5.28346 27.5525 4.98134 27.2401C5.26134 26.8881 5.62401 26.3548 6.15201 26.2108C6.02975 26.0041 5.9137 25.7938 5.80401 25.5801C5.19067 25.7428 4.76934 26.3241 4.45734 26.6694C4.17634 26.3486 3.90813 26.0168 3.65334 25.6748C4.12001 25.3681 4.50401 24.6041 5.34534 24.5721C5.41601 24.7468 5.48934 24.9214 5.56801 25.0921C5.65867 25.2921 5.79467 25.3694 6.04801 25.3694C6.82934 25.3694 8.03867 24.8628 8.96801 23.9348C8.36401 22.8334 8.18134 22.2734 8.18134 21.6988C8.18134 20.2401 10.2507 19.0161 10.2507 17.6001C10.2507 16.1854 9.53734 15.3761 9.53734 13.8428C9.53734 12.4601 10.1613 11.2681 10.9747 10.2614C10.7747 10.3857 10.5903 10.5334 10.4253 10.7014C9.54134 11.6001 8.95334 12.9108 8.95334 14.1188C8.95334 15.7468 9.56534 16.4161 9.56534 17.6241C9.56534 18.7361 7.20801 20.2814 7.47467 21.8001C6.65201 22.5494 5.67067 22.8841 4.81201 22.8841C4.88649 23.1985 4.97322 23.5098 5.07201 23.8175C4.10534 23.8681 3.66401 24.6921 3.15201 24.9641C2.90006 24.5849 2.66429 24.1953 2.44534 23.7961C3.30667 23.7054 3.56534 22.6001 4.76801 22.6841C4.70464 22.3906 4.65216 22.0948 4.61067 21.7974C3.22667 21.7041 2.91201 22.8721 2.00267 22.9214C1.80877 22.5078 1.63261 22.0861 1.47467 21.6574L4.50001 20.5014L4.49334 20.1281C4.49334 19.9014 4.50001 19.6774 4.51201 19.4548C2.95467 19.4188 2.48001 20.7561 1.13334 20.6241C1.00847 20.1976 0.901267 19.7661 0.812006 19.3308C2.51334 19.5401 3.13201 18.1094 4.66267 18.1108C4.7311 17.7045 4.821 17.3022 4.93201 16.9054C3.07601 16.8254 2.42801 18.4388 0.617339 18.1388C0.569767 17.7615 0.535967 17.3826 0.516006 17.0028C2.62267 17.2374 3.41067 15.5068 5.32934 15.7188C5.50901 15.2625 5.71834 14.8184 5.95601 14.3894C3.55201 13.9668 2.73601 15.9774 0.498672 15.6694C0.741339 7.04012 7.81201 0.120117 16.5 0.120117C25.188 0.120117 32.2587 7.04012 32.5 15.6708C30.2613 15.9801 29.4467 13.9694 27.0427 14.3908C27.2787 14.8174 27.4893 15.2628 27.6693 15.7201C29.5867 15.5081 30.376 17.2401 32.4827 17.0041ZM9.62001 10.2908C8.44134 9.80945 7.01467 9.92012 5.79601 10.7041C5.60667 9.56945 4.99201 8.56145 4.11601 7.95478C3.99467 7.87078 3.86934 7.94945 3.88001 8.09078C4.06534 10.4854 2.66401 12.5654 0.942673 14.3948C2.71734 14.9281 4.22801 12.6428 6.52934 13.4401C7.3569 12.209 8.40469 11.1413 9.62001 10.2908ZM16.5 8.84145C15.0147 8.84145 13.7693 9.68145 13.444 10.7681C13.4173 10.8508 13.452 10.9054 13.548 10.8614C13.8147 10.7414 14.12 10.6841 14.4507 10.6841C15.056 10.6841 15.5907 10.9068 15.9067 11.2935C16.0453 11.7548 16.0573 12.4228 15.9 12.8028C15.6507 12.7468 15.56 12.5548 15.316 12.5548C15.0733 12.5548 14.884 12.7254 14.4707 12.7254C14.0573 12.7254 14.0093 12.5308 13.7373 12.5308C13.4173 12.5308 13.3587 12.8601 13.3587 13.2308C13.3587 14.8868 14.8813 17.1641 16.5 17.1641C18.1173 17.1641 19.6387 14.8868 19.6387 13.2308C19.6387 12.8588 19.5627 12.5414 19.2293 12.4974C19.0327 12.6592 18.7822 12.7406 18.528 12.7254C18.1147 12.7254 18.0013 12.5548 17.7573 12.5548C17.464 12.5548 17.4933 13.1748 17.144 13.2081C16.9107 12.6494 16.9 11.9321 17.0933 11.2935C17.4093 10.9068 17.9427 10.6841 18.5493 10.6841C18.88 10.6841 19.1853 10.7428 19.4507 10.8614C19.5467 10.9054 19.58 10.8508 19.556 10.7681C19.2307 9.68278 17.9853 8.84145 16.5 8.84145ZM18.8653 11.2174C18.5093 11.2174 18.092 11.3268 17.8293 11.6188C17.8008 11.7097 17.8046 11.8077 17.84 11.8961C18.4867 11.6748 19.056 11.6654 19.332 11.9734C19.4787 11.8401 19.5253 11.7201 19.5253 11.5814C19.5253 11.3668 19.3067 11.2174 18.8653 11.2174ZM13.668 11.9734C13.98 11.6614 14.6373 11.6748 15.3187 11.9268C15.3493 11.5881 14.7413 11.2161 14.1347 11.2161C13.6933 11.2161 13.4747 11.3654 13.4747 11.5814C13.4747 11.7201 13.5213 11.8414 13.668 11.9734ZM23.908 6.36945C22.7347 6.45345 21.7173 6.85612 20.892 7.52678C21.2276 6.57196 21.6842 5.66411 22.2507 4.82545C20.7573 4.98412 19.508 5.53078 18.5973 6.46412L17.8827 4.59345L19.4667 3.19612L17.3467 3.04545L16.5 1.07345L15.6533 3.04678L13.5333 3.19612L15.116 4.59478L14.404 6.46412C13.492 5.53078 12.244 4.98412 10.7507 4.82545C11.3157 5.6646 11.7713 6.57236 12.1067 7.52678C11.2827 6.85612 10.264 6.45345 9.09067 6.36945C9.79467 7.27478 10.4187 8.23878 10.88 9.27612C10.9333 9.39345 11.0453 9.43212 11.1653 9.37078C12.8225 8.54749 14.6483 8.12027 16.4987 8.12278C18.416 8.12278 20.2253 8.57345 21.8333 9.37078C21.9547 9.43212 22.0667 9.39345 22.1187 9.27745C22.5813 8.23878 23.2053 7.27478 23.9093 6.37078L23.908 6.36945ZM26.4707 13.4414C28.772 12.6441 30.284 14.9281 32.0573 14.3961C30.336 12.5668 28.936 10.4868 29.1213 8.09078C29.132 7.95078 29.0053 7.87078 28.8853 7.95478C28.0093 8.56278 27.3933 9.57078 27.2053 10.7041C25.9867 9.92145 24.56 9.81078 23.3813 10.2921C24.596 11.143 25.6433 12.2106 26.4707 13.4414Z" fill="#A8A8A8"/>
</g>
<defs>
<clipPath id="clip0_131423_46845">
<rect width="32" height="32" fill="white" transform="translate(0.5)"/>
</clipPath>
</defs>
</svg>
