<svg width="33" height="32" viewBox="0 0 33 32" fill="none" xmlns="http://www.w3.org/2000/svg">
<g clip-path="url(#clip0_131423_46849)">
<path d="M26.964 10.4639C25.6413 10.4639 24.428 10.9279 23.476 11.7012C22.4907 10.8991 21.2585 10.462 19.988 10.4639C18.6653 10.4639 17.452 10.9279 16.5 11.7012C15.5147 10.8991 14.2825 10.462 13.012 10.4639C11.6893 10.4639 10.476 10.9279 9.52401 11.7012C8.71174 11.042 7.72933 10.6265 6.69059 10.5028C5.65186 10.379 4.59932 10.5521 3.65491 11.0019C2.71051 11.4518 1.91288 12.16 1.35445 13.0446C0.796018 13.9291 0.499634 14.9538 0.499634 15.9999C0.499634 17.046 0.796018 18.0706 1.35445 18.9552C1.91288 19.8397 2.71051 20.548 3.65491 20.9978C4.59932 21.4477 5.65186 21.6208 6.69059 21.497C7.72933 21.3732 8.71174 20.9577 9.52401 20.2985C10.476 21.0719 11.6893 21.5359 13.012 21.5359C14.3347 21.5359 15.548 21.0719 16.5 20.2985C17.452 21.0719 18.6653 21.5359 19.988 21.5359C21.3107 21.5359 22.524 21.0719 23.476 20.2985C24.1641 20.8569 24.9762 21.242 25.844 21.4213C26.7118 21.6007 27.61 21.5691 28.463 21.3292C29.3161 21.0893 30.0991 20.6481 30.7462 20.0428C31.3934 19.4374 31.8857 18.6855 32.1819 17.8504C32.4782 17.0152 32.5695 16.1211 32.4484 15.2433C32.3273 14.3654 31.9973 13.5295 31.486 12.8057C30.9747 12.082 30.2971 11.4915 29.5102 11.084C28.7234 10.6765 27.8502 10.4638 26.964 10.4639ZM23.476 18.4879C22.9564 17.7624 22.6776 16.8922 22.6787 15.9999C22.6787 15.0719 22.9747 14.2132 23.476 13.5119C23.9773 14.2132 24.2733 15.0719 24.2733 15.9999C24.2733 16.9279 23.9773 17.7865 23.476 18.4879ZM16.5 18.4879C15.9804 17.7624 15.7016 16.8922 15.7027 15.9999C15.7027 15.0719 15.9987 14.2132 16.5 13.5119C17.0013 14.2132 17.2973 15.0719 17.2973 15.9999C17.2973 16.9279 17.0013 17.7865 16.5 18.4879ZM9.52401 18.4879C9.00444 17.7624 8.72557 16.8922 8.72668 15.9999C8.72668 15.0719 9.02268 14.2132 9.52401 13.5119C10.0253 14.2132 10.3213 15.0719 10.3213 15.9999C10.3213 16.9279 10.0253 17.7865 9.52401 18.4879ZM1.75068 15.9999C1.75099 15.2003 1.97502 14.4167 2.39744 13.7377C2.81985 13.0588 3.4238 12.5116 4.14099 12.158C4.85818 11.8044 5.65999 11.6585 6.45576 11.7368C7.25154 11.8152 8.00952 12.1146 8.64401 12.6012C7.88592 13.5718 7.47472 14.7683 7.47601 15.9999C7.47601 17.2812 7.91334 18.4612 8.64401 19.3985C8.00952 19.8852 7.25154 20.1846 6.45576 20.2629C5.65999 20.3412 4.85818 20.1953 4.14099 19.8417C3.4238 19.4881 2.81985 18.9409 2.39744 18.262C1.97502 17.5831 1.75099 16.7995 1.75068 15.9999ZM10.404 19.3985C11.1621 18.4279 11.5733 17.2314 11.572 15.9999C11.572 14.7185 11.1347 13.5385 10.404 12.6012C11.1515 12.0257 12.0686 11.7139 13.012 11.7145C13.9933 11.7145 14.8973 12.0452 15.62 12.6012C14.8616 13.5716 14.4503 14.7682 14.452 15.9999C14.452 17.2812 14.8893 18.4612 15.62 19.3985C14.8725 19.974 13.9554 20.2858 13.012 20.2852C12.0685 20.2865 11.1512 19.9747 10.404 19.3985ZM17.38 19.3985C18.1385 18.4281 18.5497 17.2315 18.548 15.9999C18.548 14.7185 18.1107 13.5385 17.38 12.5999C18.1027 12.0452 19.0067 11.7132 19.988 11.7132C20.9693 11.7132 21.8733 12.0439 22.596 12.5999C21.8376 13.5703 21.4263 14.7669 21.428 15.9985C21.428 17.2799 21.8653 18.4599 22.596 19.3972C21.8485 19.9727 20.9314 20.2845 19.988 20.2839C19.0445 20.2862 18.1271 19.9747 17.38 19.3985ZM26.964 20.2852C26.0205 20.2865 25.1032 19.9747 24.356 19.3985C25.1139 18.4278 25.5251 17.2314 25.524 15.9999C25.524 14.7185 25.0867 13.5385 24.356 12.6012C24.8962 12.1863 25.5276 11.9062 26.1978 11.784C26.8679 11.6619 27.5575 11.7012 28.2094 11.8988C28.8613 12.0964 29.4567 12.4466 29.9462 12.9203C30.4357 13.394 30.8052 13.9775 31.0242 14.6226C31.2431 15.2676 31.3051 15.9556 31.2051 16.6293C31.105 17.3031 30.8458 17.9434 30.4488 18.497C30.0519 19.0505 29.5287 19.5015 28.9227 19.8125C28.3166 20.1235 27.6452 20.2856 26.964 20.2852Z" fill="#A8A8A8"/>
</g>
<defs>
<clipPath id="clip0_131423_46849">
<rect width="32" height="32" fill="white" transform="translate(0.5)"/>
</clipPath>
</defs>
</svg>
