<svg width="33" height="32" viewBox="0 0 33 32" fill="none" xmlns="http://www.w3.org/2000/svg">
<g clip-path="url(#clip0_131423_46860)">
<path d="M16.5 5.13086C7.464 5.13086 0.5 9.73086 0.5 16.0002C0.5 22.2695 7.46533 26.8695 16.5 26.8695C25.5347 26.8695 32.5 22.2695 32.5 16.0002C32.5 9.73086 25.536 5.13086 16.5 5.13086ZM26.2787 10.2495C26.2787 11.6895 23.9787 12.8002 20.2947 13.2442C19.948 9.80419 18.9547 7.53886 17.6773 6.69353C21.608 6.93886 26.2787 8.32953 26.2787 10.2495ZM16.5 21.8682C15.22 21.8682 14.172 19.8682 14.0893 16.0162C14.8587 16.0789 15.6627 16.1122 16.5 16.1122C17.3373 16.1122 18.14 16.0789 18.9093 16.0162C18.828 19.8695 17.78 21.8682 16.5 21.8682ZM16.5 13.4575C15.7133 13.4575 14.96 13.4322 14.2467 13.3855C14.5947 11.0815 15.4733 9.18553 16.5 9.18553C17.5267 9.18553 18.404 11.0815 18.752 13.3855C18.0387 13.4309 17.2867 13.4575 16.5 13.4575ZM15.324 6.69086C14.0493 7.53486 13.0493 9.80153 12.7053 13.2442C9.02133 12.8002 6.72 11.6895 6.72 10.2495C6.72 8.32953 11.392 6.92953 15.324 6.69086ZM3.216 15.5735C3.21263 14.0531 3.70299 12.5727 4.61333 11.3549C4.97333 13.4175 7.976 15.1962 12.576 15.8482V16.0002C12.576 21.0295 13.748 24.2709 15.3587 25.2935C8.54933 24.8655 3.216 20.6535 3.216 15.5735ZM17.6467 25.2935C19.256 24.2709 20.4293 21.0295 20.4293 16.0002V15.8469C25.0253 15.1962 28.0347 13.4122 28.392 11.3535C29.3035 12.5713 29.7944 14.0524 29.7907 15.5735C29.7853 20.6535 24.448 24.8655 17.6467 25.2935Z" fill="#A8A8A8"/>
</g>
<defs>
<clipPath id="clip0_131423_46860">
<rect width="32" height="32" fill="white" transform="translate(0.5)"/>
</clipPath>
</defs>
</svg>
