<svg width="33" height="32" viewBox="0 0 33 32" fill="none" xmlns="http://www.w3.org/2000/svg">
<path d="M19.4866 14.0801C19.0733 15.7334 16.5 14.8934 15.7 14.6667L16.4333 11.7601C17.26 12.0001 19.9133 12.3467 19.4866 14.0801ZM15.34 16.1601L14.54 19.3734C15.5266 19.6267 18.58 20.6001 19.0333 18.7867C19.5133 16.8934 16.3266 16.4001 15.34 16.1601ZM29.4333 19.2267C27.6466 26.3734 20.42 30.7201 13.2733 28.9334C6.12663 27.1467 1.78396 19.9201 3.56663 12.7734C3.99015 11.0748 4.74414 9.47636 5.78552 8.06925C6.8269 6.66214 8.13529 5.47397 9.63594 4.57259C11.1366 3.6712 12.8001 3.07428 14.5315 2.8159C16.2629 2.55752 18.0282 2.64275 19.7266 3.06672C26.86 4.85339 31.2066 12.0801 29.4333 19.2267ZM19.4466 10.7334L20.0466 8.33339L18.58 8.00006L17.9933 10.3067C17.6066 10.2134 17.22 10.1201 16.82 10.0401L17.4066 7.68006L15.9533 7.33339L15.3533 9.72006C15.0333 9.64006 14.7133 9.57339 14.42 9.49339L12.4066 8.98672L12.0066 10.5467C12.0066 10.5467 13.1 10.8001 13.0733 10.8134C13.6733 10.9601 13.78 11.3334 13.7533 11.6667L12.1133 18.2401C12.0466 18.4267 11.8333 18.6667 11.4466 18.6001C11.46 18.6134 10.38 18.3334 10.38 18.3334L9.65996 20.0001L11.5533 20.4801C11.9133 20.5734 12.26 20.6667 12.6066 20.7467L11.9933 23.1734L13.46 23.5467L14.06 21.1334C14.46 21.2401 14.8466 21.3334 15.22 21.4401L14.62 23.8267L16.0866 24.2001L16.7 21.7734C19.1666 22.2401 21.06 22.0534 21.8333 19.8001C22.5 18.0001 21.8333 16.9334 20.5 16.2534C21.46 16.0001 22.18 15.4001 22.38 14.0934C22.6466 12.3201 21.2866 11.3734 19.4466 10.7334Z" fill="#A8A8A8"/>
</svg>
