<svg width="105" height="32" viewBox="0 0 105 32" fill="none" xmlns="http://www.w3.org/2000/svg">
<g clip-path="url(#clip0_131423_46828)">
<path d="M101.93 18.9775C101.871 19.2728 101.768 19.5238 101.627 19.7451C101.487 19.9663 101.303 20.1438 101.067 20.2837C100.838 20.4168 100.55 20.4903 100.211 20.4903C99.8787 20.4903 99.5907 20.4241 99.3623 20.2837C99.134 20.1502 98.9395 19.9659 98.7939 19.7451C98.6535 19.524 98.5502 19.2728 98.484 18.9775C98.419 18.6844 98.3868 18.3849 98.388 18.0847C98.388 17.7748 98.4178 17.4647 98.4767 17.1773C98.5357 16.882 98.639 16.6237 98.7793 16.4023C98.9193 16.1732 99.104 15.9964 99.3398 15.849C99.5689 15.7086 99.8565 15.6349 100.196 15.6349C100.528 15.6349 100.808 15.7086 101.037 15.849C101.266 15.9907 101.461 16.1824 101.605 16.4096C101.753 16.6383 101.856 16.9038 101.923 17.1918C101.989 17.487 102.019 17.7821 102.019 18.0847C102.019 18.3873 101.989 18.6824 101.93 18.9775ZM103.893 16.5941C103.753 16.0997 103.546 15.6717 103.266 15.2954C102.978 14.9266 102.624 14.6238 102.196 14.4026C101.767 14.1812 101.251 14.0631 100.653 14.0631C100.181 14.0631 99.753 14.1591 99.3621 14.3437C98.9707 14.5282 98.646 14.8306 98.3951 15.2365H98.3657V14.2697H96.3881V24.5048H98.469V20.9108H98.4984C98.7437 21.2719 99.0797 21.562 99.4726 21.7522C99.8713 21.944 100.299 22.04 100.771 22.04C101.325 22.04 101.812 21.9294 102.233 21.7153C102.639 21.5074 102.994 21.2126 103.273 20.8519C103.554 20.4903 103.76 20.0769 103.893 19.6048C104.033 19.1324 104.1 18.6457 104.1 18.1363C104.1 17.5978 104.033 17.0813 103.893 16.5866V16.5941V16.5941ZM93.6284 18.9775C93.5694 19.2728 93.4661 19.5238 93.3258 19.7451C93.1854 19.9665 93.0011 20.1438 92.7649 20.2837C92.5362 20.4168 92.2484 20.4903 91.9092 20.4903C91.5768 20.4903 91.2967 20.4241 91.0603 20.2837C90.8321 20.1501 90.6377 19.9658 90.4919 19.7451C90.352 19.524 90.2487 19.2728 90.1825 18.9775C90.1172 18.6844 90.085 18.3849 90.0865 18.0847C90.0865 17.7748 90.1158 17.4647 90.1748 17.1773C90.2341 16.882 90.337 16.6237 90.4774 16.4023C90.6177 16.1732 90.802 15.9964 91.0382 15.849C91.2669 15.7086 91.5547 15.6349 91.894 15.6349C92.2264 15.6349 92.5065 15.7086 92.7356 15.849C92.9647 15.9907 93.1588 16.1823 93.3035 16.4096C93.4511 16.6383 93.5544 16.9038 93.6211 17.1918C93.6873 17.487 93.7167 17.7821 93.7167 18.0847C93.7167 18.3873 93.6873 18.6824 93.6284 18.9775V18.9775ZM94.9638 15.2954C94.6834 14.9266 94.3219 14.6238 93.8939 14.4026C93.4659 14.1812 92.9494 14.0631 92.3515 14.0631C91.8792 14.0631 91.4514 14.1591 91.0601 14.3437C90.6692 14.5282 90.3445 14.8306 90.0935 15.2365H90.0638V14.2697H88.0861V24.5048H90.1671V20.9108H90.1968C90.4421 21.2719 90.7781 21.562 91.1711 21.7522C91.5693 21.944 91.9973 22.04 92.4694 22.04C93.0302 22.04 93.5099 21.9294 93.931 21.7153C94.3368 21.5072 94.6919 21.2124 94.971 20.8519C95.2518 20.4903 95.4584 20.0769 95.5987 19.6048C95.7349 19.1271 95.8044 18.633 95.8053 18.1363C95.8053 17.5978 95.7387 17.0813 95.5987 16.5866C95.4584 16.0924 95.2518 15.6642 94.9638 15.2881V15.2954V15.2954ZM81.2676 17.8043L82.6327 13.9596H82.6623L83.9833 17.8043H81.2676ZM81.489 11.377L77.5263 21.848H79.8435L80.6628 19.5163H84.581L85.3706 21.848H87.7614L83.8432 11.377H81.4817H81.489V11.377ZM77.3566 18.5274C77.2162 18.2913 77.0392 18.0847 76.8105 17.9224C76.5892 17.7602 76.3307 17.6344 76.0429 17.5313C75.7513 17.4355 75.4559 17.3519 75.1574 17.2806C74.8622 17.2139 74.5744 17.1475 74.2939 17.0886C74.0134 17.0296 73.7551 16.963 73.5412 16.8892C73.3201 16.8155 73.1428 16.7197 73.01 16.6014C72.8696 16.4833 72.8034 16.3359 72.8034 16.1441C72.8034 15.9891 72.8402 15.8635 72.9212 15.7675C73.0025 15.6717 73.0985 15.6053 73.2091 15.5537C73.3199 15.502 73.4452 15.4724 73.5856 15.4579C73.713 15.4438 73.841 15.4364 73.9692 15.4358C74.3383 15.4358 74.6629 15.5095 74.9362 15.6497C75.2092 15.7898 75.3642 16.0629 75.3862 16.4613H77.3639C77.3268 15.9889 77.2017 15.6053 77.0024 15.2952C76.803 14.9851 76.5523 14.7418 76.2497 14.5573C75.9471 14.3728 75.6003 14.2401 75.2165 14.1589C74.8329 14.0777 74.4343 14.0408 74.0211 14.0408C73.6081 14.0408 73.2095 14.0779 72.8184 14.1514C72.4272 14.2251 72.0732 14.3507 71.7633 14.5353C71.4461 14.7198 71.195 14.9634 71.0106 15.2731C70.8186 15.583 70.7228 15.9891 70.7228 16.4758C70.7228 16.808 70.789 17.0883 70.9294 17.317C71.0623 17.5461 71.2466 17.7377 71.468 17.8927C71.6969 18.0403 71.9478 18.1659 72.2356 18.2617C72.5235 18.3575 72.8186 18.4389 73.1212 18.5052C73.8665 18.6601 74.4422 18.815 74.8627 18.97C75.2759 19.1249 75.4827 19.3611 75.4827 19.671C75.4827 19.8555 75.4383 20.0105 75.3498 20.1358C75.2631 20.2584 75.1495 20.3593 75.0176 20.431C74.8847 20.5047 74.7371 20.5565 74.5748 20.5932C74.4223 20.6279 74.2664 20.6452 74.11 20.6448C73.9034 20.6448 73.7041 20.623 73.5196 20.5711C73.3278 20.5195 73.158 20.4453 73.0106 20.3422C72.8629 20.2389 72.7448 20.1061 72.649 19.9438C72.553 19.7816 72.5087 19.5896 72.5087 19.3682H70.531C70.5531 19.8772 70.6641 20.2979 70.878 20.6373C71.0846 20.977 71.3576 21.2426 71.6823 21.4491C72.007 21.6557 72.3833 21.8032 72.804 21.8917C73.2247 21.9804 73.6525 22.0248 74.0952 22.0248C74.5234 22.0248 74.9512 21.9804 75.3646 21.899C75.7778 21.818 76.1468 21.6703 76.4715 21.4637C76.7962 21.2571 77.0544 20.9841 77.2537 20.6519C77.4528 20.3127 77.5561 19.8995 77.5561 19.3976C77.5561 19.0435 77.4899 18.7484 77.3495 18.512L77.3566 18.5274V18.5274ZM68.7447 11.9969H66.6638V14.2697H65.4017V15.6642H66.6638V20.1363C66.6638 20.5201 66.73 20.8227 66.8556 21.0587C66.9812 21.295 67.1582 21.4718 67.3796 21.6049C67.601 21.7303 67.8521 21.8188 68.1397 21.8632C68.4427 21.9083 68.7486 21.9304 69.0548 21.9294C69.2614 21.9294 69.468 21.9221 69.6894 21.9148C69.8848 21.9082 70.0796 21.8884 70.2723 21.8557V20.2396C70.1705 20.2625 70.0669 20.2773 69.9627 20.2837C69.8497 20.2925 69.7365 20.2975 69.6232 20.2985C69.2689 20.2985 69.0401 20.2396 68.9222 20.1213C68.8041 20.0034 68.745 19.767 68.745 19.4205V15.6642H70.2723V14.2697H68.745V11.9969H68.7447ZM62.7747 18.9186C62.7747 19.0364 62.7601 19.1916 62.7378 19.3909C62.713 19.5947 62.645 19.791 62.5385 19.9665C62.4279 20.1585 62.2655 20.3208 62.0368 20.4612C61.8156 20.6011 61.4907 20.6677 61.0851 20.6677C60.9226 20.6677 60.7602 20.6528 60.5979 20.6234C60.443 20.5936 60.3028 20.542 60.1847 20.4684C60.0666 20.3945 59.9781 20.2987 59.9042 20.1658C59.838 20.0405 59.8009 19.8855 59.8009 19.6935C59.8009 19.4942 59.838 19.3392 59.9042 19.2066C59.9706 19.0808 60.0664 18.9775 60.1774 18.8892C60.288 18.808 60.4209 18.7417 60.5758 18.6901C60.7308 18.6384 60.8785 18.6014 61.0407 18.5718C61.2073 18.5431 61.3746 18.5185 61.5424 18.4981C61.7121 18.476 61.8673 18.4537 62.0222 18.4243C62.1772 18.395 62.3173 18.3579 62.4502 18.3138C62.5831 18.2696 62.6937 18.2105 62.7824 18.1292V18.9042L62.7747 18.9186V18.9186ZM64.8556 20.1656V16.2176C64.8556 15.7603 64.7523 15.3912 64.546 15.1109C64.3394 14.8304 64.0734 14.6165 63.7562 14.4615C63.4315 14.3066 63.0773 14.2033 62.6862 14.1443C62.3023 14.0919 61.9153 14.0647 61.5278 14.0631C61.1069 14.0631 60.6864 14.1075 60.2732 14.1887C59.8603 14.2699 59.4837 14.4099 59.1515 14.6094C58.8245 14.8039 58.5448 15.0686 58.3324 15.3843C58.1186 15.709 57.993 16.1147 57.9636 16.6018H60.0446C60.0814 16.1889 60.2216 15.901 60.4576 15.7238C60.6939 15.5466 61.0111 15.4583 61.4245 15.4583C61.609 15.4583 61.7859 15.4728 61.9485 15.4951C62.0997 15.515 62.2452 15.5652 62.3765 15.6428C62.5021 15.7165 62.5979 15.8198 62.6718 15.9527C62.7455 16.0856 62.7824 16.2624 62.7824 16.4913C62.7897 16.7051 62.7307 16.8678 62.5904 16.9857C62.4502 17.0963 62.2657 17.185 62.0297 17.2439C61.7938 17.3029 61.528 17.3472 61.2254 17.3768C60.9228 17.4064 60.6129 17.4432 60.303 17.4949C59.9931 17.5465 59.683 17.6127 59.3731 17.694C59.0632 17.7752 58.79 17.9006 58.5538 18.0705C58.3104 18.24 58.1186 18.4614 57.9636 18.7344C57.8087 19.015 57.7347 19.3692 57.7347 19.7972C57.7347 20.1883 57.801 20.5278 57.934 20.8081C58.0586 21.0814 58.2456 21.3216 58.4801 21.5093C58.7238 21.6988 59.002 21.8392 59.2992 21.9225C59.6091 22.011 59.9486 22.0552 60.3101 22.0552C60.7824 22.0552 61.24 21.989 61.6901 21.8486C62.1352 21.7127 62.5388 21.4666 62.8634 21.133C62.8707 21.2584 62.893 21.3835 62.9151 21.5093C62.9371 21.6272 62.974 21.7528 63.0111 21.8709H65.1216C65.0256 21.7159 64.9519 21.4796 64.915 21.1697C64.8759 20.844 64.8562 20.5163 64.8559 20.1883V20.1656H64.8556ZM56.2811 14.9264C56.0745 14.6608 55.7939 14.4467 55.4399 14.2991C55.0856 14.1441 54.6283 14.0702 54.0672 14.0702C53.6761 14.0702 53.2777 14.1735 52.8645 14.3728C52.4513 14.5721 52.1191 14.8968 51.8536 15.3321H51.8092V11.3842H49.7283V21.8555H51.8092V17.8781C51.8092 17.1031 51.9348 16.5498 52.1931 16.2103C52.444 15.8708 52.8572 15.7086 53.4254 15.7086C53.9198 15.7086 54.274 15.8635 54.4658 16.1732C54.6579 16.4831 54.7612 16.9482 54.7612 17.5753V21.8555H56.8421V17.1918C56.8421 16.7195 56.7978 16.2917 56.7165 15.9079C56.6353 15.5241 56.4877 15.1921 56.2811 14.9264ZM45.2783 18.6014H45.2488L43.4631 11.3845H41.3082L39.4928 18.5129H39.4632L37.8027 11.3845H35.5006L38.2751 21.8557H40.607L42.3485 14.7271H42.3781L44.1491 21.8557H46.4367L47.6911 17.2066L49.2555 11.3845H46.9973L45.2783 18.6014V18.6014Z" fill="#A8A8A8"/>
<path d="M15.9821 28.1576C13.4361 28.1576 11.0601 27.3902 9.07512 26.0842L4.24885 27.6261L5.81332 22.9625C4.30799 20.8961 3.42267 18.3503 3.42267 15.6052C3.42267 8.68341 9.05305 3.05303 15.9749 3.05303C22.8967 3.05303 28.527 8.68341 28.527 15.6052C28.527 22.5268 22.8967 28.1574 15.9749 28.1574H15.9821V28.1576ZM15.9821 0.676758C7.73912 0.676758 1.05368 7.36282 1.05368 15.6054C1.05368 18.4243 1.83592 21.0661 3.19358 23.3168L0.500122 31.3234L8.76523 28.6743C10.9744 29.8959 13.4578 30.5358 15.9821 30.5339C24.225 30.5339 30.9106 23.8483 30.9106 15.6054C30.9104 7.36282 24.225 0.676758 15.9821 0.676758Z" fill="#A8A8A8"/>
<path d="M16.1709 2.66699C23.3374 2.66724 29.167 8.49845 29.167 15.667C29.1669 22.8352 23.3373 28.6667 16.1709 28.667C13.5275 28.667 11.0746 27.8797 9.01953 26.5195L4.02246 28.1162L5.64258 23.2861C4.08408 21.1462 3.16709 18.5098 3.16699 15.667C3.16699 8.4983 8.99641 2.66699 16.1631 2.66699H16.1709ZM11.2598 8.79395C10.7801 8.79395 10.2782 8.93444 9.97559 9.24414C9.60675 9.62047 8.69141 10.4992 8.69141 12.2998C8.69164 14.0998 10.0041 15.8406 10.1816 16.085C10.3662 16.3282 12.743 20.0767 16.4326 21.6045C19.3173 22.7997 20.1735 22.6899 20.8301 22.5498C21.7893 22.3432 22.9923 21.6341 23.2949 20.7783C23.5973 19.9227 23.5973 19.1927 23.5088 19.0371C23.4203 18.8822 23.1765 18.7931 22.8076 18.6084C22.4381 18.4236 20.6471 17.5395 20.3066 17.4209C19.9746 17.2956 19.657 17.3394 19.4062 17.6934C19.0521 18.1876 18.7053 18.6898 18.4248 18.9922C18.2034 19.2284 17.8415 19.2584 17.5391 19.1328C17.1332 18.9633 15.9969 18.5644 14.5947 17.3174C13.5099 16.3508 12.7715 15.1477 12.5576 14.7861C12.3439 14.4176 12.5356 14.2029 12.7051 14.0039C12.8896 13.7751 13.0675 13.6135 13.252 13.3994C13.4365 13.1855 13.5392 13.0742 13.6572 12.8232C13.7828 12.5798 13.694 12.3291 13.6055 12.1445C13.5169 11.9598 12.7791 10.159 12.4766 9.42871C12.2332 8.846 12.0485 8.82359 11.6797 8.80859C11.5399 8.7996 11.3998 8.79465 11.2598 8.79395Z" fill="#A8A8A8"/>
</g>
<defs>
<clipPath id="clip0_131423_46828">
<rect width="104" height="32" fill="white" transform="translate(0.5)"/>
</clipPath>
</defs>
</svg>
