<svg width="78" height="32" viewBox="0 0 78 32" fill="none" xmlns="http://www.w3.org/2000/svg">
<g clip-path="url(#clip0_131423_46830)">
<path d="M25.2239 14.272C25.2239 12.8976 23.8554 11.4316 21.5746 11.4316C19.0201 11.4316 16.1007 13.3558 15.6446 17.2041C15.1884 21.0525 17.5604 22.7934 20.0237 22.7934C22.487 22.7934 23.673 21.8771 24.9502 20.5943C23.8554 19.2199 22.3957 19.8613 22.122 19.9529C21.8483 20.1362 21.3922 20.3194 20.6623 20.3194C19.75 20.3194 18.7464 19.8613 18.7464 18.1204C24.7678 17.479 25.2239 15.6465 25.2239 14.272ZM22.3045 14.4553C22.3045 14.9134 22.122 15.6465 19.1114 16.013C19.75 13.7223 20.936 13.539 21.4834 13.539C22.0308 13.6307 22.3045 13.9972 22.3045 14.4553ZM12.1777 14.8218C12.1777 14.8218 10.9005 18.8534 10.8092 19.2199C10.8092 18.8534 9.80569 11.6149 9.80569 11.6149C7.61611 11.6149 6.43009 13.1725 5.8827 14.8218C5.8827 14.8218 4.33175 18.8534 4.24052 19.2199C4.14929 18.945 3.96682 14.9134 3.96682 14.9134C3.78436 12.8976 1.95972 11.6149 0.5 11.6149L2.32464 22.6101C4.60545 22.6101 5.8827 21.0525 6.52133 19.4032C6.52133 19.4032 7.88981 15.8297 7.98104 15.6465C7.98104 15.8297 8.9846 22.6101 8.9846 22.6101C11.2654 22.6101 12.5427 21.1441 13.1813 19.5864L16.3744 11.6149C14.0024 11.6149 12.8164 13.1725 12.1777 14.8218ZM33.7085 11.34C32.34 11.34 31.2453 12.073 30.3329 13.2641L31.0628 6.66699C29.1469 6.66699 27.6872 8.31628 27.3223 10.6986L25.8626 22.5185C26.9573 22.5185 28.0521 22.2436 28.6908 21.419C29.2382 22.152 30.0592 22.7017 31.2453 22.7017C34.4384 22.7017 36.628 19.0367 36.628 15.5548C36.7192 12.3479 35.1682 11.34 33.7085 11.34ZM33.3436 17.0209C32.9787 18.945 31.9751 20.2278 30.8803 20.2278C29.8768 20.2278 29.4206 19.7697 29.4206 19.7697C29.6031 18.1204 29.7855 17.0209 30.1505 16.1046C30.5154 15.1883 31.4277 13.8139 32.34 13.8139C33.2524 13.9055 33.7085 15.0967 33.3436 17.0209ZM44.6564 11.6149H42.4668V11.5232C42.6493 10.0572 42.923 9.32418 44.109 9.23255C44.8389 9.14093 45.2038 8.77442 45.295 8.31628C45.3863 7.94977 45.5687 6.75862 45.5687 6.75862C41.0983 6.75862 39.7299 8.68279 39.3649 11.6149V11.7065H39.2737C38.5438 11.7065 37.7227 12.5311 37.6315 13.539L37.5403 13.9055H39L37.7227 24.1678L37.3578 26.0003C37.4491 26.0003 37.449 26.0003 37.5403 26.0003C39.6386 25.9087 40.9159 24.2594 41.2808 21.8771L42.2844 13.8139H43.0142C43.6528 13.8139 44.4739 13.1725 44.6564 11.9814V11.6149ZM56.1517 11.4316C53.5972 11.4316 51.2251 13.3558 50.4953 16.2878C49.7654 19.2199 50.8602 22.7934 54.6007 22.7934C58.3412 22.7934 60.5308 19.1283 60.5308 16.1046C60.4396 13.0809 58.4325 11.4316 56.1517 11.4316ZM57.1552 16.9292C57.064 18.3036 56.4254 20.3194 54.7832 20.3194C53.141 20.3194 53.4147 17.9371 53.5059 16.8376C53.6884 15.6465 54.327 13.9055 55.7867 13.9055C57.1552 13.9055 57.3377 15.4632 57.1552 16.9292ZM73.1208 14.8218C73.1208 14.8218 71.8436 18.8534 71.7524 19.2199C71.7524 18.8534 70.7488 11.6149 70.7488 11.6149C68.5592 11.6149 67.3732 13.1725 66.8258 14.8218C66.8258 14.8218 65.2749 18.8534 65.1837 19.2199C65.1837 18.945 64.91 14.9134 64.91 14.9134C64.8187 12.8976 62.9028 11.7065 61.4431 11.7065L63.2678 22.7017C65.5486 22.7017 66.8258 21.1441 67.4645 19.4948C67.4645 19.4948 68.8329 15.9213 68.9242 15.7381C68.9242 15.9213 69.9277 22.7017 69.9277 22.7017C72.2085 22.7017 73.4858 21.2357 74.1244 19.6781L77.1351 11.6149C74.8543 11.6149 73.6682 13.1725 73.1208 14.8218ZM46.7547 6.75862L44.9301 21.7855L44.5652 23.618C44.6564 23.618 44.6564 23.618 44.7476 23.618C46.7547 23.618 48.2145 21.7855 48.3969 19.5864L49.4917 10.9735C49.7654 8.40791 48.1232 6.75862 46.7547 6.75862Z" fill="#A8A8A8"/>
</g>
<defs>
<clipPath id="clip0_131423_46830">
<rect width="77" height="32" fill="white" transform="translate(0.5)"/>
</clipPath>
</defs>
</svg>
