<svg width="91" height="32" viewBox="0 0 91 32" fill="none" xmlns="http://www.w3.org/2000/svg">
<g clip-path="url(#clip0_131423_46831)">
<path d="M18.5773 11.1339C15.3235 11.1339 12.7811 13.6039 12.7811 16.9106C12.7811 20.2173 15.2593 22.6662 18.5773 22.6662C21.8954 22.6662 24.4166 20.175 24.4166 16.8895C24.4166 13.6251 21.9385 11.1339 18.5773 11.1339ZM18.5993 20.2831C16.7463 20.2831 15.3885 18.844 15.3885 16.9114C15.3885 14.9568 16.7244 13.5186 18.5773 13.5186C20.4522 13.5186 21.8092 14.9788 21.8092 16.9114C21.8092 18.844 20.4522 20.2831 18.5993 20.2831ZM25.1273 13.647H26.7435V22.4523H29.329V11.3485H25.1273V13.647ZM6.27427 13.5177C7.63207 13.5177 8.70935 14.3552 9.11832 15.6008H11.855C11.3591 12.938 9.16142 11.1339 6.29622 11.1339C3.0424 11.1339 0.5 13.6039 0.5 16.9114C0.5 20.2189 2.97817 22.667 6.29622 22.667C9.09717 22.667 11.3379 20.8628 11.8339 18.1781H9.11832C8.7305 19.4237 7.6532 20.2831 6.29542 20.2831C4.42052 20.2831 3.10662 18.844 3.10662 16.9114C3.10745 14.9568 4.4002 13.5177 6.27427 13.5177ZM74.2532 15.8374L72.3572 15.5585C71.4525 15.43 70.806 15.1292 70.806 14.4202C70.806 13.647 71.6467 13.2608 72.7882 13.2608C74.038 13.2608 74.8355 13.7974 75.0077 14.678H77.5072C77.2267 12.4445 75.503 11.1347 72.8532 11.1347C70.1165 11.1347 68.3067 12.5307 68.3067 14.5064C68.3067 16.3959 69.492 17.4919 71.8832 17.835L73.7792 18.1139C74.7062 18.2424 75.2232 18.6082 75.2232 19.2953C75.2232 20.1758 74.3185 20.5409 73.0687 20.5409C71.5385 20.5409 70.6767 19.9181 70.5475 18.9733H68.005C68.2425 21.1425 69.9442 22.667 73.0467 22.667C75.8697 22.667 77.7437 21.3783 77.7437 19.166C77.7437 17.1903 76.3867 16.1593 74.2532 15.8374ZM28.0362 6.77431C27.0882 6.77431 26.377 7.46134 26.377 8.4061C26.377 9.35087 27.0875 10.0379 28.0362 10.0379C28.9842 10.0379 29.6957 9.35087 29.6957 8.4061C29.6957 7.46134 28.9842 6.77431 28.0362 6.77431ZM65.9797 15.1503C65.9797 12.7453 64.5147 11.1347 61.412 11.1347C58.4817 11.1347 56.8442 12.6169 56.5207 14.8934H59.085C59.2142 14.0129 59.9037 13.2828 61.369 13.2828C62.6837 13.2828 63.33 13.8625 63.33 14.5715C63.33 15.4951 62.1445 15.7309 60.6795 15.8813C58.6972 16.0959 56.241 16.7829 56.241 19.3603C56.241 21.358 57.728 22.6458 60.0982 22.6458C61.951 22.6458 63.1145 21.8726 63.6967 20.6482C63.783 21.7434 64.6017 22.4523 65.744 22.4523H67.2522V20.1547H65.9805V15.1503H65.9797ZM63.4372 17.9424C63.4372 19.4245 62.1445 20.5197 60.5712 20.5197C59.6015 20.5197 58.7827 20.1116 58.7827 19.253C58.7827 18.1578 60.0972 17.857 61.304 17.7285C62.4675 17.6212 63.1137 17.3635 63.4372 16.8691V17.9424ZM49.7122 11.1339C48.2682 11.1339 47.0617 11.7355 46.2 12.7445V6.66699H43.6145V22.4523H46.1567V20.9921C47.0185 22.0442 48.2472 22.667 49.7122 22.667C52.8147 22.667 55.1637 20.2189 55.1637 16.9114C55.1637 13.6039 52.7717 11.1339 49.7122 11.1339ZM49.3245 20.2831C47.4715 20.2831 46.1137 18.844 46.1137 16.9114C46.1137 14.9788 47.4927 13.5186 49.3455 13.5186C51.2205 13.5186 52.5342 14.9577 52.5342 16.9114C52.5342 18.844 51.1772 20.2831 49.3245 20.2831ZM37.4302 11.1339C35.7497 11.1339 34.6505 11.8209 34.0042 12.7876V11.3485H31.4397V22.4515H34.0252V16.4171C34.0252 14.7202 35.1025 13.5177 36.697 13.5177C38.184 13.5177 39.11 14.5698 39.11 16.0951V22.4523H41.6955V15.9024C41.6965 13.1096 40.2532 11.1339 37.4302 11.1339ZM90.0687 16.5464C90.0687 13.3681 87.7417 11.1347 84.6172 11.1347C81.2992 11.1347 78.8642 13.6259 78.8642 16.9114C78.8642 20.3693 81.4715 22.667 84.6605 22.667C87.354 22.667 89.4655 21.0775 90.0037 18.8229H87.31C86.9222 19.8107 85.9742 20.3693 84.7027 20.3693C83.0432 20.3693 81.7935 19.3384 81.5137 17.5342H90.068V16.5464H90.0687ZM81.665 15.687C82.075 14.1405 83.2382 13.3893 84.5742 13.3893C86.0392 13.3893 87.1597 14.2267 87.4182 15.687H81.665Z" fill="#A8A8A8"/>
</g>
<defs>
<clipPath id="clip0_131423_46831">
<rect width="90" height="32" fill="white" transform="translate(0.5)"/>
</clipPath>
</defs>
</svg>
