<svg width="33" height="32" viewBox="0 0 33 32" fill="none" xmlns="http://www.w3.org/2000/svg">
<path d="M23.2333 27.04C21.9267 28.3067 20.5 28.1067 19.1267 27.5067C17.6733 26.8933 16.34 26.8667 14.8067 27.5067C12.8867 28.3333 11.8733 28.0933 10.7267 27.04C4.22002 20.3333 5.18002 10.12 12.5667 9.74667C14.3667 9.84 15.62 10.7333 16.6733 10.8133C18.2467 10.4933 19.7533 9.57333 21.4333 9.69333C23.4467 9.85333 24.9667 10.6533 25.9667 12.0933C21.8067 14.5867 22.7933 20.0667 26.6067 21.6C25.8467 23.6 24.86 25.5867 23.22 27.0533L23.2333 27.04ZM16.54 9.66667C16.34 6.69333 18.7533 4.24 21.5267 4C21.9133 7.44 18.4067 10 16.54 9.66667Z" fill="#A8A8A8"/>
</svg>
