<svg width="120" height="32" viewBox="0 0 120 32" fill="none" xmlns="http://www.w3.org/2000/svg">
<g clip-path="url(#clip0_131423_46836)">
<path d="M4.81063 14.6893C4.76745 14.6329 4.71041 14.5886 4.64505 14.5607C4.57968 14.5328 4.50819 14.5221 4.43748 14.5298C4.36677 14.5374 4.29925 14.5631 4.24142 14.6044C4.1836 14.6457 4.13744 14.7012 4.10739 14.7655L0.54398 21.8701C0.511518 21.9349 0.496191 22.0068 0.499454 22.0791C0.502718 22.1515 0.524463 22.2217 0.562627 22.2833C0.60079 22.3449 0.654104 22.3957 0.717507 22.431C0.78091 22.4662 0.852297 22.4848 0.924891 22.4848H5.88676C5.96623 22.4866 6.04453 22.4654 6.11215 22.4237C6.17976 22.382 6.23379 22.3217 6.26767 22.25C7.33801 20.0444 6.68935 16.6909 4.81063 14.6893Z" fill="#A8A8A8"/>
<path d="M7.42404 8.22694C6.53614 9.58931 6.0187 11.1585 5.92252 12.7805C5.82633 14.4024 6.1547 16.0215 6.87539 17.4787L9.26756 22.2496C9.30293 22.3202 9.3573 22.3795 9.42458 22.421C9.49185 22.4625 9.56938 22.4844 9.64847 22.4844H14.6095C14.6821 22.4844 14.7534 22.4659 14.8168 22.4307C14.8802 22.3954 14.9336 22.3446 14.9717 22.283C15.0099 22.2214 15.0316 22.1511 15.0349 22.0788C15.0382 22.0065 15.0228 21.9345 14.9904 21.8698C14.9904 21.8698 8.31617 8.55725 8.14844 8.22428C8.11528 8.1565 8.06363 8.09941 7.99941 8.05957C7.9352 8.01973 7.86103 7.99875 7.7854 7.99903C7.70977 7.9993 7.63576 8.02083 7.57184 8.06115C7.50793 8.10146 7.4567 8.15892 7.42404 8.22694V8.22694Z" fill="#A8A8A8"/>
<path d="M65.614 13.9231C65.614 15.6823 66.4324 17.0791 69.6336 17.6957C71.5435 18.0956 71.9436 18.403 71.9436 19.0378C71.9436 19.6545 71.5427 20.0537 70.1974 20.0537C68.5716 20.0245 66.9782 19.5946 65.5594 18.8022V21.6677C66.5235 22.1392 67.7966 22.6652 70.1611 22.6652C73.5078 22.6652 74.8356 21.177 74.8356 18.9652L65.614 13.9231ZM74.8356 18.9652C74.8356 16.8794 73.7261 15.8998 70.5977 15.229C68.8698 14.848 68.4515 14.4673 68.4515 13.9231C68.4515 13.2344 69.0698 12.9437 70.2157 12.9437C71.5981 12.9437 72.9623 13.3608 74.2536 13.9413V11.2024C73.0154 10.6404 71.6668 10.3616 70.3066 10.3863C67.2145 10.3863 65.614 11.7284 65.614 13.9231" fill="#A8A8A8"/>
<path d="M108.609 10.5684V22.4848H111.156V13.3979L112.229 15.81L115.83 22.4848H119.032V10.5684H116.485V18.2588L115.521 16.0277L112.629 10.5684H108.609Z" fill="#A8A8A8"/>
<path d="M92.414 10.5684H89.6312V22.4848H92.414V10.5684Z" fill="#A8A8A8"/>
<path d="M86.4202 18.9652C86.4202 16.8794 85.3107 15.8998 82.1823 15.229C80.4544 14.848 80.0361 14.4673 80.0361 13.9231C80.0361 13.2344 80.6544 12.9437 81.8003 12.9437C83.1827 12.9437 84.5469 13.3608 85.8382 13.9413V11.2024C84.6 10.6404 83.2514 10.3616 81.8912 10.3863C78.7991 10.3863 77.1986 11.7284 77.1986 13.9231C77.1986 15.6823 78.017 17.0791 81.2182 17.6957C83.1281 18.0956 83.5282 18.403 83.5282 19.0378C83.5282 19.6545 83.1272 20.0537 81.782 20.0537C80.1562 20.0245 78.5628 19.5946 77.144 18.8022V21.6677C78.1081 22.1392 79.3812 22.6652 81.7457 22.6652C85.0924 22.6652 86.4202 21.177 86.4202 18.9652" fill="#A8A8A8"/>
<path d="M43.9952 10.5684V22.4848H49.7151L50.6157 19.9092H46.7962V10.5684H43.9952Z" fill="#A8A8A8"/>
<path d="M32.695 10.5684V13.1437H35.7871V22.4848H38.588V13.1437H41.8984V10.5684H32.695Z" fill="#A8A8A8"/>
<path d="M28.6333 10.5684H24.9626L20.7955 22.4848H23.9778L24.5685 20.4779C26.0234 20.9039 27.5705 20.9039 29.0254 20.4779L29.6161 22.4848H32.7991L28.6333 10.5684ZM26.7978 18.329C26.2795 18.3289 25.7638 18.2549 25.2664 18.1093L26.7978 12.909L28.3293 18.111C27.8318 18.2561 27.3161 18.3295 26.7978 18.329V18.329Z" fill="#A8A8A8"/>
<path d="M59.5765 10.5684H55.906L51.7389 22.4848H54.9218L55.5126 20.4779C56.9675 20.9039 58.5146 20.9039 59.9695 20.4779L60.5602 22.4848H63.7432L59.5765 10.5684ZM57.7413 18.329C57.2229 18.3289 56.7072 18.2549 56.2098 18.1093L57.7413 12.909L59.2727 18.111C58.7752 18.2561 58.2595 18.3295 57.7413 18.329Z" fill="#A8A8A8"/>
<path d="M102.442 10.5684H98.7715L94.6044 22.4848H97.7874L98.3781 20.4779C99.833 20.9039 101.38 20.9039 102.835 20.4779L103.426 22.4848H106.609L102.442 10.5684ZM100.606 18.329C100.087 18.3289 99.5716 18.2549 99.0742 18.1093L100.606 12.909L102.137 18.111C101.64 18.2561 101.124 18.3295 100.606 18.329V18.329Z" fill="#A8A8A8"/>
</g>
<defs>
<clipPath id="clip0_131423_46836">
<rect width="119" height="32" fill="white" transform="translate(0.5)"/>
</clipPath>
</defs>
</svg>
