<svg width="33" height="32" viewBox="0 0 33 32" fill="none" xmlns="http://www.w3.org/2000/svg">
<path d="M13.74 17.32C13.8733 17.32 16.9667 17.4533 18.8067 17H18.82C20.94 16.48 23.8867 14.9867 24.6467 10.1067C24.6467 10.1067 26.34 4 17.94 4H10.7267C10.0733 4 9.51333 4.48 9.40666 5.12L6.34 24.5333C6.27333 24.9333 6.59333 25.3067 6.99333 25.3067H11.5667L12.6867 18.2133C12.7667 17.7067 13.2067 17.32 13.74 17.32Z" fill="#A8A8A8"/>
<path d="M25.82 11.0537C24.74 16.027 21.34 18.6537 15.9267 18.6537H13.9667L12.5933 27.347C12.54 27.6937 12.8067 28.0004 13.1533 28.0004H15.6867C16.14 28.0004 16.54 27.667 16.6067 27.2137C16.7133 26.6804 17.3 22.787 17.42 22.1204C17.4867 21.667 17.8867 21.3337 18.34 21.3337H18.9267C22.6867 21.3337 25.6333 19.8004 26.5 15.387C26.8467 13.6004 26.66 12.1337 25.82 11.0537Z" fill="#A8A8A8"/>
</svg>
