<svg width="33" height="32" viewBox="0 0 33 32" fill="none" xmlns="http://www.w3.org/2000/svg">
<path d="M27.7 23.3793C27.7 24.2153 27.2463 25.8252 26.227 26.7095C26.0231 26.8704 25.8193 26.7796 25.9089 26.545C26.2057 25.7999 26.8845 24.0762 26.5664 23.6794C26.3412 23.3782 25.4115 23.4012 24.6185 23.4702C24.2566 23.5173 23.9385 23.5392 23.6921 23.5909C23.4636 23.6093 23.4177 23.4035 23.6462 23.2425C23.9438 23.0268 24.2726 22.8607 24.6207 22.7503C25.9089 22.3548 27.3975 22.5928 27.6115 22.8458C27.6518 22.8941 27.7 23.0309 27.7 23.3793ZM25.5471 24.8662C25.2516 25.098 24.9414 25.3093 24.6185 25.4986C22.2415 26.9647 19.1622 27.7329 16.4884 27.7329C12.1837 27.7329 8.3337 26.1035 5.41235 23.377C5.16144 23.1677 5.36866 22.8642 5.66214 23.0286C8.80977 24.9144 12.7057 26.0552 16.7382 26.0552C19.2765 26.0552 22.0119 25.5676 24.6185 24.5189C24.801 24.4487 25.0049 24.3533 25.183 24.2866C25.5941 24.0969 25.9559 24.5649 25.5471 24.8662ZM18.6357 12.1827C18.6357 10.9856 18.6828 10.2807 18.2963 9.67586C17.9536 9.17795 17.3632 8.87897 16.5388 8.92612C15.6449 8.97671 14.685 9.57812 14.4408 10.6809C14.3926 10.9339 14.2492 11.1822 13.9513 11.2363L11.2237 10.8798C11.0288 10.8338 10.7319 10.6809 10.8294 10.2807C11.4152 7.11731 14.0487 6.01455 16.5399 5.86621H17.1246C18.4912 5.86621 20.2476 6.26753 21.3711 7.3197C22.7344 8.62599 22.5887 10.3808 22.5887 12.2873V16.803C22.5887 18.1576 23.1242 18.7578 23.6618 19.4639C23.8075 19.7157 23.8579 20.0124 23.6126 20.2171C22.9069 20.863 22.191 21.497 21.4652 22.119C21.2692 22.272 20.9175 22.2881 20.7819 22.1708C19.9194 21.4291 19.7088 21.0174 19.1745 20.2642C18.2448 21.2658 17.464 21.8189 16.5354 22.119C15.8824 22.2891 15.2108 22.3726 14.5371 22.3674C12.196 22.3674 10.3421 20.8691 10.3421 17.9058C10.3421 15.5496 11.5631 13.9478 13.3665 13.19C15.17 12.431 17.7911 12.1896 18.6357 12.185M18.1014 18.1553C18.6839 17.1526 18.6357 16.3315 18.6357 14.4928C17.9054 14.4928 17.1728 14.5446 16.5399 14.6975C15.3694 15.0459 14.4396 15.8014 14.4396 17.4055C14.4396 18.6589 15.0759 19.5122 16.149 19.5122C16.2969 19.5122 16.4268 19.4938 16.5388 19.4604C17.2893 19.2465 17.7575 18.8602 18.1014 18.1553Z" fill="#A8A8A8"/>
</svg>
