<svg width="68" height="32" viewBox="0 0 68 32" fill="none" xmlns="http://www.w3.org/2000/svg">
<g clip-path="url(#clip0_131423_46832)">
<path fill-rule="evenodd" clip-rule="evenodd" d="M15.5078 27.7331C16.7919 26.94 17.8711 25.9723 18.7842 24.9646C19.4379 26.293 20.7498 27.1998 22.1409 27.1998C23.2129 27.1998 24.2849 26.6664 25.0219 25.6664C25.2899 26.5998 25.9599 27.1998 27.0989 27.1998C27.9536 27.1998 29.817 26.3318 31.5066 25.0456L31.3198 25.9997C31.2528 26.2664 31.2528 26.4664 31.2528 26.5997C31.3198 26.9997 31.5878 27.1997 31.9898 27.1997C32.7938 27.1997 33.9328 26.4664 34.2008 25.2664L34.6028 23.5997C35.0718 21.4664 38.2208 18.2664 39.0918 18.2664C39.1588 18.2664 39.2928 18.3331 39.2928 18.4664C39.3194 18.6781 39.1666 19.0788 38.9432 19.6644C38.6038 20.5542 38.1017 21.8709 37.8188 23.5997C37.6848 24.1331 37.6848 24.6664 37.7518 25.0664C37.8858 26.3331 38.6228 27.1997 40.0298 27.1997C41.2339 27.1997 43.8444 26.177 45.6741 24.1316C45.812 25.2419 46.048 26.1863 46.3948 26.7998C46.5288 27.0664 46.8638 27.1331 47.1988 27.1331C47.6008 27.1331 48.1368 26.9998 48.7398 26.6664C50.1468 25.9331 51.9558 24.1998 53.6978 21.6664C53.9658 21.7331 54.1668 21.7331 54.3678 21.7331C55.063 21.7331 55.84 21.489 56.5614 21.057C56.2616 21.9579 56.1447 22.8779 56.2439 23.7331C56.5119 25.7331 58.1869 27.2664 59.9959 27.2664C61.0009 27.2664 62.0729 26.6664 62.8099 25.7331C63.0779 26.9997 63.8819 28.3331 65.8919 29.1331C66.0259 29.1997 66.1599 29.1997 66.2939 29.1997C66.6959 29.1997 66.9639 28.9331 66.8969 28.5997C66.8969 28.4664 66.8299 28.2664 66.6289 28.1331C66.1599 27.7331 65.6239 26.9997 65.4899 25.8664C65.4229 25.3331 65.4229 24.6664 65.7579 23.9997C66.1599 22.1997 66.2269 21.6664 66.2269 21.4664C66.1599 20.9997 65.8249 20.7997 65.4229 20.7997C64.6189 20.7997 63.4799 21.5997 63.2119 22.7331C62.7429 24.4664 61.5369 25.5997 60.7329 25.5997C59.7279 25.5997 59.1919 24.5331 59.0579 23.3997C58.7229 20.5997 60.4649 17.1997 63.0779 17.1997C63.8149 17.1997 64.6859 17.4664 64.7529 18.2664C64.8352 19.0037 64.3863 19.1873 64.0435 19.3276C63.8284 19.4156 63.655 19.4865 63.6809 19.6664C63.7479 20.1997 64.6189 20.3331 65.2219 20.3331C65.7579 20.3331 67.4999 19.9331 67.2319 17.9997C67.0309 16.4664 65.3559 15.7331 63.4799 15.7331C61.2404 15.7331 59.3344 16.8614 58.0364 18.4226C57.8569 18.528 57.6675 18.7165 57.4498 18.9331C57.0478 19.3998 56.2438 19.8664 55.2388 19.8664C55.1048 19.8664 54.8368 19.7998 54.8368 19.7998C55.5068 18.5331 55.9758 17.1998 55.9758 16.0664C55.9758 14.1998 54.8368 13.2664 53.5638 13.2664C51.9558 13.2664 50.2808 14.6664 50.2808 17.4664C50.2808 19.1331 50.9508 20.4664 52.0898 21.1998C50.7498 23.3331 48.9408 25.1331 48.6728 25.1331C48.5803 25.1331 48.5517 25.0378 48.5208 24.9349C48.5069 24.8887 48.4926 24.8411 48.4718 24.7998C48.2708 24.0664 48.0698 22.5998 48.0698 21.7331C48.0698 20.1331 48.3378 18.5331 48.9408 16.8664C49.0078 16.6664 49.0748 16.4664 49.0748 16.3331C49.0748 15.8664 48.7398 15.6664 48.3378 15.6664C47.5338 15.6664 46.2608 16.5998 45.9258 17.5998C45.6578 18.5331 45.5238 19.8664 45.5238 21.4664C45.5238 21.7599 45.5286 22.0509 45.5383 22.3375C43.9393 24.4822 41.9663 25.1997 41.3698 25.1997C40.6328 25.1997 40.4988 24.5331 40.6328 24.2664C41.1018 22.3331 41.7048 20.1331 42.2408 18.5997C42.5088 17.8664 42.6428 17.1997 42.5758 16.7997C42.4418 16.0664 41.9728 15.7331 41.3028 15.7331C39.6948 15.7331 37.1488 17.3331 35.4738 19.5331L36.0098 17.1331C36.0768 16.8664 36.0768 16.6664 36.0768 16.5331C36.0098 16.0664 35.7418 15.8664 35.3398 15.8664C33.4638 15.8664 33.1288 16.7997 32.9278 17.7331C32.889 17.9647 32.3558 20.7009 31.9139 22.9628C30.4841 24.2684 28.8822 25.1331 28.4389 25.1331C27.9029 25.1331 27.7019 24.7331 27.7019 24.3998C27.7019 24.1695 27.835 23.5418 27.9609 22.9487C28.0536 22.5114 28.1424 22.0928 28.1709 21.8664C28.2379 21.5998 28.2379 21.3998 28.2379 21.2664C28.1709 20.8664 27.8359 20.6664 27.4339 20.6664C26.6299 20.6664 25.4909 21.4664 25.2229 22.5998C24.8209 24.3331 23.6149 25.4664 22.8109 25.4664C21.8059 25.4664 21.2699 24.3998 21.1359 23.3331C20.8009 20.9331 22.3419 17.0664 25.1559 17.0664C25.9599 17.0664 26.7639 17.3331 26.8309 18.1331C26.912 18.9 26.5019 19.0804 26.1805 19.2218C25.9711 19.3138 25.7994 19.3894 25.8259 19.5998C25.8929 20.1331 26.7639 20.2664 27.2999 20.2664C27.9029 20.2664 29.5779 19.8664 29.3099 17.9331C29.1089 16.3998 27.5009 15.5998 25.5579 15.5998C21.0516 15.5998 18.0528 20.0348 18.3769 23.5505C17.2326 24.883 16.0892 25.6843 14.0338 26.7331C12.8948 27.3331 11.5548 27.6664 10.3488 27.6664C6.59684 27.6664 4.78784 24.2664 4.45284 21.3331C3.51484 13.8664 10.2148 3.53307 14.8378 3.53307C15.9098 3.53307 16.8478 4.46641 17.0488 5.93307C17.3168 8.19974 17.2498 9.79974 14.9048 11.7331C14.6368 11.9331 14.5698 12.2664 14.7038 12.4664C14.9048 12.7331 15.5748 12.7997 16.8478 12.1331C19.3938 10.8664 20.2648 8.93307 19.9968 6.66641C19.7288 4.13307 17.5178 2.06641 14.5698 2.06641C13.0958 2.06641 11.5548 2.46641 10.1478 3.33307C4.05084 7.06641 0.0978411 15.4664 0.834841 21.8664C1.10284 23.9331 1.97384 26.1331 3.58184 27.6664C4.65384 28.6664 6.59684 29.8664 8.94184 29.8664C11.4878 29.8664 13.6318 28.9331 15.5078 27.7331ZM53.1618 18.9331C52.4918 18.1998 51.9558 17.0664 51.9558 15.9998C51.9558 15.3998 52.1568 14.7331 52.6258 14.7331C53.0278 14.7331 53.5638 15.3331 53.5638 16.7331C53.5638 17.4664 53.4298 18.1998 53.1618 18.9331Z" fill="#A8A8A8"/>
</g>
<defs>
<clipPath id="clip0_131423_46832">
<rect width="67" height="32" fill="white" transform="translate(0.5)"/>
</clipPath>
</defs>
</svg>
