<svg width="92" height="32" viewBox="0 0 92 32" fill="none" xmlns="http://www.w3.org/2000/svg">
<g clip-path="url(#clip0_131423_46829)">
<path d="M66.3637 9.36722H64.5758V22.7045H71.8294V21.0483H66.3637V9.36722ZM78.7341 20.3654C78.2834 20.8303 77.5276 21.2952 76.51 21.2952C75.1436 21.2952 74.5912 20.6269 74.5912 19.7407C74.5912 18.4186 75.507 17.7793 77.4694 17.7793C77.8328 17.7793 78.4288 17.8229 78.7341 17.881V20.3654ZM76.888 12.2875C75.4343 12.2875 74.1115 12.796 73.0795 13.6532L73.7191 14.7574C74.4459 14.336 75.3471 13.9002 76.6409 13.9002C78.109 13.9002 78.7631 14.6557 78.7631 15.9196V16.5734C78.4724 16.5153 77.891 16.4717 77.513 16.4717C74.3732 16.4717 72.7888 17.5759 72.7888 19.8714C72.7888 21.9345 74.0534 22.966 75.9722 22.966C77.2659 22.966 78.5015 22.3704 78.923 21.4115L79.2428 22.7191H80.5075V15.8906C80.493 13.7258 79.5481 12.2875 76.888 12.2875ZM86.2784 21.3679C85.6097 21.3679 85.0137 21.2807 84.5631 21.0773V14.9172C85.1736 14.4087 85.9295 14.0454 86.8889 14.0454C88.6187 14.0454 89.2874 15.2659 89.2874 17.2418C89.3019 20.0458 88.2117 21.3679 86.2784 21.3679ZM87.0342 12.2875C85.4353 12.2875 84.5631 13.3771 84.5631 13.3771V11.6482V9.36722H82.8042V22.3849C83.6764 22.7481 84.8829 22.9515 86.1911 22.9515C89.5345 22.9515 91.148 20.8158 91.148 17.1255C91.148 14.2198 89.6653 12.2875 87.0342 12.2875ZM46.8561 10.8201C48.4406 10.8201 49.4727 11.3431 50.1413 11.8807L50.9117 10.544C49.8651 9.62874 48.4406 9.13477 46.9434 9.13477C43.1349 9.13477 40.4602 11.4593 40.4602 16.1376C40.4602 21.0483 43.3384 22.966 46.6381 22.966C48.2952 22.966 49.6907 22.5738 50.6065 22.196L50.5629 16.9512V15.2804H45.6642V16.9367H48.7895L48.8331 20.9175C48.4261 21.1209 47.7138 21.2807 46.7544 21.2807C44.1088 21.2807 42.3354 19.6099 42.3354 16.1085C42.3354 12.549 44.1669 10.8201 46.8561 10.8201ZM59.4736 9.36722H57.7147V11.6046V19.3484C57.7147 21.5132 58.6596 22.9515 61.3197 22.9515C61.6831 22.9515 62.0465 22.9225 62.3954 22.8498V21.2807C62.1482 21.3243 61.8721 21.3388 61.5813 21.3388C60.1132 21.3388 59.459 20.5833 59.459 19.3194V13.9873H62.3954V12.5345H59.459L59.4736 9.36722ZM53.2666 22.7045H55.0255V12.5345H53.2666V22.7045ZM53.2666 11.1252H55.0255V9.36722H53.2666V11.1252Z" fill="#A8A8A8"/>
<path d="M16.4316 30.6666L22.3042 12.6221H10.559L16.4316 30.6666Z" fill="#A8A8A8"/>
<path d="M16.4315 30.6666L10.5589 12.6221H2.34595L16.4315 30.6666Z" fill="#A8A8A8"/>
<path d="M2.3462 12.6221L0.558241 18.0994C0.398342 18.5933 0.572777 19.1454 0.994327 19.4505L16.4173 30.6521L2.3462 12.6221Z" fill="#A8A8A8"/>
<path d="M2.34595 12.6225H10.5734L7.02661 1.75504C6.85217 1.18842 6.05268 1.18842 5.87825 1.75504L2.34595 12.6225Z" fill="#A8A8A8"/>
<path d="M16.4316 30.6666L22.3043 12.6221H30.5318L16.4316 30.6666Z" fill="#A8A8A8"/>
<path d="M30.5175 12.6221L32.3054 18.0994C32.4653 18.5933 32.2909 19.1454 31.8693 19.4505L16.4464 30.6521L30.5175 12.6221Z" fill="#A8A8A8"/>
<path d="M30.5173 12.6223H22.2898L25.8221 1.75489C26.0111 1.2028 26.796 1.2028 26.9705 1.75489L30.5173 12.6223Z" fill="#A8A8A8"/>
</g>
<defs>
<clipPath id="clip0_131423_46829">
<rect width="91" height="32" fill="white" transform="translate(0.5)"/>
</clipPath>
</defs>
</svg>
