<svg width="33" height="32" viewBox="0 0 33 32" fill="none" xmlns="http://www.w3.org/2000/svg">
<path d="M10.9 2.66699H22.1C26.3667 2.66699 29.8333 6.13366 29.8333 10.4003V21.6003C29.8333 23.6513 29.0186 25.6183 27.5683 27.0686C26.118 28.5189 24.151 29.3337 22.1 29.3337H10.9C6.63332 29.3337 3.16666 25.867 3.16666 21.6003V10.4003C3.16666 8.34932 3.98142 6.38231 5.4317 4.93203C6.88198 3.48175 8.84898 2.66699 10.9 2.66699ZM10.6333 5.33366C9.36028 5.33366 8.13939 5.83937 7.23921 6.73955C6.33904 7.63972 5.83332 8.86062 5.83332 10.1337V21.867C5.83332 24.5203 7.97999 26.667 10.6333 26.667H22.3667C23.6397 26.667 24.8606 26.1613 25.7608 25.2611C26.6609 24.3609 27.1667 23.14 27.1667 21.867V10.1337C27.1667 7.48033 25.02 5.33366 22.3667 5.33366H10.6333ZM23.5 7.33366C23.942 7.33366 24.3659 7.50925 24.6785 7.82181C24.9911 8.13438 25.1667 8.5583 25.1667 9.00033C25.1667 9.44235 24.9911 9.86628 24.6785 10.1788C24.3659 10.4914 23.942 10.667 23.5 10.667C23.058 10.667 22.634 10.4914 22.3215 10.1788C22.0089 9.86628 21.8333 9.44235 21.8333 9.00033C21.8333 8.5583 22.0089 8.13438 22.3215 7.82181C22.634 7.50925 23.058 7.33366 23.5 7.33366ZM16.5 9.33366C18.2681 9.33366 19.9638 10.036 21.214 11.2863C22.4643 12.5365 23.1667 14.2322 23.1667 16.0003C23.1667 17.7684 22.4643 19.4641 21.214 20.7144C19.9638 21.9646 18.2681 22.667 16.5 22.667C14.7319 22.667 13.0362 21.9646 11.7859 20.7144C10.5357 19.4641 9.83332 17.7684 9.83332 16.0003C9.83332 14.2322 10.5357 12.5365 11.7859 11.2863C13.0362 10.036 14.7319 9.33366 16.5 9.33366ZM16.5 12.0003C15.4391 12.0003 14.4217 12.4218 13.6716 13.1719C12.9214 13.922 12.5 14.9395 12.5 16.0003C12.5 17.0612 12.9214 18.0786 13.6716 18.8288C14.4217 19.5789 15.4391 20.0003 16.5 20.0003C17.5609 20.0003 18.5783 19.5789 19.3284 18.8288C20.0786 18.0786 20.5 17.0612 20.5 16.0003C20.5 14.9395 20.0786 13.922 19.3284 13.1719C18.5783 12.4218 17.5609 12.0003 16.5 12.0003Z" fill="#A8A8A8"/>
</svg>
