<svg width="33" height="32" viewBox="0 0 33 32" fill="none" xmlns="http://www.w3.org/2000/svg">
<path d="M26.1933 7.1064C24.42 6.27974 22.5 5.67974 20.5 5.33307C20.4825 5.33251 20.465 5.3358 20.4489 5.34271C20.4328 5.34962 20.4183 5.35998 20.4067 5.37307C20.1667 5.81307 19.8867 6.3864 19.7 6.8264C17.5787 6.5064 15.4213 6.5064 13.3 6.8264C13.1133 6.37307 12.8333 5.81307 12.58 5.37307C12.5667 5.3464 12.5267 5.33307 12.4867 5.33307C10.4867 5.67974 8.57999 6.27974 6.79333 7.1064C6.77999 7.1064 6.76666 7.11974 6.75333 7.13307C3.12666 12.5597 2.12666 17.8397 2.61999 23.0664C2.61999 23.0931 2.63333 23.1197 2.65999 23.1331C5.05999 24.8931 7.36666 25.9597 9.64666 26.6664C9.68666 26.6797 9.72666 26.6664 9.73999 26.6397C10.2733 25.9064 10.7533 25.1331 11.1667 24.3197C11.1933 24.2664 11.1667 24.2131 11.1133 24.1997C10.3533 23.9064 9.63333 23.5597 8.92666 23.1597C8.87333 23.1331 8.87333 23.0531 8.91333 23.0131C9.05999 22.9064 9.20666 22.7864 9.35333 22.6797C9.37999 22.6531 9.41999 22.6531 9.44666 22.6664C14.0333 24.7597 18.98 24.7597 23.5133 22.6664C23.54 22.6531 23.58 22.6531 23.6067 22.6797C23.7533 22.7997 23.9 22.9064 24.0467 23.0264C24.1 23.0664 24.1 23.1464 24.0333 23.1731C23.34 23.5864 22.6067 23.9197 21.8467 24.2131C21.7933 24.2264 21.78 24.2931 21.7933 24.3331C22.22 25.1464 22.7 25.9197 23.22 26.6531C23.26 26.6664 23.3 26.6797 23.34 26.6664C25.6333 25.9597 27.94 24.8931 30.34 23.1331C30.3667 23.1197 30.38 23.0931 30.38 23.0664C30.9667 17.0264 29.4067 11.7864 26.2467 7.13307C26.2333 7.11974 26.22 7.1064 26.1933 7.1064ZM11.86 19.8797C10.4867 19.8797 9.33999 18.6131 9.33999 17.0531C9.33999 15.4931 10.46 14.2264 11.86 14.2264C13.2733 14.2264 14.3933 15.5064 14.38 17.0531C14.38 18.6131 13.26 19.8797 11.86 19.8797ZM21.1533 19.8797C19.78 19.8797 18.6333 18.6131 18.6333 17.0531C18.6333 15.4931 19.7533 14.2264 21.1533 14.2264C22.5667 14.2264 23.6867 15.5064 23.6733 17.0531C23.6733 18.6131 22.5667 19.8797 21.1533 19.8797Z" fill="#A8A8A8"/>
</svg>
