<svg width="82" height="32" viewBox="0 0 82 32" fill="none" xmlns="http://www.w3.org/2000/svg">
<g clip-path="url(#clip0_131423_46823)">
<path d="M25.8878 21.618L26.8706 19.3303C27.9466 20.1239 29.3502 20.544 30.7541 20.544C31.7835 20.544 32.4385 20.1473 32.4385 19.5405C32.415 17.8597 26.2388 19.1669 26.1918 14.9412C26.1683 12.7935 28.0869 11.1361 30.8011 11.1361C32.415 11.1361 34.0296 11.5331 35.1758 12.4437L34.2574 14.7801C33.2028 14.1048 31.9003 13.634 30.6605 13.634C29.8183 13.634 29.2566 14.0306 29.2566 14.5445C29.2801 16.2019 35.5036 15.2914 35.5737 19.3303C35.5737 21.5247 33.7018 23.0655 31.0346 23.0655C29.0697 23.0655 27.2682 22.5987 25.8875 21.618H25.8878ZM65.0209 18.5019C64.7728 18.9409 64.4119 19.3063 63.9753 19.5605C63.5387 19.8148 63.042 19.9488 62.5362 19.9488C60.9598 19.9488 59.6821 18.6737 59.6821 17.1008C59.6821 15.528 60.9598 14.2528 62.5362 14.2528C63.042 14.2529 63.5387 14.3869 63.9753 14.6411C64.4119 14.8954 64.7728 15.2607 65.0209 15.6997L67.7531 14.1893C66.7298 12.3678 64.7776 11.1361 62.5362 11.1361C59.2348 11.1361 56.5586 13.8064 56.5586 17.1008C56.5586 20.3949 59.2348 23.0655 62.5362 23.0655C64.7776 23.0655 66.7298 21.8338 67.7531 20.0123L65.0209 18.5019ZM37.3467 22.8319H40.7625V6.1709H37.3471L37.3467 22.8319ZM69.4781 6.1709V22.8319H72.8939V17.8403L76.9415 22.8319H81.3075L76.1604 16.902L80.9331 11.3687H76.7543L72.8939 15.969V6.1709H69.4781ZM51.286 11.3694V12.7237C50.7246 11.7897 49.3442 11.1361 47.8937 11.1361C44.899 11.1361 42.5362 13.7743 42.5362 17.0891C42.5362 20.404 44.899 23.0655 47.8937 23.0655C49.3442 23.0655 50.7246 22.4119 51.286 21.4779V22.8319H54.7017V11.3694H51.286ZM51.286 18.525C50.7947 19.342 49.7653 19.9485 48.6191 19.9485C47.0424 19.9485 45.7647 18.6737 45.7647 17.1008C45.7647 15.528 47.0424 14.2528 48.6191 14.2528C49.7653 14.2528 50.7947 14.883 51.286 15.7231V18.525Z" fill="#A8A8A8"/>
<path d="M7.84919 5.80273C6.74225 5.80273 5.84502 6.69827 5.84502 7.80266C5.84476 8.06503 5.89639 8.32489 5.99696 8.56739C6.09754 8.80989 6.24509 9.03028 6.43119 9.21599C6.6173 9.40171 6.83831 9.54909 7.08161 9.64974C7.32491 9.75039 7.58573 9.80233 7.84919 9.80259H9.85369V7.80266C9.85413 7.27275 9.64321 6.76436 9.2673 6.38931C8.89139 6.01426 8.38129 5.80327 7.84919 5.80273V5.80273ZM7.84919 11.1359H2.50441C1.39747 11.1359 0.500244 12.0314 0.500244 13.1361C0.500244 14.2405 1.39747 15.1361 2.50441 15.1361H7.84952C8.95613 15.1361 9.85369 14.2405 9.85369 13.1361C9.85369 12.0314 8.95613 11.1359 7.84919 11.1359" fill="#A8A8A8"/>
<path d="M20.5431 13.1361C20.5431 12.0314 19.6456 11.1359 18.5386 11.1359C17.4317 11.1359 16.5345 12.0314 16.5345 13.1361V15.1361H18.5386C19.0707 15.1355 19.5808 14.9245 19.9568 14.5495C20.3327 14.1744 20.5436 13.666 20.5431 13.1361V13.1361ZM15.1984 13.1361V7.80266C15.1988 7.27275 14.9879 6.76436 14.612 6.38931C14.2361 6.01426 13.726 5.80327 13.1939 5.80273C12.0869 5.80273 11.1897 6.69827 11.1897 7.80266V13.1358C11.1897 14.2409 12.0869 15.1364 13.1939 15.1364C13.726 15.1359 14.2361 14.9249 14.612 14.5498C14.9879 14.1748 15.1988 13.6664 15.1984 13.1365" fill="#A8A8A8"/>
<path d="M13.1941 25.8021C13.7262 25.8015 14.2363 25.5906 14.6122 25.2155C14.9881 24.8405 15.1991 24.3321 15.1986 23.8022C15.1991 23.2722 14.9881 22.7638 14.6122 22.3888C14.2363 22.0138 13.7262 21.8028 13.1941 21.8022H11.1899V23.8022C11.1899 24.9065 12.0872 25.8021 13.1941 25.8021ZM13.1941 20.4689H18.5392C19.6458 20.4689 20.5434 19.5734 20.5434 18.4687C20.5438 17.9388 20.3329 17.4304 19.957 17.0553C19.5811 16.6803 19.071 16.4693 18.5389 16.4688H13.1941C12.0872 16.4688 11.1899 17.3643 11.1899 18.4687C11.1897 18.731 11.2413 18.9909 11.3419 19.2334C11.4425 19.4759 11.59 19.6963 11.7761 19.882C11.9622 20.0677 12.1832 20.2151 12.4265 20.3158C12.6698 20.4164 12.9307 20.4683 13.1941 20.4686" fill="#A8A8A8"/>
<path d="M0.500001 18.4687C0.499736 18.731 0.551366 18.9909 0.651942 19.2334C0.752517 19.4759 0.900069 19.6963 1.08617 19.882C1.27228 20.0677 1.49329 20.2151 1.73659 20.3158C1.97989 20.4164 2.24071 20.4683 2.50417 20.4686C3.03627 20.4681 3.54637 20.2571 3.92228 19.882C4.29819 19.507 4.50911 18.9986 4.50867 18.4687V16.4688H2.50417C1.39723 16.4688 0.500001 17.3643 0.500001 18.4687V18.4687ZM5.84478 18.4687V23.8018C5.84478 24.9065 6.74201 25.8021 7.84894 25.8021C8.38105 25.8015 8.89115 25.5906 9.26705 25.2155C9.64296 24.8405 9.85389 24.3321 9.85344 23.8022V18.4687C9.85371 18.2063 9.80207 17.9464 9.70147 17.7039C9.60088 17.4614 9.45329 17.2409 9.26715 17.0552C9.08101 16.8695 8.85996 16.7221 8.61662 16.6215C8.37329 16.5209 8.11243 16.469 7.84894 16.4688C6.74201 16.4688 5.84478 17.3643 5.84478 18.4687Z" fill="#A8A8A8"/>
</g>
<defs>
<clipPath id="clip0_131423_46823">
<rect width="81" height="32" fill="white" transform="translate(0.5)"/>
</clipPath>
</defs>
</svg>
