<svg width="33" height="32" viewBox="0 0 33 32" fill="none" xmlns="http://www.w3.org/2000/svg">
<g clip-path="url(#clip0_131423_46844)">
<path d="M16.5093 32H16.0333L19.312 23.0067H23.8187C24.6053 23.0067 25.4667 22.4013 25.7413 21.6507L29.2947 11.9067C29.8813 10.312 28.9653 9.012 27.2613 9.012H20.9973L15.7573 23.4093L12.7907 31.5787C9.28881 30.7453 6.17049 28.755 3.94008 25.9296C1.70968 23.1042 0.497638 19.609 0.500003 16.0093C0.500003 8.664 5.44667 2.47333 12.1867 0.586667L9.12667 9.012L4.03334 23.0067H7.42267L11.764 11.1187H14.3107L9.96934 23.0067H13.3573L17.3867 11.9067C17.9733 10.3133 17.0573 9.01333 15.3533 9.01333H12.4973L15.7773 0.0186667C16.0133 0 16.252 0 16.4893 0C25.3373 0 32.5 7.16267 32.5 16.0093C32.5187 24.8387 25.356 32 16.5093 32ZM26.1987 11.1H23.652L20.0813 20.8813H22.628L26.1987 11.1Z" fill="#A8A8A8"/>
</g>
<defs>
<clipPath id="clip0_131423_46844">
<rect width="32" height="32" fill="white" transform="translate(0.5)"/>
</clipPath>
</defs>
</svg>
