<svg width="150" height="32" viewBox="0 0 150 32" fill="none" xmlns="http://www.w3.org/2000/svg">
<g clip-path="url(#clip0_131423_46822)">
<path d="M149.5 14.3852V11.7656H146.246V7.69342L146.136 7.72688L143.08 8.66186L143.02 8.68019V11.7656H138.196V10.0469C138.196 9.24659 138.375 8.63393 138.728 8.22579C139.078 7.82201 139.579 7.61692 140.218 7.61692C140.678 7.61692 141.154 7.72513 141.633 7.93837L141.753 7.9919V5.2335L141.696 5.21313C141.249 5.05226 140.642 4.97168 139.889 4.97168C138.94 4.97168 138.077 5.17793 137.325 5.58724C136.584 5.98574 135.973 6.58931 135.566 7.32572C135.153 8.0687 134.943 8.92659 134.943 9.87612V11.7659H132.677V14.3855H134.943V25.4206H138.196V14.3852H143.02V21.3979C143.02 24.286 144.382 25.7499 147.07 25.7499C147.535 25.7472 147.998 25.6957 148.451 25.5963C148.935 25.4924 149.263 25.3886 149.457 25.2777L149.5 25.2524V22.6086L149.368 22.6962C149.191 22.814 148.971 22.91 148.714 22.9813C148.455 23.054 148.238 23.0907 148.071 23.0907C147.441 23.0907 146.976 22.9211 146.686 22.5862C146.394 22.2488 146.246 21.6579 146.246 20.8318V14.3852H149.5ZM125.413 23.091C124.233 23.091 123.302 22.6994 122.646 21.9288C121.986 21.1538 121.651 20.0495 121.651 18.6459C121.651 17.198 121.986 16.0649 122.646 15.2763C123.302 14.4931 124.224 14.0955 125.387 14.0955C126.514 14.0955 127.412 14.4751 128.055 15.2248C128.702 15.9779 129.03 17.102 129.03 18.5667C129.03 20.0495 128.721 21.1887 128.113 21.9506C127.509 22.707 126.601 23.091 125.413 23.091ZM125.558 11.4366C123.306 11.4366 121.516 12.0963 120.241 13.3976C118.966 14.6991 118.32 16.4998 118.32 18.7509C118.32 20.8888 118.951 22.6083 120.195 23.8613C121.44 25.1145 123.133 25.7493 125.228 25.7493C127.412 25.7493 129.165 25.0805 130.44 23.7612C131.715 22.4434 132.361 20.6595 132.361 18.4608C132.361 16.2898 131.755 14.5574 130.559 13.3129C129.363 12.0678 127.68 11.4366 125.558 11.4366ZM113.075 11.4366C111.543 11.4366 110.276 11.8284 109.308 12.6008C108.334 13.3778 107.84 14.3971 107.84 15.6303C107.84 16.2712 107.946 16.8405 108.156 17.3234C108.367 17.808 108.694 18.2345 109.128 18.5926C109.559 18.9478 110.224 19.3199 111.105 19.6981C111.846 20.003 112.399 20.261 112.75 20.464C113.093 20.6633 113.336 20.8635 113.474 21.0584C113.607 21.2489 113.675 21.5102 113.675 21.8322C113.675 22.7497 112.988 23.196 111.574 23.196C111.049 23.196 110.451 23.0866 109.796 22.8707C109.145 22.6581 108.531 22.3467 107.975 21.9477L107.84 21.8511V24.9813L107.889 25.0046C108.349 25.2169 108.93 25.3958 109.614 25.5369C110.296 25.6777 110.916 25.7496 111.455 25.7496C113.118 25.7496 114.457 25.356 115.433 24.579C116.417 23.7964 116.915 22.7535 116.915 21.4773C116.915 20.5571 116.647 19.7676 116.118 19.1311C115.593 18.4998 114.682 17.92 113.411 17.4078C112.398 17.0014 111.749 16.6642 111.481 16.4053C111.223 16.1551 111.092 15.8014 111.092 15.3536C111.092 14.9563 111.254 14.6383 111.586 14.3806C111.921 14.1216 112.386 13.9899 112.97 13.9899C113.512 13.9899 114.067 14.0754 114.618 14.243C115.169 14.4108 115.653 14.6357 116.057 14.9103L116.19 15.0011V12.0315L116.139 12.0096C115.767 11.8496 115.275 11.7129 114.678 11.6024C114.083 11.4924 113.544 11.4366 113.075 11.4366ZM99.3597 23.091C98.1794 23.091 97.2484 22.6994 96.5924 21.9288C95.9324 21.1538 95.5986 20.0495 95.5986 18.6459C95.5986 17.198 95.9327 16.0649 96.5933 15.2763C97.249 14.4931 98.1706 14.0955 99.3335 14.0955C100.461 14.0955 101.359 14.4751 102.002 15.2248C102.648 15.9779 102.976 17.102 102.976 18.5667C102.976 20.0495 102.668 21.1887 102.06 21.9506C101.456 22.707 100.548 23.091 99.3597 23.091ZM99.5049 11.4366C97.2519 11.4366 95.4627 12.0963 94.1881 13.3976C92.9134 14.6991 92.2665 16.4998 92.2665 18.7509C92.2665 20.8896 92.898 22.6083 94.1421 23.8613C95.3865 25.1145 97.0799 25.7493 99.1755 25.7493C101.358 25.7493 103.112 25.0805 104.388 23.7612C105.662 22.4434 106.308 20.6595 106.308 18.4608C106.308 16.2898 105.702 14.5574 104.506 13.3129C103.309 12.0678 101.626 11.4366 99.5049 11.4366ZM87.3288 14.1304V11.7656H84.1157V25.42H87.3285V18.435C87.3285 17.2472 87.598 16.2715 88.1297 15.5346C88.6544 14.8064 89.354 14.4373 90.2076 14.4373C90.4971 14.4373 90.8219 14.485 91.1737 14.5795C91.5221 14.6732 91.7744 14.775 91.9231 14.8821L92.0581 14.9801V11.7423L92.0057 11.7199C91.7069 11.5928 91.2835 11.5288 90.748 11.5288C89.9404 11.5288 89.2178 11.788 88.5991 12.2985C88.0558 12.7474 87.6629 13.363 87.3629 14.1304H87.3288ZM78.3618 11.4366C76.8878 11.4366 75.5727 11.7528 74.4543 12.3756C73.3339 12.9996 72.467 13.8912 71.8774 15.0243C71.2904 16.1551 70.9924 17.4758 70.9924 18.9487C70.9924 20.2386 71.2814 21.4226 71.8523 22.4658C72.4239 23.511 73.2329 24.3288 74.2567 24.896C75.2793 25.4624 76.4611 25.7496 77.7693 25.7496C79.2962 25.7496 80.6 25.4444 81.6456 24.8428L81.6875 24.8184V21.8758L81.5528 21.9744C81.0718 22.3229 80.5421 22.5985 79.9807 22.7925C79.4126 22.9906 78.8952 23.0907 78.4412 23.0907C77.1803 23.0907 76.1684 22.6965 75.4336 21.9192C74.6973 21.1404 74.3239 20.0475 74.3239 18.6718C74.3239 17.2876 74.7133 16.1664 75.4804 15.3388C76.2455 14.5141 77.2594 14.0958 78.4942 14.0958C79.5503 14.0958 80.5793 14.4533 81.5528 15.1593L81.6875 15.2571V12.1566L81.6441 12.1321C81.2775 11.927 80.7781 11.7577 80.1576 11.6294C79.5401 11.5014 78.9359 11.4366 78.3618 11.4366ZM68.7795 11.7656H65.5661V25.42H68.7795V11.7656ZM67.2057 5.94884C66.6769 5.94884 66.2157 6.12892 65.8368 6.48528C65.4561 6.8431 65.2629 7.29342 65.2629 7.82462C65.2629 8.34768 65.4538 8.78957 65.8303 9.13779C66.2049 9.48484 66.6676 9.66084 67.2057 9.66084C67.7435 9.66084 68.2079 9.48484 68.5868 9.13837C68.9681 8.78957 69.1616 8.34768 69.1616 7.82462C69.1616 7.31204 68.9733 6.86608 68.6026 6.49983C68.2321 6.13415 67.7618 5.94884 67.2057 5.94884ZM59.1888 10.7584V25.4197H62.468V6.36688H57.9296L52.1608 20.5187L46.5628 6.36688H41.8396V25.42H44.9212V10.757H45.0271L50.9385 25.42H53.2637L59.0829 10.7582L59.1888 10.7584Z" fill="#A8A8A8"/>
<path d="M15.6151 15.1095H0.5V0H15.6151V15.1095Z" fill="#A8A8A8"/>
<path d="M32.3043 15.1095H17.1892V0H32.3043V15.1095Z" fill="#A8A8A8"/>
<path d="M15.6148 31.798H0.5V16.6885H15.6148V31.798Z" fill="#A8A8A8"/>
<path d="M32.3043 31.798H17.1892V16.6885H32.3043V31.798Z" fill="#A8A8A8"/>
</g>
<defs>
<clipPath id="clip0_131423_46822">
<rect width="149" height="32" fill="white" transform="translate(0.5)"/>
</clipPath>
</defs>
</svg>
