<svg width="110" height="32" viewBox="0 0 110 32" fill="none" xmlns="http://www.w3.org/2000/svg">
<g clip-path="url(#clip0_131423_46826)">
<path d="M30.6256 9.34206H35.7226C38.9721 9.34206 41.6565 11.2165 41.6565 15.4961V16.3954C41.6565 20.7076 39.146 22.647 35.8204 22.647H30.6256V9.34206ZM33.473 11.7582V20.22H35.6574C37.505 20.22 38.7439 19.0174 38.7439 16.3412V15.637C38.7439 12.9608 37.4397 11.7582 35.5596 11.7582H33.473ZM43.1671 11.8882H45.4493L45.8188 14.391C46.2536 12.69 47.3621 11.7798 49.3726 11.7798H50.079V14.651H48.9053C46.5905 14.651 46.0253 15.4528 46.0253 17.728V22.6795H43.2106V11.8882H43.1671ZM50.6442 17.5005V17.1971C50.6442 13.5892 52.959 11.6173 56.1107 11.6173C59.3276 11.6173 61.5772 13.5892 61.5772 17.1971V17.5005C61.5772 21.0434 59.3928 22.9503 56.1107 22.9503C52.6221 22.9178 50.6442 21.0543 50.6442 17.5005ZM58.6972 17.468V17.1971C58.6972 15.1927 57.6865 13.9901 56.0781 13.9901C54.5022 13.9901 53.4589 15.0952 53.4589 17.1971V17.468C53.4589 19.4074 54.4696 20.5125 56.0781 20.5125C57.6865 20.48 58.6972 19.4074 58.6972 17.468ZM63.0552 11.8882H65.4027L65.6744 13.9251C66.2395 12.5599 67.4458 11.6173 69.2282 11.6173C71.9777 11.6173 73.7927 13.5892 73.7927 17.2405V17.5439C73.7927 21.0868 71.7821 22.9612 69.2282 22.9612C67.5219 22.9612 66.3482 22.1919 65.7722 20.9568V26.4066H63.0226L63.0552 11.8882ZM70.9344 17.468V17.2297C70.9344 15.0844 69.8259 14.0226 68.3479 14.0226C66.772 14.0226 65.7287 15.2253 65.7287 17.2297V17.4355C65.7287 19.3424 66.7394 20.545 68.3153 20.545C69.9346 20.5125 70.9344 19.4833 70.9344 17.468ZM77.955 20.6859L77.7159 22.6578H75.3033V8.28027H78.0529V13.7951C78.6614 12.3866 79.8678 11.6173 81.574 11.6173C84.1606 11.6498 86.0733 13.4267 86.0733 17.0021V17.338C86.0733 20.9134 84.2584 22.9612 81.5088 22.9612C79.6939 22.9178 78.5202 22.0836 77.955 20.6859ZM83.1825 17.338V17.0671C83.1825 15.0952 82.1066 13.9901 80.5959 13.9901C79.0527 13.9901 77.9768 15.2253 77.9768 17.0996V17.338C77.9768 19.3424 79.0201 20.5125 80.5633 20.5125C82.2152 20.5125 83.1825 19.4833 83.1825 17.338ZM87.2796 17.5005V17.1971C87.2796 13.5892 89.5945 11.6173 92.7462 11.6173C95.9631 11.6173 98.2127 13.5892 98.2127 17.1971V17.5005C98.2127 21.0434 95.9957 22.9503 92.7462 22.9503C89.2576 22.9178 87.2796 21.0543 87.2796 17.5005ZM95.3545 17.468V17.1971C95.3545 15.1927 94.3437 13.9901 92.7353 13.9901C91.1595 13.9901 90.1162 15.0952 90.1162 17.1971V17.468C90.1162 19.4074 91.1269 20.5125 92.7353 20.5125C94.3546 20.48 95.3545 19.4074 95.3545 17.468ZM101.897 17.0671L98.104 11.8882H101.353L103.538 15.1277L105.755 11.8882H108.972L105.125 17.0346L109.178 22.6578H105.994L103.516 19.0824L101.104 22.6578H97.778L101.897 17.0671Z" fill="#A8A8A8"/>
<path d="M13.1067 9.34181L6.80335 13.3506L13.1067 17.3594L6.80335 21.3682L0.5 17.3377L6.80335 13.3289L0.5 9.34181L6.80335 5.33301L13.1067 9.34181ZM6.77074 22.6575L13.0741 18.6487L19.3774 22.6575L13.0741 26.6663L6.77074 22.6575ZM13.1067 17.3377L19.41 13.3289L13.1067 9.34181L19.3774 5.33301L25.6808 9.34181L19.3774 13.3506L25.6808 17.3594L19.3774 21.3682L13.1067 17.3377Z" fill="#A8A8A8"/>
</g>
<defs>
<clipPath id="clip0_131423_46826">
<rect width="109" height="32" fill="white" transform="translate(0.5)"/>
</clipPath>
</defs>
</svg>
