<svg width="33" height="32" viewBox="0 0 33 32" fill="none" xmlns="http://www.w3.org/2000/svg">
<g clip-path="url(#clip0_131423_46854)">
<path d="M32.372 14.3843V12.6963H26.164C24.868 12.6963 24.284 13.4963 24.188 14.2723V14.2963V12.6963H22.364V14.3843H24.18H32.372ZM24.18 14.9923L22.356 14.8883V16.8323C22.356 17.4403 22.052 17.6243 20.996 17.6243H19.54C18.668 17.6243 18.3 17.3763 18.3 16.8323V14.7043L16.452 14.5683V16.9843H16.412C16.308 16.2803 16.044 15.4643 14.284 15.3443L8.5 14.9603C8.5 15.8483 9.132 16.3763 10.124 16.4803L14.156 16.8883C14.476 16.9123 14.708 17.0083 14.708 17.2723C14.708 17.5603 14.468 17.5923 14.1 17.5923H8.428V14.9603L6.58 14.8403V19.3043H14.108C15.788 19.3043 16.324 18.4323 16.404 17.7043H16.444C16.652 18.8563 17.66 19.3043 19.364 19.3043H21.244C23.236 19.3043 24.18 18.6963 24.18 17.2723V14.9923ZM30.044 15.3363L24.26 14.9923C24.26 15.8803 24.844 16.4723 25.836 16.5523L29.956 16.8723C30.276 16.8963 30.468 16.9763 30.468 17.2403C30.468 17.4883 30.244 17.5843 29.78 17.5843H24.164V19.3043H29.9C31.708 19.3043 32.5 18.6723 32.5 17.2323C32.5 15.9363 31.788 15.4483 30.044 15.3363ZM16.452 12.6963H18.3V14.3843H16.452V12.6963ZM5.564 14.7603L3.556 14.5603L0.5 19.3043H2.748L5.564 14.7603ZM16.116 12.6963H10.476C9.164 12.6963 8.588 13.5123 8.452 14.2963V12.6963H5.324C4.884 12.6963 4.676 12.8323 4.468 13.1363L3.604 14.3843H16.116V12.6963Z" fill="#A8A8A8"/>
</g>
<defs>
<clipPath id="clip0_131423_46854">
<rect width="32" height="32" fill="white" transform="translate(0.5)"/>
</clipPath>
</defs>
</svg>
