<svg width="33" height="32" viewBox="0 0 33 32" fill="none" xmlns="http://www.w3.org/2000/svg">
<g clip-path="url(#clip0_131423_46852)">
<path d="M16.5 10.9813C8.32933 10.9813 1.70667 13.24 1.70667 16.0027C1.70667 18.7653 8.32933 21.0227 16.5 21.0227C24.6693 21.0227 31.292 18.7653 31.292 16.0027C31.292 13.2387 24.6693 10.9813 16.5 10.9813ZM8.90267 19.3013C8.028 19.308 7.25867 18.768 7.16933 17.8333C7.11856 17.3463 7.25913 16.8586 7.56133 16.4733C7.82133 16.1347 8.26133 15.8533 8.63333 15.784C8.75333 15.7613 8.91733 15.776 8.98533 15.856C9.09067 15.98 9.06 16.1147 8.95467 16.168C8.67067 16.3133 8.328 16.5613 8.15867 16.9013C8.0811 17.0455 8.04434 17.2081 8.05232 17.3716C8.06031 17.5352 8.11275 17.6934 8.204 17.8293C8.55467 18.3587 9.53333 18.3733 10.4427 17.5293C10.668 17.3213 10.8693 17.124 11.0733 16.8893C11.4733 16.4307 11.6067 16.2627 12.14 15.524C12.1467 15.516 12.148 15.5053 12.1453 15.5C12.1413 15.4907 12.1333 15.4867 12.1187 15.4867C11.7627 15.496 11.452 15.6027 11.152 15.8267C11.0653 15.8907 10.94 15.8813 10.8853 15.7987C10.824 15.7053 10.868 15.5813 10.968 15.512C11.452 15.1747 11.9813 15.1147 12.5227 15.0227C12.5227 15.0227 12.56 15.0253 12.5907 14.9827C12.8133 14.6987 12.98 14.4427 13.2173 14.1547C13.4547 13.8613 13.764 13.5947 13.9987 13.392C14.3267 13.1093 14.5373 13.0147 14.7507 12.8987C14.808 12.8693 14.744 12.8333 14.7267 12.8333C13.532 12.6093 12.2907 12.3187 11.104 12.7587C10.2827 13.0653 9.92133 13.716 10.0947 14.152C10.2187 14.46 10.624 14.512 11.0053 14.3253C11.3369 14.1609 11.6183 13.9104 11.82 13.6C11.936 13.4213 12.18 13.5493 12.048 13.86C11.7013 14.6747 11.0387 15.3227 10.2307 15.3507C9.54267 15.372 9.09867 14.8667 9.1 14.2427C9.10267 13.0107 10.4733 12.2 11.9133 12.08C13.648 11.936 15.2907 12.3987 17.0133 12.6067C18.332 12.7667 19.5973 12.7707 20.9227 12.4653C21.08 12.432 21.1893 12.532 21.18 12.6893C21.1667 12.9187 20.9893 13.1387 20.5533 13.3773C20.056 13.6493 19.536 13.732 18.9933 13.7373C17.6813 13.748 16.4587 13.236 15.1933 12.9613C15.196 13.016 15.2093 13.0827 15.1627 13.1173C14.4627 13.6347 13.8293 14.16 13.4053 14.896C13.3907 14.9133 13.3987 14.9293 13.4227 14.928C13.792 14.908 14.1227 14.8987 14.4667 14.872C14.5267 14.8667 14.5293 14.852 14.524 14.808C14.5052 14.6717 14.5196 14.5328 14.566 14.4033C14.6124 14.2737 14.6895 14.1573 14.7907 14.064C15.02 13.86 15.3067 13.8373 15.4973 13.984C15.7107 14.152 15.6933 14.4547 15.5747 14.6813C15.5218 14.7809 15.4495 14.8688 15.362 14.9398C15.2745 15.0108 15.1736 15.0635 15.0653 15.0947C15.0653 15.0947 15.0253 15.1027 15.0307 15.14C15.0387 15.1973 15.2973 15.3413 15.32 15.38C15.3427 15.416 15.3307 15.4733 15.292 15.516C15.2766 15.5347 15.2573 15.5498 15.2354 15.5602C15.2135 15.5706 15.1896 15.576 15.1653 15.576C15.1213 15.576 15.0947 15.56 15.0373 15.5293C14.9001 15.4566 14.7779 15.3584 14.6773 15.24C14.6453 15.1987 14.628 15.1973 14.5453 15.2013C14.1733 15.224 13.5933 15.28 13.2 15.3293C13.1053 15.34 13.0907 15.3587 13.072 15.392C12.4453 16.4253 11.776 17.5387 11.0413 18.2853C10.252 19.0853 9.59733 19.296 8.90267 19.3013ZM25.9 14.28C25.7787 14.4907 23.4347 18.0587 23.2867 18.4267C23.24 18.544 23.2333 18.6333 23.2813 18.6987C23.404 18.864 23.6773 18.7667 23.848 18.648C24.356 18.2987 24.708 17.8747 25.0973 17.504C25.12 17.4867 25.1587 17.48 25.184 17.504C25.2413 17.5573 25.3253 17.6253 25.384 17.6867C25.3892 17.6915 25.3934 17.6972 25.3964 17.7037C25.3994 17.7101 25.401 17.717 25.4013 17.7241C25.4015 17.7312 25.4003 17.7382 25.3978 17.7449C25.3953 17.7515 25.3915 17.7575 25.3867 17.7627C25.0305 18.2104 24.6263 18.6177 24.1813 18.9773C23.5547 19.4627 22.9293 19.5867 22.6187 19.276C22.5091 19.1617 22.4431 19.0126 22.432 18.8547C22.4293 18.7787 22.3907 18.7747 22.3547 18.8093C21.984 19.176 21.3413 19.5813 20.7573 19.292C20.2693 19.052 20.156 18.468 20.2467 17.9773C20.248 17.9667 20.2387 17.8973 20.1787 17.9373C20.0556 18.0268 19.921 18.0995 19.7787 18.1533C19.6256 18.2232 19.4589 18.2583 19.2907 18.256C19.1697 18.2574 19.0504 18.2269 18.9449 18.1677C18.8394 18.1085 18.7512 18.0226 18.6893 17.9187C18.6106 17.7768 18.5672 17.6181 18.5627 17.456C18.5613 17.4413 18.54 17.4133 18.5187 17.4493C18.1187 18.0587 17.7467 18.648 17.352 19.2667C17.3307 19.296 17.312 19.3147 17.272 19.316L16.4893 19.3173C16.4413 19.3173 16.4187 19.28 16.444 19.2333C16.5827 18.9667 17.3427 17.86 17.8573 16.9187C18 16.66 17.9707 16.5267 17.8827 16.4693C17.772 16.3973 17.552 16.5053 17.3667 16.6467C16.8613 17.0293 16.4373 17.6267 16.2213 17.8933C16.0947 18.0493 15.9747 18.2813 15.644 18.64C15.1227 19.2067 14.4307 19.532 13.7667 19.3067C13.5913 19.2472 13.4332 19.1456 13.3062 19.0108C13.1793 18.876 13.0874 18.712 13.0387 18.5333C13.0187 18.464 12.98 18.4453 12.9413 18.4907C12.8347 18.624 12.6147 18.8227 12.4307 18.9467C12.4107 18.9613 12.3613 18.9907 12.3187 18.9693C12.2384 18.8914 12.1701 18.802 12.116 18.704C12.108 18.6862 12.1057 18.6664 12.1095 18.6472C12.1133 18.6281 12.1231 18.6107 12.1373 18.5973C12.4 18.3667 12.544 18.236 12.6587 18.0907C12.744 17.984 12.8093 17.864 12.8853 17.6707C13.0453 17.268 13.4093 16.516 14.136 16.1267C14.4045 15.9747 14.6996 15.8755 15.0053 15.8347C15.1387 15.8213 15.2493 15.8373 15.2893 15.9413C15.304 15.9853 15.3413 16.0813 15.364 16.152C15.3787 16.1947 15.368 16.228 15.3173 16.2467C14.8907 16.4093 14.46 16.6613 14.164 17.06C13.8267 17.5107 13.736 18.0547 13.9613 18.3667C14.1253 18.5933 14.3907 18.6333 14.6467 18.552C15.0333 18.4293 15.364 18.068 15.5347 17.668C15.7187 17.2293 15.748 16.712 15.612 16.256C15.5907 16.1773 15.6107 16.1173 15.6613 16.0747C15.764 15.9907 15.9067 15.9253 15.948 15.904C15.9887 15.8822 16.036 15.8763 16.0809 15.8874C16.1257 15.8985 16.1648 15.9258 16.1907 15.964C16.332 16.1733 16.408 16.468 16.4173 16.7733C16.4253 16.8387 16.452 16.84 16.484 16.8067C16.7373 16.5373 16.972 16.2493 17.2413 16.0333C17.488 15.8373 17.804 15.6773 18.0987 15.684C18.48 15.692 18.6693 15.9507 18.6573 16.412C18.656 16.4707 18.6973 16.4653 18.7253 16.4267C18.8137 16.2939 18.9216 16.1753 19.0453 16.0747C19.3093 15.8573 19.5787 15.76 19.86 15.7787C20.2067 15.8053 20.484 16.1213 20.4267 16.4813C20.4128 16.5952 20.3715 16.704 20.3062 16.7983C20.2409 16.8926 20.1537 16.9696 20.052 17.0227C19.9665 17.0682 19.8693 17.087 19.773 17.0765C19.6767 17.066 19.5857 17.0268 19.512 16.964C19.4549 16.91 19.4129 16.8418 19.3905 16.7665C19.368 16.6911 19.3658 16.6112 19.384 16.5347C19.3907 16.5013 19.348 16.4707 19.312 16.508C18.9733 16.86 18.948 17.316 19.1693 17.5213C19.4133 17.748 19.78 17.596 20.0467 17.4213C20.5347 17.1027 20.9133 16.6707 21.352 16.3373C21.6427 16.116 21.9747 15.9187 22.3467 15.8693C22.551 15.8381 22.76 15.862 22.952 15.9387C23.2187 16.0467 23.3867 16.272 23.408 16.4667C23.4133 16.524 23.456 16.5307 23.492 16.48C23.7027 16.152 24.832 14.4573 24.9253 14.28C24.952 14.2253 24.984 14.2173 25.044 14.2173H25.852C25.8987 14.2173 25.92 14.244 25.9 14.28ZM22.8067 17.2187C22.7984 17.2352 22.797 17.2544 22.8027 17.272C22.8067 17.2987 22.8427 17.3253 22.8773 17.3387C22.8907 17.3427 22.8973 17.352 22.8827 17.3813C22.7827 17.5947 22.692 17.7173 22.5667 17.9027C22.4559 18.0664 22.3211 18.2125 22.1667 18.336C21.9293 18.532 21.6013 18.7453 21.3293 18.6027C21.2093 18.54 21.156 18.3707 21.16 18.2347C21.1653 17.8507 21.336 17.456 21.652 17.068C22.036 16.5947 22.4613 16.3493 22.74 16.484C23.028 16.6213 22.9373 16.9573 22.8067 17.2187ZM14.8747 14.7107C14.8646 14.6255 14.8754 14.5391 14.9061 14.459C14.9367 14.3789 14.9863 14.3074 15.0507 14.2507C15.1267 14.184 15.228 14.168 15.2907 14.2213C15.36 14.2813 15.3267 14.4307 15.256 14.5333C15.1793 14.6489 15.0632 14.7328 14.9293 14.7693C14.9053 14.7747 14.884 14.764 14.8747 14.7107ZM16.5 10C7.62 10 0.5 12.6627 0.5 16C0.5 19.3173 7.67733 22 16.5 22C25.3227 22 32.5 19.3067 32.5 16C32.5 12.6933 25.3227 10 16.5 10ZM16.5 21.4773C8.032 21.4773 1.16667 19.0267 1.16667 16.0027C1.16667 12.9773 8.03333 10.5267 16.5 10.5267C24.9667 10.5267 31.8307 12.9773 31.8307 16.0027C31.8307 19.0267 24.9667 21.4773 16.5 21.4773Z" fill="#A8A8A8"/>
</g>
<defs>
<clipPath id="clip0_131423_46852">
<rect width="32" height="32" fill="white" transform="translate(0.5)"/>
</clipPath>
</defs>
</svg>
