<svg width="33" height="32" viewBox="0 0 33 32" fill="none" xmlns="http://www.w3.org/2000/svg">
<g clip-path="url(#clip0_131423_46840)">
<path d="M19.064 18.8997C19.064 18.961 19.084 18.9957 19.1187 18.9957C19.1468 18.9919 19.1734 18.9809 19.196 18.9637L29.1693 12.4917C29.3378 12.3737 29.5397 12.313 29.7453 12.3184H31.9373C32.2733 12.3184 32.5 12.5424 32.5 12.8784V17.0637C32.5 17.5704 32.388 17.8637 31.94 18.1317L29.2813 19.7317C29.2549 19.7501 29.2241 19.7611 29.192 19.7637C29.16 19.7637 29.128 19.7384 29.128 19.6464V14.7624C29.128 14.705 29.112 14.6677 29.0733 14.6677C29.0451 14.6709 29.0182 14.682 28.996 14.6997L21.708 19.4344C21.543 19.5467 21.3476 19.6058 21.148 19.6037H16.316C15.9773 19.6037 15.7533 19.3797 15.7533 19.041V13.009C15.7533 12.965 15.7333 12.9237 15.6947 12.9237C15.6669 12.9274 15.6407 12.9385 15.6187 12.9557L10.8093 15.8397C10.7613 15.8717 10.748 15.8944 10.748 15.917C10.748 15.9357 10.7587 15.9557 10.7907 15.9904L14.2267 19.4237C14.272 19.469 14.304 19.5037 14.304 19.5424C14.304 19.5744 14.252 19.5997 14.192 19.5997H11.0867C10.8427 19.5997 10.6547 19.565 10.5227 19.433L8.44 17.353C8.43211 17.3436 8.42236 17.3359 8.41134 17.3304C8.40033 17.3248 8.3883 17.3217 8.376 17.321C8.35334 17.3223 8.33135 17.3292 8.312 17.341L4.832 19.4344C4.66559 19.5462 4.46837 19.603 4.268 19.597H1.06667C0.724 19.5997 0.5 19.373 0.5 19.0384V14.9317C0.5 14.425 0.612 14.1317 1.06267 13.865L3.74 12.2557C3.76078 12.2425 3.78473 12.2351 3.80933 12.2344C3.852 12.2344 3.87333 12.2744 3.87333 12.3677V17.8664C3.87333 17.9237 3.88667 17.9504 3.928 17.9504C3.95675 17.9459 3.9841 17.935 4.008 17.9184L13.0427 12.4797C13.2178 12.3618 13.4265 12.3038 13.6373 12.3144H18.5013C18.8373 12.3144 19.064 12.5384 19.064 12.8744L19.0613 18.8984L19.064 18.8997Z" fill="#A8A8A8"/>
</g>
<defs>
<clipPath id="clip0_131423_46840">
<rect width="32" height="32" fill="white" transform="translate(0.5)"/>
</clipPath>
</defs>
</svg>
