<svg width="121" height="32" viewBox="0 0 121 32" fill="none" xmlns="http://www.w3.org/2000/svg">
<g clip-path="url(#clip0_131423_46833)">
<path fill-rule="evenodd" clip-rule="evenodd" d="M36.8614 22.9194C36.4221 22.752 36.1345 22.3974 36.1345 21.9246C36.1345 21.3523 36.6072 20.8806 37.1824 20.8806C37.3519 20.8806 37.4878 20.914 37.606 20.9643C38.3904 21.326 39.2449 21.5103 40.1087 21.504C41.8688 21.504 42.6971 20.6619 42.6971 19.0427V18.6044C41.9358 19.5154 41.1075 20.0719 39.7374 20.0719C37.6227 20.0719 35.7109 18.5374 35.7109 15.8564V15.8239C35.7109 13.1261 37.6562 11.6093 39.7374 11.6093C41.1409 11.6093 41.9693 12.2002 42.6627 12.9587V12.9409C42.6627 12.2495 43.2379 11.6772 43.949 11.6772C44.6582 11.6772 45.2334 12.2495 45.2334 12.9577V18.7738C45.2334 20.392 44.8453 21.571 44.084 22.3294C43.2379 23.1735 41.9358 23.5438 40.1767 23.5438C39.0414 23.5538 37.9152 23.3417 36.8614 22.9194V22.9194ZM42.6971 15.8573V15.8239C42.6971 14.5927 41.7319 13.7328 40.481 13.7328C39.2301 13.7328 38.2826 14.5927 38.2826 15.8239V15.8573C38.2826 17.1043 39.2301 17.9474 40.481 17.9474C41.7319 17.9474 42.6971 17.0875 42.6971 15.8573V15.8573ZM46.6891 12.9577C46.6891 12.2495 47.2643 11.6772 47.9745 11.6772C48.6856 11.6772 49.2598 12.2495 49.2598 12.9577V13.3615C49.6321 12.4859 50.2408 11.6772 51.0032 11.6772C51.798 11.6772 52.2541 12.1993 52.2541 12.9242C52.2541 13.5979 51.8148 14.0027 51.2898 14.1209C49.9877 14.4252 49.2608 15.419 49.2608 17.2392V19.6326C49.2608 20.3408 48.6856 20.914 47.9745 20.914C47.806 20.9144 47.6391 20.8816 47.4833 20.8175C47.3275 20.7533 47.1858 20.6591 47.0665 20.5402C46.9471 20.4213 46.8523 20.28 46.7876 20.1245C46.7228 19.9689 46.6894 19.8021 46.6891 19.6336V12.9577V12.9577ZM51.9497 18.2173V18.1838C51.9497 16.2109 53.4547 15.3009 55.6039 15.3009C56.5169 15.3009 57.1768 15.4525 57.82 15.6712V15.5195C57.82 14.4587 57.1601 13.8678 55.8747 13.8678C55.273 13.8613 54.6739 13.9467 54.0979 14.1209C53.979 14.1649 53.8533 14.1879 53.7266 14.1888C53.5875 14.1915 53.4494 14.1663 53.3202 14.115C53.191 14.0636 53.0734 13.9869 52.9742 13.8895C52.8749 13.7921 52.7961 13.6759 52.7423 13.5477C52.6885 13.4195 52.6608 13.2819 52.6609 13.1428C52.6609 12.6878 52.9465 12.3007 53.3543 12.148C54.1658 11.8447 55.0454 11.6772 56.246 11.6772C57.6496 11.6772 58.6651 12.0476 59.3073 12.6878C59.9839 13.3615 60.2892 14.3573 60.2892 15.5707V19.6829C60.2892 20.3743 59.7308 20.914 59.0374 20.914C58.2928 20.914 57.8023 20.392 57.8023 19.8523V19.8346C57.1768 20.526 56.315 20.981 55.0621 20.981C53.3543 20.981 51.9497 20.004 51.9497 18.2173V18.2173ZM57.8535 17.6263V17.1722C57.3365 16.9451 56.7772 16.8299 56.2126 16.8344C55.1124 16.8344 54.4367 17.2727 54.4367 18.0823V18.1158C54.4367 18.8073 55.0119 19.2121 55.8403 19.2121C57.0419 19.2121 57.8535 18.5541 57.8535 17.6263ZM61.6593 12.9577C61.6593 12.2495 62.2345 11.6772 62.9456 11.6772C63.6558 11.6772 64.231 12.2495 64.231 12.9577V13.0591C64.822 12.3007 65.6011 11.6093 66.9031 11.6093C68.0871 11.6093 68.9834 12.1313 69.4571 13.0424C70.252 12.1155 71.2005 11.6093 72.4336 11.6093C74.3454 11.6093 75.4968 12.7558 75.4968 14.9305V19.6326C75.4968 20.3408 74.9206 20.914 74.2105 20.914C74.0419 20.9144 73.875 20.8816 73.7191 20.8175C73.5632 20.7534 73.4215 20.6591 73.3021 20.5402C73.1826 20.4213 73.0878 20.2801 73.0229 20.1245C72.9581 19.969 72.9245 19.8022 72.9241 19.6336V15.7726C72.9241 14.5592 72.3824 13.9357 71.4191 13.9357C70.4549 13.9357 69.8629 14.5592 69.8629 15.7726V19.6336C69.8629 20.3408 69.2887 20.914 68.5776 20.914C68.2373 20.9146 67.9109 20.78 67.6698 20.5399C67.4288 20.2998 67.293 19.9738 67.2922 19.6336V15.7726C67.2922 14.5592 66.7505 13.9357 65.7872 13.9357C64.822 13.9357 64.231 14.5592 64.231 15.7726V19.6336C64.231 20.3408 63.6558 20.914 62.9456 20.914C62.7771 20.9146 62.61 20.8818 62.4541 20.8178C62.2982 20.7537 62.1565 20.6595 62.037 20.5405C61.9175 20.4216 61.8227 20.2803 61.7579 20.1247C61.6931 19.9691 61.6596 19.8022 61.6593 19.6336V12.9577V12.9577ZM76.8836 12.9577C76.8836 12.2495 77.4588 11.6772 78.169 11.6772C78.8801 11.6772 79.4553 12.2495 79.4553 12.9577V13.0591C80.0463 12.3007 80.8244 11.6093 82.1274 11.6093C83.3113 11.6093 84.2076 12.1313 84.6814 13.0424C85.4763 12.1155 86.4238 11.6093 87.6579 11.6093C89.5697 11.6093 90.7201 12.7558 90.7201 14.9305V19.6326C90.7201 20.3408 90.1449 20.914 89.4338 20.914C89.0936 20.9146 88.7671 20.78 88.526 20.5399C88.285 20.2998 88.1492 19.9738 88.1484 19.6336V15.7726C88.1484 14.5592 87.6067 13.9357 86.6434 13.9357C85.6782 13.9357 85.0872 14.5592 85.0872 15.7726V19.6336C85.0872 20.3408 84.512 20.914 83.8018 20.914C83.6334 20.9144 83.4664 20.8816 83.3106 20.8175C83.1548 20.7533 83.0132 20.6591 82.8938 20.5402C82.7745 20.4213 82.6797 20.28 82.615 20.1245C82.5502 19.9689 82.5167 19.8021 82.5165 19.6336V15.7726C82.5165 14.5592 81.9748 13.9357 81.0105 13.9357C80.0463 13.9357 79.4543 14.5592 79.4543 15.7726V19.6336C79.4543 20.3408 78.8801 20.914 78.169 20.914C78.0005 20.9144 77.8335 20.8816 77.6777 20.8175C77.5219 20.7533 77.3803 20.6591 77.2609 20.5402C77.1416 20.4213 77.0468 20.28 76.9821 20.1245C76.9173 19.9689 76.8839 19.8021 76.8836 19.6336V12.9577V12.9577ZM91.5662 18.2173V18.1838C91.5662 16.2109 93.0721 15.3009 95.2203 15.3009C95.9746 15.294 96.7244 15.4194 97.4355 15.6712V15.5195C97.4355 14.4587 96.7755 13.8678 95.4902 13.8678C94.78 13.8678 94.2048 13.9692 93.7143 14.1209C93.5954 14.1649 93.4698 14.1879 93.343 14.1888C93.2039 14.1917 93.0656 14.1668 92.9362 14.1155C92.8068 14.0642 92.689 13.9876 92.5897 13.8902C92.4903 13.7928 92.4114 13.6765 92.3576 13.5481C92.3038 13.4198 92.2762 13.282 92.2763 13.1428C92.2763 12.6878 92.5649 12.3007 92.9697 12.148C93.7823 11.8447 94.6618 11.6772 95.8625 11.6772C97.267 11.6772 98.2815 12.0476 98.9237 12.6878C99.6004 13.3615 99.9047 14.3573 99.9047 15.5707V19.6829C99.9047 19.8462 99.8722 20.0079 99.8091 20.1586C99.746 20.3093 99.6536 20.4459 99.5372 20.5605C99.4207 20.6751 99.2827 20.7653 99.131 20.826C98.9794 20.8867 98.8172 20.9167 98.6538 20.914C97.9092 20.914 97.4187 20.392 97.4187 19.8523V19.8346C96.7933 20.526 95.9295 20.981 94.6786 20.981C92.9697 20.981 91.5662 20.004 91.5662 18.2173V18.2173ZM97.4699 17.6263V17.1722C96.9529 16.9451 96.3937 16.83 95.829 16.8344C94.7288 16.8344 94.0532 17.2727 94.0532 18.0823V18.1158C94.0532 18.8073 94.6274 19.2121 95.4567 19.2121C96.6573 19.2121 97.4699 18.5541 97.4699 17.6263ZM101.276 12.9577C101.276 12.2495 101.851 11.6772 102.561 11.6772C103.272 11.6772 103.846 12.2495 103.846 12.9577V13.3615C104.219 12.4859 104.827 11.6772 105.59 11.6772C106.384 11.6772 106.841 12.1993 106.841 12.9242C106.841 13.5979 106.4 14.0027 105.876 14.1209C104.574 14.4252 103.846 15.419 103.846 17.2392V19.6326C103.846 20.3408 103.272 20.914 102.561 20.914C102.221 20.9146 101.894 20.78 101.653 20.5399C101.412 20.2998 101.277 19.9738 101.276 19.6336V12.9577V12.9577ZM107.619 9.68765C107.619 8.97849 108.194 8.40723 108.904 8.40723C109.615 8.40723 110.19 8.97849 110.19 9.68765V19.6326C110.19 20.3408 109.615 20.914 108.904 20.914C108.564 20.9146 108.237 20.78 107.996 20.5399C107.755 20.2998 107.62 19.9738 107.619 19.6336V9.68667V9.68765ZM112.237 23.3242C111.865 23.1903 111.425 22.8859 111.425 22.2634C111.422 22.1278 111.446 21.993 111.495 21.8668C111.545 21.7406 111.619 21.6255 111.714 21.5282C111.808 21.4309 111.921 21.3533 112.046 21.3C112.17 21.2466 112.304 21.2186 112.44 21.2174C112.643 21.2174 112.761 21.2509 112.863 21.2854C113.082 21.3523 113.218 21.3868 113.404 21.3868C113.86 21.3868 114.081 21.3021 114.317 20.8471L114.402 20.6442L111.307 13.4974C111.23 13.3092 111.184 13.1096 111.171 12.9065C111.171 12.1825 111.73 11.6772 112.44 11.6772C113.082 11.6772 113.455 12.0308 113.674 12.6376L115.637 17.8972L117.531 12.6543C117.734 12.1155 118.105 11.6772 118.766 11.6772C119.425 11.6772 119.983 12.1825 119.983 12.8572C119.983 13.0591 119.916 13.3457 119.866 13.4639L116.702 21.0322C115.941 22.8692 115.18 23.5606 113.641 23.5606C113.066 23.5606 112.66 23.4769 112.237 23.3242Z" fill="#A8A8A8"/>
<path d="M14.5479 2.28516C22.3063 2.28516 28.5967 8.55334 28.5967 16.2852C28.5966 24.0169 22.3062 30.2852 14.5479 30.2852C6.78966 30.2849 0.500043 24.0168 0.5 16.2852C0.5 8.55348 6.78963 2.28538 14.5479 2.28516ZM18.2627 8.93262C16.9393 8.26892 15.4612 7.97324 13.9844 8.07715C9.87723 8.35194 6.55289 11.7016 6.31641 15.7969C6.04259 20.564 9.83582 24.4551 14.5547 24.4551C15.7312 24.4599 16.8953 24.2105 17.9668 23.7246C19.0382 23.2386 19.9923 22.5269 20.7637 21.6387L20.584 22.6377V23.54C20.5841 24.0048 20.8995 24.4358 21.3594 24.5186C21.4967 24.5444 21.6381 24.5398 21.7734 24.5049C21.9087 24.47 22.0349 24.4063 22.1426 24.3174C22.2502 24.2284 22.3367 24.1164 22.3965 23.9902C22.4562 23.8639 22.4878 23.7257 22.4883 23.5859V18.1826H17.3203C17.1806 18.1824 17.0426 18.2133 16.916 18.2725C16.7895 18.3317 16.6772 18.418 16.5879 18.5254C16.4985 18.6329 16.4336 18.7592 16.3984 18.8945C16.3634 19.0298 16.359 19.1713 16.3848 19.3086C16.4676 19.7664 16.8995 20.0809 17.3672 20.0811H18.8389L19.6924 19.9629C18.3272 21.9583 15.9566 22.8755 13.3652 22.4707C11.2558 22.1406 9.44404 20.7178 8.67871 18.7314C6.94324 14.2214 10.2475 9.91602 14.5547 9.91602C16.7992 9.91611 18.7668 11.225 19.8955 12.8057C20.1949 13.2361 20.7903 13.3941 21.2227 13.0957C21.4191 12.9627 21.5577 12.7596 21.6104 12.5283C21.663 12.297 21.6253 12.0545 21.5059 11.8496C20.706 10.6039 19.5859 9.59635 18.2627 8.93262Z" fill="#A8A8A8"/>
</g>
<defs>
<clipPath id="clip0_131423_46833">
<rect width="120" height="32" fill="white" transform="translate(0.5)"/>
</clipPath>
</defs>
</svg>
