<svg width="90" height="32" viewBox="0 0 90 32" fill="none" xmlns="http://www.w3.org/2000/svg">
<g clip-path="url(#clip0_131423_46837)">
<path d="M10.2933 4H0.5V27.3333L10.2933 4Z" fill="#A8A8A8"/>
<path d="M17.1839 4H26.9645V27.3333L17.1839 4Z" fill="#A8A8A8"/>
<path d="M13.7387 12.5996L19.972 27.3331H15.8824L14.0194 22.6423H9.4577L13.7387 12.5996Z" fill="#A8A8A8"/>
<path d="M42.9413 18.8389L44.0961 22.1378C44.1344 22.2204 44.1918 22.2585 44.2939 22.2585H46.5142C46.6354 22.2585 46.6545 22.2013 46.6354 22.0806L42.0481 9.38737C42.029 9.28567 42.0099 9.2666 41.9078 9.2666H39.1516C39.0751 9.2666 39.0304 9.32381 39.0304 9.40644C38.9921 10.0738 38.9347 10.2772 38.8518 10.4743L34.7622 22.0615C34.743 22.2013 34.7877 22.2585 34.9025 22.2585H36.8867C37.0079 22.2585 37.0653 22.2204 37.11 22.0996L38.201 18.8389H42.9413ZM38.8326 16.6842C39.4323 14.8791 40.2235 12.5654 40.5425 11.2434H40.5616C40.9572 12.629 41.8886 15.3748 42.3097 16.6842H38.8326Z" fill="#A8A8A8"/>
<path d="M52.5327 22.4555C53.7257 22.4555 54.9954 22.2394 56.2841 21.6865C56.3862 21.6483 56.4053 21.6038 56.4053 21.5085C56.3671 21.1525 56.3224 20.6377 56.3224 20.2436V8.2941C56.3224 8.21783 56.3224 8.17969 56.2267 8.17969H54.0639C53.9809 8.17969 53.9427 8.21783 53.9427 8.31952V12.3684C53.6045 12.3302 53.3684 12.3112 53.0877 12.3112C49.5979 12.3112 47.4542 14.6057 47.4542 17.4723C47.4542 20.7966 49.6553 22.4555 52.5327 22.4555V22.4555ZM53.9426 20.2436C53.5854 20.358 53.1898 20.4025 52.7879 20.4025C51.2056 20.4025 49.9105 19.5127 49.9105 17.3516C49.9105 15.4384 51.2439 14.307 53.0112 14.307C53.3684 14.307 53.6811 14.3451 53.9426 14.4468V20.2436Z" fill="#A8A8A8"/>
<path d="M63.3051 12.3105C60.3256 12.3105 58.4818 14.586 58.4818 17.3954C58.4818 19.9061 59.9492 22.4549 63.2604 22.4549C66.0613 22.4549 68.0263 20.4019 68.0263 17.3319C68.0263 14.6242 66.3611 12.3105 63.3051 12.3105ZM63.1839 14.3064C64.8682 14.3064 65.5828 15.7492 65.5828 17.3954C65.5828 19.4294 64.5301 20.44 63.3051 20.44C61.793 20.44 60.8998 19.1752 60.8998 17.351C60.8998 15.4759 61.8505 14.3064 63.1839 14.3064V14.3064Z" fill="#A8A8A8"/>
<path d="M70.2624 8.17969C70.1795 8.17969 70.122 8.21783 70.122 8.31952V21.8454C70.122 21.9026 70.1795 22.0043 70.2624 22.0233C71.213 22.3157 72.2083 22.4555 73.2355 22.4555C76.1767 22.4555 79.0349 20.6377 79.0349 16.9766C79.0349 14.3261 77.2102 12.3112 74.352 12.3112C73.6948 12.3112 73.0824 12.4129 72.5464 12.5908L72.5209 8.33859C72.5209 8.19876 72.4826 8.17969 72.3423 8.17969H70.2624ZM76.5914 17.2181C76.5914 19.411 75.0857 20.4407 73.4588 20.4407C73.1206 20.4407 72.8208 20.4216 72.5464 20.339V14.5676C72.8591 14.4468 73.2355 14.3451 73.9309 14.3451C75.5004 14.3451 76.5914 15.3367 76.5914 17.2181Z" fill="#A8A8A8"/>
<path d="M87.1066 17.9294C88.0763 17.9294 88.8738 17.9103 89.1482 17.8467C89.2502 17.8277 89.2885 17.7895 89.3077 17.7069C89.3651 17.4908 89.3906 17.0395 89.3906 16.4865C89.3906 14.6051 88.255 12.3105 85.3202 12.3105C82.3216 12.3105 80.6564 14.7449 80.6564 17.4908C80.6564 19.9252 81.9451 22.4549 85.5562 22.4549C86.9088 22.4549 87.7828 22.2388 88.5357 21.8829C88.6122 21.8447 88.6505 21.7812 88.6505 21.6668V20.0205C88.6505 19.9252 88.5931 19.9061 88.5357 19.9443C87.7828 20.2621 86.9662 20.421 86.073 20.421C84.0505 20.421 83.1318 19.3086 83.0744 17.9294H87.1066ZM83.0744 16.2259C83.2339 15.2598 83.8464 14.211 85.2181 14.211C86.7301 14.211 87.1257 15.4759 87.1257 16.0479C87.1257 16.067 87.1257 16.1496 87.1257 16.2069C87.0428 16.2259 86.7876 16.2259 86.0347 16.2259H83.0744Z" fill="#A8A8A8"/>
</g>
<defs>
<clipPath id="clip0_131423_46837">
<rect width="89" height="32" fill="white" transform="translate(0.5)"/>
</clipPath>
</defs>
</svg>
